<?xml version="1.0" encoding="utf-8"?>
<!-- Generator: Adobe Illustrator 18.0.0, SVG Export Plug-In . SVG Version: 6.00 Build 0)  -->
<!DOCTYPE svg PUBLIC "-//W3C//DTD SVG 1.0//EN" "http://www.w3.org/TR/2001/REC-SVG-20010904/DTD/svg10.dtd">
<svg version="1.0" id="Layer_1" xmlns:sketch="http://www.bohemiancoding.com/sketch/ns"
	 xmlns="http://www.w3.org/2000/svg" xmlns:xlink="http://www.w3.org/1999/xlink" x="0px" y="0px" width="24px" height="24px"
	 viewBox="0 0 24 24" enable-background="new 0 0 24 24" xml:space="preserve">
<title>apple</title>
<desc>Created with Sketch.</desc>
<g id="Page-1" sketch:type="MSPage">
	<g id="Screen_4" transform="translate(-937.000000, -753.000000)" sketch:type="MSArtboardGroup">
		<g id="game" transform="translate(732.000000, 740.000000)" sketch:type="MSLayerGroup">
			<g id="circ_iPhone_download" transform="translate(190.000000, 0.000000)" sketch:type="MSShapeGroup">
				<g id="apple" transform="translate(15.000000, 13.000000)">
					<path id="Fill-2" fill="#AC06F9" d="M18.6,12.8c0-3,2.5-4.5,2.6-4.6c-1.4-2.1-3.6-2.4-4.4-2.4c-1.9-0.2-3.7,1.1-4.6,1.1
						c-1,0-2.4-1.1-4-1.1c-2,0-3.9,1.2-4.9,3C1.1,12.5,2.7,18,4.7,21c1,1.5,2.2,3.1,3.8,3c1.5-0.1,2.1-1,4-1c1.8,0,2.4,1,4,0.9
						c1.6,0,2.7-1.5,3.7-2.9c1.2-1.7,1.7-3.3,1.7-3.4C21.8,17.6,18.6,16.4,18.6,12.8"/>
					<path id="Fill-3" fill="#AC06F9" d="M15.5,3.9c0.8-1,1.4-2.4,1.2-3.9c-1.2,0.1-2.7,0.8-3.5,1.8c-0.8,0.9-1.4,2.3-1.3,3.7
						C13.3,5.6,14.6,4.9,15.5,3.9"/>
				</g>
			</g>
		</g>
	</g>
</g>
</svg>
