<?xml version="1.0" encoding="utf-8"?>
<!-- Generator: Adobe Illustrator 18.0.0, SVG Export Plug-In . SVG Version: 6.00 Build 0)  -->
<!DOCTYPE svg PUBLIC "-//W3C//DTD SVG 1.0//EN" "http://www.w3.org/TR/2001/REC-SVG-20010904/DTD/svg10.dtd">
<svg version="1.0" id="YouTube_Icon" xmlns="http://www.w3.org/2000/svg" xmlns:xlink="http://www.w3.org/1999/xlink" x="0px"
	 y="0px" width="24px" height="24px" viewBox="362 511 24 24" enable-background="new 362 511 24 24" xml:space="preserve">
<g id="Lozenge">
	<g>
		<path fill="#AB03F9" d="M385.8,518.2c0,0-0.2-1.7-1-2.4c-0.9-1-1.9-1-2.4-1c-3.4-0.2-8.4-0.2-8.4-0.2h0c0,0-5,0-8.4,0.2
			c-0.5,0.1-1.5,0.1-2.4,1c-0.7,0.7-1,2.4-1,2.4s-0.2,1.9-0.2,3.9v1.8c0,1.9,0.2,3.9,0.2,3.9s0.2,1.7,1,2.4c0.9,1,2.1,0.9,2.6,1
			c1.9,0.2,8.2,0.2,8.2,0.2s5,0,8.4-0.3c0.5-0.1,1.5-0.1,2.4-1c0.7-0.7,1-2.4,1-2.4s0.2-1.9,0.2-3.9v-1.8
			C386,520.1,385.8,518.2,385.8,518.2z M371.5,526.1v-6.7l6.5,3.4L371.5,526.1z"/>
	</g>
</g>
</svg>
