<?xml version="1.0" encoding="utf-8"?>
<!-- Generator: Adobe Illustrator 18.0.0, SVG Export Plug-In . SVG Version: 6.00 Build 0)  -->
<!DOCTYPE svg PUBLIC "-//W3C//DTD SVG 1.0//EN" "http://www.w3.org/TR/2001/REC-SVG-20010904/DTD/svg10.dtd">
<svg version="1.0" id="Layer_1" xmlns:sketch="http://www.bohemiancoding.com/sketch/ns"
	 xmlns="http://www.w3.org/2000/svg" xmlns:xlink="http://www.w3.org/1999/xlink" x="0px" y="0px" width="24px" height="24px"
	 viewBox="0 0 24 24" enable-background="new 0 0 24 24" xml:space="preserve">
<title>Shape 15</title>
<desc>Created with Sketch.</desc>
<g id="Page-1" sketch:type="MSPage">
	<g id="Screen_4" transform="translate(-19.000000, -725.000000)" sketch:type="MSArtboardGroup">
		<g id="social" transform="translate(0.000000, 710.000000)" sketch:type="MSLayerGroup">
			<path id="Shape-15" sketch:type="MSShapeGroup" fill="#AC06F9" d="M37.7,28.4c-0.3-0.7-1.2-1.2-2.4-0.3c-1.6,1.3-4.2,1.3-4.2,1.3
				s-2.6,0-4.2-1.3c-1.2-1-2.1-0.4-2.4,0.3c-0.6,1.2,0.1,1.7,1.5,2.6c1.2,0.8,2.9,1.1,4,1.2L29,33.1c-1.3,1.3-2.5,2.6-3.4,3.4
				c-0.5,0.5-0.5,1.4,0,1.9l0.2,0.2c0.3,0.3,0.6,0.4,0.9,0.4h0c0.3,0,0.7-0.1,0.9-0.4l3.4-3.4c1.3,1.3,2.5,2.6,3.4,3.4
				c0.5,0.5,1.4,0.5,1.9,0l0.2-0.2c0.5-0.5,0.5-1.4,0-1.9L33,33.1l-0.9-0.9c1.1-0.1,2.8-0.4,4-1.2C37.6,30.1,38.2,29.5,37.7,28.4
				L37.7,28.4L37.7,28.4z M31,18.2c1.5,0,2.8,1.4,2.8,3.1c0,1.7-1.3,3.1-2.8,3.1c-1.5,0-2.8-1.4-2.8-3.1
				C28.2,19.6,29.5,18.2,31,18.2L31,18.2L31,18.2z M31,27.6c3.1,0,5.7-2.8,5.7-6.3c0-3.5-2.6-6.3-5.7-6.3s-5.7,2.8-5.7,6.3
				C25.3,24.8,27.9,27.6,31,27.6L31,27.6L31,27.6z"/>
		</g>
	</g>
</g>
</svg>
