<?xml version="1.0" encoding="utf-8"?>
<!-- Generator: Adobe Illustrator 18.0.0, SVG Export Plug-In . SVG Version: 6.00 Build 0)  -->
<!DOCTYPE svg PUBLIC "-//W3C//DTD SVG 1.0//EN" "http://www.w3.org/TR/2001/REC-SVG-20010904/DTD/svg10.dtd">
<svg version="1.0" id="Layer_1" xmlns="http://www.w3.org/2000/svg" xmlns:xlink="http://www.w3.org/1999/xlink" x="0px" y="0px"
	 width="256px" height="256px" viewBox="-137 163 256 256" style="enable-background:new -137 163 256 256;" xml:space="preserve">
<g id="androd">
	<path style="fill:#9FBF3B;" d="M23.9,185.2l12.8-18.6c0.8-1.1,0.6-2.6-0.4-3.2c-1-0.7-2.4-0.3-3.2,0.8l-13.3,19.3
		C11,180,1.3,178-9,178c-10.3,0-20,1.9-28.8,5.4l-13.3-19.3c-0.8-1.1-2.2-1.4-3.2-0.8c-1,0.7-1.2,2.1-0.4,3.2l12.8,18.6
		c-20.4,9.5-34.6,27.5-36.4,48.5H60.3C58.5,212.6,44.2,194.6,23.9,185.2"/>
	<path style="fill:#FFFFFF;" d="M-37.9,214.5c-4.2,0-7.7-3.4-7.7-7.7c0-4.2,3.4-7.7,7.7-7.7c4.2,0,7.7,3.4,7.7,7.7
		C-30.3,211-33.7,214.5-37.9,214.5"/>
	<path style="fill:#FFFFFF;" d="M19.9,214.5c-4.2,0-7.7-3.4-7.7-7.7c0-4.2,3.4-7.7,7.7-7.7c4.2,0,7.7,3.4,7.7,7.7
		C27.6,211,24.2,214.5,19.9,214.5"/>
	<path style="fill:#9FBF3B;" d="M-87.2,321.2c0,8.5-6.9,15.5-15.5,15.5l0,0c-8.5,0-15.5-6.9-15.5-15.5v-62.5
		c0-8.5,6.9-15.5,15.5-15.5l0,0c8.5,0,15.5,6.9,15.5,15.5C-87.2,258.7-87.2,321.2-87.2,321.2z"/>
	<path style="fill:#9FBF3B;" d="M-78.3,243.7v112.9c0,6.7,5.4,12.1,12.1,12.1h14.4v34.8c0,8.5,6.9,15.5,15.5,15.5
		s15.5-6.9,15.5-15.5v-34.8H2.9v34.8c0,8.5,6.9,15.5,15.5,15.5s15.5-6.9,15.5-15.5v-34.8h14.4c6.7,0,12.1-5.4,12.1-12.1V243.7H-78.3
		z"/>
	<path style="fill:#9FBF3B;" d="M69.2,321.2c0,8.5,6.9,15.5,15.5,15.5l0,0c8.5,0,15.5-6.9,15.5-15.5v-62.5c0-8.5-6.9-15.5-15.5-15.5
		l0,0c-8.5,0-15.5,6.9-15.5,15.5V321.2z"/>
</g>
</svg>
