<?xml version="1.0" encoding="utf-8"?>
<!-- Generator: Adobe Illustrator 18.0.0, SVG Export Plug-In . SVG Version: 6.00 Build 0)  -->
<!DOCTYPE svg PUBLIC "-//W3C//DTD SVG 1.0//EN" "http://www.w3.org/TR/2001/REC-SVG-20010904/DTD/svg10.dtd">
<svg version="1.0" id="Layer_1" xmlns:sketch="http://www.bohemiancoding.com/sketch/ns"
	 xmlns="http://www.w3.org/2000/svg" xmlns:xlink="http://www.w3.org/1999/xlink" x="0px" y="0px" width="24px" height="24px"
	 viewBox="-140 160 24 24" enable-background="new -140 160 24 24" xml:space="preserve">
<title>Group</title>
<desc>Created with Sketch.</desc>
<g id="Page-1" sketch:type="MSPage">
	<g id="Screen_1_video" transform="translate(-1163.000000, -135.000000)" sketch:type="MSArtboardGroup">
		<g id="video" transform="translate(289.000000, 134.000000)" sketch:type="MSLayerGroup">
			<g id="Group" transform="translate(874.000000, 0.000000)" sketch:type="MSShapeGroup">
				<path id="_x33_" d="M-116.5,184.3c-1,1-2,1-3,0l-8.7-8.8l-8.7,8.8c-1,1-1.5,1-2.4,0s-1-1.5,0-2.5l8.7-8.8l-8.7-8.8
					c-1-1-0.9-1.5,0-2.5s1.5-1,2.4,0l8.7,8.8l8.7-8.8c1-1,2-1,3,0c1,1,0.5,1.5-0.5,2.5l-8.7,8.8l8.7,8.8
					C-116.1,182.7-115.6,183.3-116.5,184.3L-116.5,184.3z"/>
			</g>
		</g>
	</g>
</g>
</svg>
