<?xml version="1.0" encoding="utf-8"?>
<!-- Generator: Adobe Illustrator 18.0.0, SVG Export Plug-In . SVG Version: 6.00 Build 0)  -->
<!DOCTYPE svg PUBLIC "-//W3C//DTD SVG 1.0//EN" "http://www.w3.org/TR/2001/REC-SVG-20010904/DTD/svg10.dtd">
<svg version="1.0" id="Layer_1" xmlns:sketch="http://www.bohemiancoding.com/sketch/ns"
	 xmlns="http://www.w3.org/2000/svg" xmlns:xlink="http://www.w3.org/1999/xlink" x="0px" y="0px" width="24px" height="24px"
	 viewBox="0 0 24 24" enable-background="new 0 0 24 24" xml:space="preserve">
<title>Shape 23 copy 3</title>
<desc>Created with Sketch.</desc>
<g id="Page-1" sketch:type="MSPage">
	<g id="Screen_4" transform="translate(-14.000000, -779.000000)" sketch:type="MSArtboardGroup">
		<g id="social" transform="translate(0.000000, 710.000000)" sketch:type="MSLayerGroup">
			<path id="Shape-23-copy-3" sketch:type="MSShapeGroup" fill="#AD03FC" d="M38,75.1c-0.2-0.5-1.3-0.4-1.3-0.4l-3.6,0
				c0,0-0.3,0-0.5,0.1c-0.2,0.1-0.3,0.4-0.3,0.4s-0.6,1.5-1.3,2.8c-1.6,2.7-2.2,2.9-2.5,2.7c-0.6-0.4-0.5-1.6-0.5-2.4
				c0-2.6,0.4-3.7-0.8-4c-0.4-0.1-0.7-0.2-1.7-0.2c-1.3,0-2.4,0-3,0.3c-0.4,0.2-0.7,0.6-0.5,0.7c0.2,0,0.8,0.1,1.1,0.5
				c0.4,0.5,0.4,1.6,0.4,1.6s0.2,3.1-0.5,3.5c-0.5,0.3-1.2-0.3-2.6-2.8c-0.7-1.3-1.3-2.7-1.3-2.7S19,75.1,18.8,75
				c-0.2-0.2-0.6-0.2-0.6-0.2l-3.4,0c0,0-0.5,0-0.7,0.2c-0.2,0.2,0,0.6,0,0.6s2.7,6.3,5.7,9.4c2.8,2.9,6,2.7,6,2.7h1.4
				c0,0,0.4,0,0.7-0.3c0.2-0.2,0.2-0.6,0.2-0.6s0-1.9,0.9-2.2c0.9-0.3,2,1.9,3.2,2.7c0.9,0.6,1.6,0.5,1.6,0.5l3.2,0
				c0,0,1.7-0.1,0.9-1.4c-0.1-0.1-0.5-1-2.4-2.8c-2-1.9-1.7-1.6,0.7-4.8C37.6,76.9,38.1,75.7,38,75.1z"/>
		</g>
	</g>
</g>
</svg>
