<?xml version="1.0" encoding="UTF-8" standalone="no"?>
<svg width="164px" height="336px" viewBox="0 0 164 336" version="1.1" xmlns="http://www.w3.org/2000/svg" xmlns:xlink="http://www.w3.org/1999/xlink" xmlns:sketch="http://www.bohemiancoding.com/sketch/ns">
    <!-- Generator: Sketch 3.3.3 (12072) - http://www.bohemiancoding.com/sketch -->
    <title>character_1</title>
    <desc>Created with Sketch.</desc>
    <defs></defs>
    <g id="Page-1" stroke="none" stroke-width="1" fill="none" fill-rule="evenodd" sketch:type="MSPage">
        <g id="Screen_3" sketch:type="MSArtboardGroup" transform="translate(-491.000000, -362.000000)">
            <g id="illustration" sketch:type="MSLayerGroup" transform="translate(0.000000, 100.000000)">
                <g id="character_1" transform="translate(573.000000, 430.000000) scale(-1, 1) translate(-573.000000, -430.000000) translate(491.000000, 262.000000)" sketch:type="MSShapeGroup">
                    <path d="M163.5,325.373995 C163.5,330.703995 158.333832,335.033995 151.962066,335.033995 L55.0391272,335.033995 C48.6661676,335.033995 43.5,330.703995 43.5,325.373995 C43.5,320.033995 48.6661676,315.703995 55.0391272,315.703995 L151.962066,315.703995 C158.333832,315.703995 163.5,320.033995 163.5,325.373995" id="Fill-1793" fill="#CDCCC7"></path>
                    <path d="M91.1875,91.6769 C90.7535,93.0339 90.4455,94.4109 89.8225,97.0789 C89.8225,97.0789 95.3085,96.0759 96.2655,95.9019 L117.4745,92.0479 C119.3615,91.7049 120.5935,89.7879 120.2285,87.7659 C119.8595,85.7419 118.0315,84.3829 116.1445,84.7239 L94.9335,88.5769 C93.0465,88.9219 91.8105,89.7359 91.1875,91.6769" id="Fill-1" fill="#A4D7A4"></path>
                    <path d="M23.5918,155.2326 C25.6778,158.5456 29.9588,159.6036 33.1548,157.5936 L51.5978,145.9916 C54.7928,143.9806 55.6958,139.6646 53.6098,136.3496 L31.3538,100.9656 C29.2678,97.6526 24.9868,96.5946 21.7908,98.6046 L3.3458,110.2076 C0.1528,112.2166 -0.7502,116.5326 1.3358,119.8476 L23.5918,155.2326 L23.5918,155.2326 Z" id="Fill-3" fill="#A4D7A4"></path>
                    <path d="M28.7148,153.5119 L51.4608,138.9569 L27.8218,102.0139 L5.0758,116.5709 L28.7148,153.5119 L28.7148,153.5119 Z" id="Fill-4" fill="#FFFFFF"></path>
                    <path d="M4.207,115.7609 C5.086,117.1249 6.887,117.5279 8.23,116.6609 L26.477,104.9019 C27.822,104.0349 28.199,102.2279 27.32,100.8649 C26.441,99.5019 24.639,99.0989 23.295,99.9649 L5.051,111.7249 C3.707,112.5919 3.328,114.3989 4.207,115.7609" id="Fill-5" fill="#50B848"></path>
                    <path d="M10.5605,105.0636 C9.7985,103.8826 10.1405,102.3116 11.3205,101.5496 C12.4995,100.7896 14.0745,101.1276 14.8335,102.3086 C15.5955,103.4886 15.2535,105.0636 14.0765,105.8246 C12.8945,106.5846 11.3205,106.2436 10.5605,105.0636 M8.4785,106.7906 C10.0425,109.2156 13.2775,109.9156 15.7055,108.3516 C18.1305,106.7886 18.8305,103.5526 17.2655,101.1256 C15.7035,98.6996 12.4665,98.0006 10.0405,99.5636 C7.6135,101.1276 6.9155,104.3636 8.4785,106.7906" id="Fill-6" fill="#50B848"></path>
                    <path d="M15.584,122.6925 C15.509,122.6925 15.435,122.6845 15.36,122.6675 L12.042,121.9045 C11.503,121.7805 11.167,121.2445 11.291,120.7055 C11.415,120.1675 11.954,119.8355 12.489,119.9555 L14.759,120.4765 L15.492,115.6965 C15.576,115.1515 16.086,114.7765 16.632,114.8605 C17.178,114.9435 17.553,115.4545 17.469,116.0005 L16.572,121.8445 C16.53,122.1185 16.376,122.3635 16.146,122.5205 C15.979,122.6335 15.782,122.6925 15.584,122.6925" id="Fill-7" fill="#50B848"></path>
                    <path d="M23.0947,122.091 C22.7687,122.091 22.4487,121.932 22.2577,121.639 C21.9547,121.178 22.0827,120.558 22.5447,120.255 L31.7367,114.225 C32.1987,113.922 32.8207,114.05 33.1207,114.512 C33.4237,114.974 33.2957,115.594 32.8337,115.897 L23.6427,121.927 C23.4737,122.038 23.2827,122.091 23.0947,122.091" id="Fill-8" fill="#C9C9C9"></path>
                    <path d="M15.3779,127.1174 C15.0419,127.1174 14.7139,126.9484 14.5249,126.6404 L13.6799,125.2644 C13.3899,124.7944 13.5369,124.1784 14.0079,123.8894 C14.4779,123.6004 15.0939,123.7464 15.3829,124.2184 L15.7049,124.7424 L18.0969,123.2734 L17.6139,122.5314 C17.3139,122.0684 17.4449,121.4494 17.9079,121.1484 C18.3709,120.8464 18.9909,120.9794 19.2919,121.4414 L20.3329,123.0444 C20.4799,123.2704 20.5289,123.5464 20.4699,123.8094 C20.4099,124.0724 20.2469,124.3004 20.0179,124.4414 L15.8999,126.9694 C15.7369,127.0694 15.5569,127.1174 15.3779,127.1174" id="Fill-9" fill="#C4C4C4"></path>
                    <path d="M27.4521,128.3927 C27.1261,128.3927 26.8061,128.2337 26.6151,127.9407 C26.3121,127.4787 26.4411,126.8597 26.9021,126.5567 L36.0961,120.5277 C36.5601,120.2257 37.1791,120.3537 37.4801,120.8157 C37.7831,121.2777 37.6541,121.8977 37.1931,122.2007 L28.0001,128.2287 C27.8301,128.3397 27.6401,128.3927 27.4521,128.3927" id="Fill-10" fill="#C9C9C9"></path>
                    <path d="M19.7373,133.4201 C19.4013,133.4201 19.0733,133.2511 18.8833,132.9431 L18.0383,131.5661 C17.7493,131.0961 17.8963,130.4801 18.3673,130.1911 C18.8363,129.9011 19.4523,130.0481 19.7433,130.5201 L20.0653,131.0451 L22.4563,129.5761 L21.9733,128.8331 C21.6733,128.3691 21.8043,127.7501 22.2673,127.4491 C22.7333,127.1491 23.3503,127.2811 23.6513,127.7441 L24.6923,129.3471 C24.8393,129.5731 24.8883,129.8491 24.8293,130.1121 C24.7693,130.3751 24.6063,130.6031 24.3773,130.7441 L20.2593,133.2721 C20.0963,133.3721 19.9163,133.4201 19.7373,133.4201" id="Fill-11" fill="#C4C4C4"></path>
                    <path d="M31.5381,135.0451 C31.2121,135.0451 30.8921,134.8861 30.7011,134.5931 C30.3981,134.1321 30.5261,133.5121 30.9881,133.2091 L40.1821,127.1781 C40.6441,126.8741 41.2661,127.0031 41.5661,127.4651 C41.8691,127.9271 41.7411,128.5471 41.2791,128.8501 L32.0861,134.8811 C31.9171,134.9921 31.7261,135.0451 31.5381,135.0451" id="Fill-12" fill="#C9C9C9"></path>
                    <path d="M23.8232,140.0715 C23.4872,140.0715 23.1592,139.9025 22.9702,139.5945 L22.1252,138.2185 C21.8352,137.7485 21.9822,137.1325 22.4532,136.8435 C22.9222,136.5545 23.5392,136.6995 23.8282,137.1725 L24.1502,137.6965 L26.5422,136.2265 L26.0592,135.4845 C25.7592,135.0215 25.8902,134.4025 26.3532,134.1015 C26.8152,133.8005 27.4362,133.9315 27.7372,134.3945 L28.7782,135.9975 C28.9252,136.2235 28.9742,136.4995 28.9152,136.7625 C28.8552,137.0255 28.6922,137.2535 28.4632,137.3945 L24.3452,139.9235 C24.1822,140.0235 24.0022,140.0715 23.8232,140.0715" id="Fill-13" fill="#C4C4C4"></path>
                    <path d="M35.6924,141.0187 C35.3664,141.0187 35.0464,140.8597 34.8554,140.5667 C34.5524,140.1057 34.6804,139.4857 35.1424,139.1827 L44.3364,133.1527 C44.7994,132.8487 45.4204,132.9787 45.7204,133.4397 C46.0234,133.9017 45.8954,134.5217 45.4334,134.8247 L36.2404,140.8547 C36.0704,140.9657 35.8804,141.0187 35.6924,141.0187" id="Fill-14" fill="#C9C9C9"></path>
                    <path d="M27.9756,146.0451 C27.6396,146.0451 27.3116,145.8761 27.1226,145.5681 L26.2776,144.1921 C25.9876,143.7221 26.1346,143.1061 26.6056,142.8171 C27.0746,142.5271 27.6916,142.6741 27.9806,143.1461 L28.3026,143.6701 L30.6946,142.2011 L30.2116,141.4601 C29.9116,140.9971 30.0426,140.3781 30.5056,140.0771 C30.9686,139.7751 31.5876,139.9061 31.8896,140.3701 L32.9306,141.9721 C33.0776,142.1981 33.1266,142.4741 33.0676,142.7371 C33.0076,143.0001 32.8446,143.2281 32.6156,143.3691 L28.4976,145.8971 C28.3346,145.9971 28.1546,146.0451 27.9756,146.0451" id="Fill-15" fill="#C4C4C4"></path>
                    <path d="M76.7051,132.9914 C99.4341,131.0364 102.1011,115.9704 101.6251,104.6134 C105.8201,104.1904 120.6991,102.7444 134.7191,101.0874 C136.1131,125.4374 117.0331,150.4614 91.4121,153.4704 C65.7911,156.4794 41.3941,139.9584 36.7261,115.1194 C35.9591,111.0284 40.6391,107.2934 42.3221,106.8914 C44.7071,106.3244 46.2771,107.6584 46.9391,109.3784 C47.6031,111.1004 48.0231,116.5304 53.9981,122.8244 C61.6951,130.9314 67.5431,133.7794 76.7051,132.9914" id="Fill-16" fill="#FFE4A9"></path>
                    <path d="M144.248,197.0138 L144.711,122.7008 C144.711,104.7168 130.744,90.1398 113.516,90.1398 L105.719,90.1398 C88.49,90.1398 74.523,104.7168 74.523,122.7008 L74.592,196.8588 L144.248,197.0138 L144.248,197.0138 Z" id="Fill-17" fill="#C6EEC9"></path>
                    <path d="M101.164,92.3244 L123.553,92.3244 L123.553,84.2464 L101.164,84.2464 L101.164,92.3244 L101.164,92.3244 Z" id="Fill-18" fill="#F9D691"></path>
                    <path d="M86,66.0394989 C86.0208413,77.026045 95.6505077,86.0394989 108,86.0394989 C107.529048,86.0394989 116.489808,86.0394989 116,86.0394989 C128.368349,86.0394989 138,77.026045 138,66.0394989 L138,34.0394989 L86,34.0394989 C86,34.0394989 86.0208413,65.9077429 86,66.0394989 L86,66.0394989 Z" id="Fill-19" fill="#FFE4A9"></path>
                    <path d="M84.5176,33.0529 C91.4666,34.7749 96.6366,33.9249 109.1406,33.9679 C111.7556,33.9759 111.3126,39.8249 113.9996,42.8869 C115.2886,44.3559 117.6056,45.4459 117.6246,50.0119 C117.6306,51.5579 117.6876,56.3869 117.6876,56.3869 L122.5316,56.3869 C122.5316,56.3869 122.5616,52.3869 122.5396,50.8869 C122.5896,56.0749 122.6356,55.7489 122.5936,61.5119 C122.5816,63.2329 124.4996,74.4709 134.3746,77.5119 C136.2066,75.5539 136.9856,73.8369 137.8326,72.0119 C138.9156,69.6789 139.4826,67.1729 139.3226,63.7889 C139.3226,63.7889 139.0916,38.0229 139.1936,32.7339 C139.2946,27.4459 137.9686,24.0349 134.6156,20.9239 C130.3396,16.9569 125.9726,16.0539 119.8516,16.0199 C106.0746,15.9439 92.1896,15.8109 89.8436,15.7389 C86.4556,15.6349 85.0836,15.7249 82.0996,15.0179 C79.0016,14.2849 77.7426,13.4319 77.7426,13.4319 C77.7426,13.4319 76.9356,19.8649 77.6626,23.7429 C78.5446,28.4579 80.6156,32.0859 84.5176,33.0529" id="Fill-22" fill="#BF3600"></path>
                    <path d="M122.4219,61.4894 C125.3109,61.4894 127.6509,59.1504 127.6509,56.2624 C127.6509,53.3764 125.3109,51.0354 122.4219,51.0354 L122.4219,61.4894 L122.4219,61.4894 Z" id="Fill-23" fill="#FFE4A9"></path>
                    <path d="M117.6367,50.6183 L139.2027,50.6183 L139.2027,48.6843 L117.5467,48.6683 L117.6097,49.4183 L117.6367,50.6183 L117.6367,50.6183 Z" id="Fill-30" fill="#C66D40"></path>
                    <path d="M116.8281,46.1374 L139.1871,46.1794 L139.1871,44.2454 L115.3751,44.2314 L116.1561,45.0904 L116.8281,46.1374 L116.8281,46.1374 Z" id="Fill-31" fill="#C66D40"></path>
                    <path d="M55.8398,166.0773 C83.8688,166.2793 89.2698,152.1363 90.3148,140.8013 C95.4938,140.8703 113.8578,141.1693 131.2008,141.1583 C129.4118,165.5053 112.9628,185.1303 71.5758,186.5603 C39.9018,187.6563 13.8928,166.6113 13.8928,141.3383 C13.8928,140.8003 13.7068,139.7753 13.7308,139.2433 C14.4828,140.6933 15.5018,142.1433 16.6308,143.7553 C17.2598,144.6533 17.6538,133.7163 21.9508,134.7903 C24.2578,135.3663 23.6698,140.1603 23.6698,142.5233 C23.6698,145.5933 25.9808,150.9893 28.3378,153.5293 C34.6208,160.2963 43.5368,165.9883 55.8398,166.0773" id="Fill-32" fill="#FFE4A9"></path>
                    <path d="M131.8398,141.0207 L132.1188,120.4537 C132.1188,109.4117 123.7208,100.4627 113.3598,100.4627 L108.6718,100.4627 C98.3128,100.4627 89.9138,109.4117 89.9138,120.4537 L89.9138,140.8067 L131.8398,141.0207 L131.8398,141.0207 Z" id="Fill-33" fill="#A4D7A4"></path>
                    <path d="M35.8008,115.6164 C36.6578,115.0474 36.7348,114.4044 36.3028,113.7374 C35.8728,113.0764 35.1758,112.8184 34.3188,113.3874 L29.8128,116.3854 L31.2948,118.6154 L35.8008,115.6164 L35.8008,115.6164 Z" id="Fill-34" fill="#3A3A3A"></path>
                    <path d="M52.9961,102.6437 C54.3571,101.5477 54.6031,100.7167 54.1191,100.0877 C53.6371,99.4627 52.6801,99.4617 51.3181,100.5587 L44.1601,106.3207 L45.8381,108.4067 L52.9961,102.6437 L52.9961,102.6437 Z" id="Fill-35" fill="#3A3A3A"></path>
                    <path d="M98.9102,93.6154 C98.4282,94.9574 98.0702,96.3224 97.3532,98.9664 C97.3532,98.9664 102.8712,98.1574 103.8342,98.0164 L125.1662,94.9124 C127.0642,94.6364 128.3632,92.7634 128.0682,90.7294 C127.7712,88.6944 125.9922,87.2714 124.0962,87.5464 L102.7622,90.6484 C100.8632,90.9274 99.6012,91.6974 98.9102,93.6154" id="Fill-37" fill="#A4D7A4"></path>
                    <path d="M43.1777,115.485 C41.9827,115.485 41.1037,114.609 40.3317,113.662 C34.9867,107.102 37.6387,98.672 37.7537,98.317 C38.0177,97.504 38.7697,96.949 39.6237,96.935 L39.6567,96.935 C40.4977,96.935 41.2507,97.462 41.5367,98.256 C46.5997,112.286 45.5797,113.737 45.0317,114.517 C44.5997,115.132 43.9237,115.485 43.1777,115.485" id="Fill-38" fill="#FFE4A9"></path>
                    <path d="M37.7637,118.4762 L37.7617,118.4762 C36.2897,118.4752 35.5897,117.1132 35.0787,116.1192 C31.5287,109.2182 32.7507,101.8102 32.8047,101.4982 C32.9637,100.5742 33.7437,99.8842 34.6807,99.8402 C35.6127,99.7832 36.4587,100.4092 36.7047,101.3132 C40.6957,115.9982 40.0527,116.8372 39.4317,117.6492 C39.0527,118.1432 38.3867,118.4762 37.7637,118.4762" id="Fill-39" fill="#FFE4A9"></path>
                    <path d="M49.7236,114.7087 C48.6546,114.7087 47.7676,113.9987 46.9666,113.2307 C40.8616,107.3907 42.3956,98.7187 42.4636,98.3527 C42.6206,97.5107 43.2956,96.8627 44.1426,96.7397 C44.9886,96.6177 45.8216,97.0467 46.2106,97.8097 C53.0916,111.2867 52.1936,112.7527 51.6566,113.6287 C51.2426,114.3057 50.5196,114.7087 49.7236,114.7087" id="Fill-40" fill="#FFE4A9"></path>
                    <path d="M50.0225,123.3835 C48.3465,123.3835 47.5765,121.6995 47.2055,120.8905 C43.8045,113.4935 48.2515,106.2695 48.4435,105.9655 C48.8985,105.2405 49.7655,104.8835 50.5985,105.0835 C51.4315,105.2805 52.0455,105.9875 52.1275,106.8395 C53.4515,120.7025 52.2245,122.0525 51.7005,122.6285 C51.2575,123.1155 50.6625,123.3835 50.0225,123.3835" id="Fill-41" fill="#FFE4A9"></path>
                    <path d="M93.3789,136.7199 C93.3789,137.6719 94.0039,138.4429 94.7749,138.4429 C95.5469,138.4429 96.1719,137.6719 96.1719,136.7199 L96.1719,115.5319 C96.1719,114.5789 95.5469,113.8089 94.7749,113.8089 C94.0039,113.8089 93.3789,114.5789 93.3789,115.5319 L93.3789,136.7199 L93.3789,136.7199 Z" id="Fill-42" fill="#C6EEC9"></path>
                    <path d="M20.4688,162.6115 C20.4688,162.6115 23.0468,155.1425 30.5468,155.7675 L33.6718,158.4345 C33.6718,158.4345 25.4998,159.2625 23.3278,166.4245 L21.7498,164.3775 L20.4688,162.6115 L20.4688,162.6115 Z" id="Fill-46" fill="#50B848"></path>
                    <path d="M28.084,160.8625 C28.084,163.0845 26.527,164.8845 24.608,164.8845 C22.691,164.8845 21.135,163.0845 21.135,160.8625 C21.135,158.6385 22.691,156.8395 24.608,156.8395 C26.527,156.8395 28.084,158.6385 28.084,160.8625" id="Fill-47" fill="#8BFA82"></path>
                    <path d="M27.0586,160.8273 C27.0586,162.4773 25.9256,163.8163 24.5306,163.8163 C23.1336,163.8163 22.0016,162.4773 22.0016,160.8273 C22.0016,159.1773 23.1336,157.8403 24.5306,157.8403 C25.9256,157.8403 27.0586,159.1773 27.0586,160.8273" id="Fill-48" fill="#FFFFFF"></path>
                    <path d="M23.9307,161.0563 C24.0277,161.1343 24.0437,161.2723 23.9667,161.3693 L23.1897,162.3563 C23.1127,162.4523 22.9727,162.4693 22.8747,162.3923 C22.7807,162.3173 22.7637,162.1773 22.8387,162.0803 L23.6187,161.0943 C23.6957,160.9973 23.8347,160.9823 23.9307,161.0563" id="Fill-49" fill="#3A3A3A"></path>
                    <path d="M143.4121,39.3332 C143.4121,39.3332 143.7731,41.1912 144.3201,43.7802 C132.4591,43.4692 136.8521,37.3552 131.0801,35.8182 C116.1191,31.8342 89.2031,23.9702 85.0061,22.3472 C81.3041,20.9152 78.1871,18.0752 81.1251,14.8872 C83.5581,12.2472 93.9141,14.9642 93.9141,14.9642 L141.5301,30.1262 L143.4121,39.3332 L143.4121,39.3332 Z" id="Fill-50" fill="#DDDDDD"></path>
                    <path d="M141.7227,31.3132 C131.3027,28.4312 130.3747,27.4542 115.5717,23.5482 C100.7687,19.6432 97.5937,18.0372 88.9217,16.1292 C92.2637,3.8972 106.8537,-2.6598 121.6567,1.2452 C136.4587,5.1512 145.0657,19.0812 141.7227,31.3132" id="Fill-51" fill="#CECECE"></path>
                    <path d="M141.7363,31.3053 L88.9293,16.1693 L89.5253,14.2903 L142.1743,29.3073 L141.7363,31.3053 L141.7363,31.3053 Z" id="Fill-52" fill="#BFBFBF"></path>
                    <path d="M138.6211,28.5983 L136.6291,28.4273 C136.6851,27.7503 137.8341,11.7803 121.7001,6.7163 C102.1291,0.5723 94.9531,15.4233 94.6571,16.0583 L92.8421,15.2183 C92.9221,15.0463 101.0161,-1.8747 122.3001,4.8083 C139.9861,10.3593 138.6371,28.4163 138.6211,28.5983" id="Fill-53" fill="#BFBFBF"></path>
                    <path d="M29.793,116.4264 L28.301,118.9164 L31.275,118.6564 C31.275,118.6564 31.863,117.0814 29.793,116.4264" id="Fill-54" fill="#3A3A3A"></path>
                    <g id="face" transform="translate(86.000000, 44.000000)">
                        <path d="M1.5977,9.0902 C1.5977,10.1962 2.4947,11.0942 3.6017,11.0942 C4.7087,11.0942 5.6057,10.1962 5.6057,9.0902 C5.6057,7.9832 4.7087,7.0872 3.6017,7.0872 C2.4947,7.0872 1.5977,7.9832 1.5977,9.0902" id="Fill-20-Copy" fill="#3A3A3A"></path>
                        <path d="M18.8555,9.0902 C18.8555,10.1962 19.7515,11.0942 20.8595,11.0942 C21.9655,11.0942 22.8635,10.1962 22.8635,9.0902 C22.8635,7.9832 21.9655,7.0872 20.8595,7.0872 C19.7515,7.0872 18.8555,7.9832 18.8555,9.0902" id="Fill-21-Copy" fill="#3A3A3A"></path>
                        <path d="M27.8398,5.7599 C27.8398,5.7599 27.4828,3.4689 24.6178,1.9649 C22.5958,0.9029 20.3948,0.6759 18.1018,1.3919" id="Stroke-24-Copy" stroke="#A52300" stroke-width="3" stroke-linecap="round" stroke-linejoin="round"></path>
                        <path d="M4.6758,1.5001 C4.6758,1.5001 2.5278,0.8911 0.5938,2.7161" id="Stroke-25-Copy" stroke="#A52300" stroke-width="3" stroke-linecap="round" stroke-linejoin="round"></path>
                        <path d="M10.4316,25.6732 C11.3106,28.1942 14.0666,29.5252 16.5876,28.6452 C19.1076,27.7662 20.4396,25.0102 19.5606,22.4882 C14.2076,24.3562 14.2076,24.3562 10.4316,25.6732" id="Fill-26-Copy" fill="#FFFFFF"></path>
                        <path d="M8.9707,16.306 C8.9707,18.053 9.7367,18.765 10.9667,18.782 C12.1937,18.798 13.1247,18.053 13.1247,16.306 L13.1247,7.116 L8.9707,7.116 L8.9707,16.306 L8.9707,16.306 Z" id="Fill-27-Copy" fill="#FF8948"></path>
                        <path d="M18.2813,16.2503 C18.2813,17.4953 19.5303,18.5063 21.0713,18.5063 L25.5883,18.5063 C27.1283,18.5063 28.3773,17.4953 28.3773,16.2503 C28.3773,15.0053 27.1283,13.9943 25.5883,13.9943 L21.0713,13.9943 C19.5303,13.9943 18.2813,15.0053 18.2813,16.2503" id="Fill-28-Copy" fill="#FFC49C"></path>
                        <path d="M0.0029,18.5062 L3.3559,18.5062 C4.4999,18.5062 5.4279,17.4952 5.4279,16.2502 C5.4279,15.0052 4.4999,13.9942 3.3559,13.9942 L0.0029,13.9942 L0.0029,18.5062 L0.0029,18.5062 Z" id="Fill-29-Copy" fill="#FFC49C"></path>
                    </g>
                    <g id="bottom" transform="translate(102.500000, 262.209990) scale(-1, 1) translate(-102.500000, -262.209990) translate(57.000000, 195.709990)">
                        <path d="M67.8648206,131.892729 L43.7266176,131.529718 C36.8430996,131.529718 33.892302,132.957433 33.892302,127.784764 C33.892302,127.784764 32.9757569,118 38.8999828,118 L67.6850319,118 C88.9629603,118.241359 89.8543602,131.892729 89.8543602,131.892729 C82.7030451,132.134088 73.7865319,131.892729 67.8648206,131.892729 Z" id="Fill-2" fill="#3DA236"></path>
                        <path d="M89.4316102,133 L35.2283782,133 C34.4698424,133 33.8572272,132.328402 33.8572272,131.5 C33.8572272,130.671598 34.4698424,130 35.2283782,130 L76.5019531,130 L89.4316102,130 C90.190146,130 90.8040191,130.671598 90.8040191,131.5 C90.8040191,132.328402 90.190146,133 89.4316102,133 Z" id="Fill-3" fill="#86EC7E"></path>
                        <path d="M73,118 L4,118 L4,0 L73,0 L73,118 L73,118 Z" id="Fill-4" fill="#395B59"></path>
                        <path d="M60.9947121,131.892729 C53.2494963,132.134088 43.5905647,131.892729 37.1730285,131.892729 L11.0210037,131.529718 C3.56441387,131.529718 0.369449611,132.957433 0.369449611,127.784764 C0.369449611,127.784764 -0.625682619,118 5.7931085,118 L36.9785197,118 C60.0284425,118.241359 60.9947121,131.892729 60.9947121,131.892729" id="Fill-5" fill="#50B848"></path>
                        <path d="M61.9443711,131.5 C61.9443711,132.328402 61.2785591,133 60.4572657,133 L1.81566081,133 C0.994367374,133 0.32980933,132.328402 0.32980933,131.5 C0.32980933,130.671598 0.994367374,130 1.81566081,130 L60.4572657,130 C61.2785591,130 61.9443711,130.671598 61.9443711,131.5" id="Fill-6" fill="#86EC7E"></path>
                        <path d="M48,118 L3,118 L3,0 L48,0 L48,118 L48,118 Z" id="Fill-7" fill="#3E6B67"></path>
                        <path d="M72,4 L3,4 L3,0 L72,0 L72,4 L72,4 Z" id="Fill-8" fill="#4F7F72"></path>
                        <path d="M43,86.2174689 C43,87.2029981 41.6564246,88 40,88 C38.3421788,88 37,87.2029981 37,86.2174689 L37,18.7845261 C37,17.7989969 38.3421788,17 40,17 C41.6564246,17 43,17.7989969 43,18.7845261 L43,86.2174689 L43,86.2174689 Z" id="Fill-9" fill="#467C75"></path>
                        <path d="M69,86.2174689 C69,87.2029981 67.6564246,88 66,88 C64.3421788,88 63,87.2029981 63,86.2174689 L63,18.7845261 C63,17.7989969 64.3421788,17 66,17 C67.6564246,17 69,17.7989969 69,18.7845261 L69,86.2174689 L69,86.2174689 Z" id="Fill-10" fill="#3E6B67"></path>
                    </g>
                </g>
            </g>
        </g>
    </g>
</svg>