<?xml version="1.0" encoding="UTF-8" standalone="no"?>
<svg width="18px" height="18px" viewBox="0 0 18 18" version="1.1" xmlns="http://www.w3.org/2000/svg" xmlns:xlink="http://www.w3.org/1999/xlink" xmlns:sketch="http://www.bohemiancoding.com/sketch/ns">
    <!-- Generator: Sketch 3.3.3 (12072) - http://www.bohemiancoding.com/sketch -->
    <title>Fill 101 + Fill 102 + Fill 103</title>
    <desc>Created with Sketch.</desc>
    <defs></defs>
    <g id="Page-1" stroke="none" stroke-width="1" fill="none" fill-rule="evenodd" sketch:type="MSPage">
        <g id="Screen_3" sketch:type="MSArtboardGroup" transform="translate(-206.000000, -391.000000)">
            <g id="illustration" sketch:type="MSLayerGroup" transform="translate(0.000000, -149.000000)">
                <g id="Group" transform="translate(0.000000, 134.000000)" sketch:type="MSShapeGroup">
                    <g id="Fill-101-+-Fill-102-+-Fill-103" transform="translate(206.000000, 406.000000)">
                        <path d="M10.3809,0.8248 C9.8829,0.7578 9.4079,0.7468 9.1899,0.8468 C8.6589,1.0918 8.4959,2.3138 8.4959,2.3138 C8.1709,2.3138 6.7869,2.5988 6.7869,2.5988 C6.5419,2.3148 5.7689,1.6628 5.4829,1.6228 C5.1989,1.5808 4.0989,2.1908 3.5289,2.7628 C2.9579,3.3318 3.8129,4.5538 3.8129,4.5538 C3.0819,5.1648 2.7949,6.1008 2.7949,6.1008 C2.7949,6.1008 1.5739,5.8148 1.1679,6.1008 C0.7309,6.4048 0.5669,7.5848 0.5779,8.4038 C4.4809,6.4048 7.8869,3.9958 10.3809,0.8248" id="Fill-101" fill="#004472"></path>
                        <path d="M17.1836,9.3424 C16.9806,8.8964 15.8006,8.6514 15.8006,8.6514 C15.8006,7.9984 15.4736,6.9004 15.4736,6.9004 C15.6766,6.6554 16.4516,6.0854 16.5326,5.6374 C16.6156,5.1914 15.3126,3.5224 14.9856,3.3974 C14.6596,3.2764 13.3166,3.9264 13.3166,3.9264 C13.2386,3.8154 13.1346,3.7034 13.0196,3.5964 C12.3536,4.3124 11.6446,5.0204 10.8966,5.7044 C12.0786,6.3924 12.8736,7.6694 12.8736,9.1354 C12.8736,11.3264 11.0966,13.1064 8.9056,13.1064 C7.0136,13.1064 5.4336,11.7804 5.0356,10.0094 C4.1486,10.5094 3.2276,10.9704 2.2726,11.3814 C2.2776,11.4054 2.2816,11.4204 2.2816,11.4204 C2.2816,11.4204 1.3046,11.9094 1.3856,12.7214 C1.4676,13.5374 2.4436,14.8394 2.9746,14.9214 C3.5036,15.0014 4.3576,14.3514 4.3576,14.3514 C4.8476,14.8794 5.7426,15.3674 5.7426,15.3674 C5.7426,15.3674 5.5386,16.5114 5.7426,16.8764 C5.9456,17.2424 7.9826,17.6094 8.5526,17.4864 C9.1226,17.3634 9.2456,16.1014 9.2456,16.1014 C9.6506,16.1434 11.1996,15.8584 11.1996,15.8584 C11.1996,15.8584 11.8506,16.9174 12.2986,16.9174 C12.7456,16.9174 14.5376,15.6544 14.6196,15.2064 C14.7006,14.7594 14.1306,13.7394 14.1306,13.7394 C14.5786,13.3744 15.1476,12.2754 15.1476,12.2754 C15.1476,12.2754 15.7186,12.5194 16.4516,12.2754 C17.1836,12.0304 17.3876,9.7914 17.1836,9.3424" id="Fill-102" fill="#004472"></path>
                        <path d="M4.9355,9.1354 C4.9355,6.9434 6.7105,5.1644 8.9055,5.1644 C9.6315,5.1644 10.3105,5.3624 10.8965,5.7044 C11.6445,5.0204 12.3535,4.3124 13.0195,3.5964 C12.5935,3.1974 12.0115,2.8684 12.0115,2.8684 C12.0545,2.4204 12.1345,1.6474 11.9315,1.3214 C11.8125,1.1314 11.0615,0.9124 10.3535,0.8114 C7.8615,3.9814 4.4555,6.3904 0.5525,8.3884 C0.5565,8.7374 0.5915,9.0184 0.6525,9.1394 C0.8575,9.5474 1.9975,9.5894 1.9975,9.5894 C1.9235,9.9184 2.2165,11.1504 2.2725,11.3814 C3.2275,10.9704 4.1485,10.5094 5.0355,10.0094 C4.9705,9.7274 4.9355,9.4364 4.9355,9.1354" id="Fill-103" fill="#4B90CB"></path>
                    </g>
                </g>
            </g>
        </g>
    </g>
</svg>