<?xml version="1.0" encoding="UTF-8" standalone="no"?>
<svg width="29px" height="29px" viewBox="0 0 29 29" version="1.1" xmlns="http://www.w3.org/2000/svg" xmlns:xlink="http://www.w3.org/1999/xlink" xmlns:sketch="http://www.bohemiancoding.com/sketch/ns">
    <!-- Generator: Sketch 3.3.3 (12072) - http://www.bohemiancoding.com/sketch -->
    <title>Group</title>
    <desc>Created with Sketch.</desc>
    <defs></defs>
    <g id="Page-1" stroke="none" stroke-width="1" fill="none" fill-rule="evenodd" sketch:type="MSPage">
        <g id="Screen_4" sketch:type="MSArtboardGroup" transform="translate(-412.000000, -274.000000)">
            <g id="illustration" sketch:type="MSLayerGroup" transform="translate(0.000000, 100.000000)">
                <g id="vitrina" transform="translate(380.000000, 148.000000)" sketch:type="MSShapeGroup">
                    <g id="Group" transform="translate(32.000000, 26.000000)">
                        <path d="M25.6172,1.103 C26.3582,0.538 26.8772,0.378 27.2352,0.734 L28.4122,1.904 C28.7542,2.245 28.4512,2.944 28.0102,3.532 C27.6542,4.006 26.2672,5.753 26.2672,5.753 C25.7692,6.254 25.2262,6.22 24.8692,5.864 L23.2792,4.283 C22.9212,3.927 22.9022,3.402 23.4002,2.902 C23.4002,2.902 24.8772,1.667 25.6172,1.103" id="Fill-7" fill="#DDDDDD"></path>
                        <path d="M10.7734,19.8998 L9.3824,18.5168 L24.4194,3.3898 L25.8094,4.7718 L10.7734,19.8998 L10.7734,19.8998 Z" id="Fill-15" fill="#DDDDDD"></path>
                        <path d="M5.5195,27.9418 C4.5555,28.9118 2.8075,28.7408 1.6175,27.5558 C0.4255,26.3728 0.2445,24.6278 1.2085,23.6568 L10.7365,14.0728 C11.7015,13.1018 13.4485,13.2738 14.6385,14.4588 C15.8305,15.6408 16.0125,17.3878 15.0465,18.3578 L5.5195,27.9418 L5.5195,27.9418 Z" id="Fill-33" fill="#F21636"></path>
                        <path d="M3.0449,25.4106 C2.6719,25.7916 2.1709,25.9086 1.9239,25.6686 C1.6779,25.4286 1.7789,24.9246 2.1519,24.5396 L10.8439,15.6116 C11.2159,15.2306 11.7179,15.1136 11.9649,15.3546 C12.2109,15.5946 12.1079,16.0976 11.7359,16.4826 L3.0449,25.4106 L3.0449,25.4106 Z" id="Fill-34" fill="#FF85A5"></path>
                    </g>
                </g>
            </g>
        </g>
    </g>
</svg>