<?xml version="1.0" encoding="utf-8"?>
<!-- Generator: Adobe Illustrator 18.0.0, SVG Export Plug-In . SVG Version: 6.00 Build 0)  -->
<!DOCTYPE svg PUBLIC "-//W3C//DTD SVG 1.1//EN" "http://www.w3.org/Graphics/SVG/1.1/DTD/svg11.dtd">
<svg version="1.1" id="Layer_1" xmlns="http://www.w3.org/2000/svg" xmlns:xlink="http://www.w3.org/1999/xlink" x="0px" y="0px"
	 width="300px" height="300px" viewBox="0 0 300 300" enable-background="new 0 0 300 300" xml:space="preserve">
<path d="M202.8,147.6l-52.8,72l-52.8-72h0.2c-6.2-9.6-9.8-21.1-9.8-33.6c0-34.6,27.8-62.4,62.4-62.4s62.4,27.8,62.4,62.4
	c0,12.5-3.6,24-9.8,33.6H202.8z M150,90c-13.2,0-24,10.8-24,24s10.8,24,24,24s24-10.8,24-24S163.2,90,150,90z M137.3,210l12.7,16.8
	l12.7-16.8h44.9l28.8,38.4H63.6L92.4,210H137.3z"/>
</svg>
