<?xml version="1.0" encoding="UTF-8" standalone="no"?>
<svg width="98px" height="81px" viewBox="0 0 98 81" version="1.1" xmlns="http://www.w3.org/2000/svg" xmlns:xlink="http://www.w3.org/1999/xlink" xmlns:sketch="http://www.bohemiancoding.com/sketch/ns">
    <!-- Generator: Sketch 3.3.3 (12072) - http://www.bohemiancoding.com/sketch -->
    <title>logo</title>
    <desc>Created with Sketch.</desc>
    <defs></defs>
    <g id="Page-1" stroke="none" stroke-width="1" fill="none" fill-rule="evenodd" sketch:type="MSPage">
        <g id="Screen_4" sketch:type="MSArtboardGroup" transform="translate(-90.000000, -10.000000)">
            <g id="header" sketch:type="MSLayerGroup">
                <g id="logo" transform="translate(90.000000, 10.000000)" sketch:type="MSShapeGroup">
                    <g id="Group">
                        <path d="M0.8,49.6 L9.4,58.2 L15.4,52.4 L13.4,50.4 L9.6,54 L3,47.4" id="Shape" fill="#000000"></path>
                        <path d="M11.8,42 L13.4,43.4 L16.4,40.4 L18.2,42.2 L15.2,45.2 L17,47.2 L20.8,43.4 L22.6,45 L16.6,51.2 L7.8,42.4 L13.8,36.4 L15.6,38.2 L11.8,42 Z" id="Shape" fill="#000000"></path>
                        <path d="M31.2,36.4 L25.2,34.8 C25.8,33.4 25.6,31.8 24.4,30.6 C23.2,29.4 21,29.4 19.4,30.8 L19.4,30.8 L15,35.2 L23.8,44 L26,41.8 L19,34.8 L20.4,33.4 C21,32.8 22,32.8 22.6,33.4 C23.2,34 23.2,35 22.6,35.6 L21.4,37 L29,39.2 L31.2,36.4 L31.2,36.4 Z" id="Shape" fill="#000000"></path>
                        <path d="M27.2,22.6 C30,19.8 33.6,20.2 36,22.6 C38.6,25.2 38.8,28.8 36,31.6 C33.2,34.4 29.6,34 27.2,31.6 C24.8,28.8 24.6,25.2 27.2,22.6 M29,24.2 C27.6,25.6 28,27.2 29.8,29 C31.4,30.6 33.2,31.2 34.6,29.8 C36,28.4 35.6,26.8 33.8,25 C32,23.4 30.4,22.8 29,24.2" id="Shape" fill="#000000"></path>
                        <path d="M38.8,18 L37.2,13 L39.8,10.4 L41.8,18.8 L45.4,22.2 L43.2,24.6 L39.8,21.2 L31.6,18.6 L34,16.2 L38.8,18 L38.8,18 Z" id="Shape" fill="#000000"></path>
                        <path d="M79,48 L87.8,39.4 L85.4,37 L76.8,45.8 L79,48 Z" id="Shape" fill="#000000"></path>
                        <path d="M45.8,14.6 L52.6,11.4 L47.6,16.4 L49.6,18.4 L58.2,9.6 L55.4,6.8 L49,10 L52.2,3.6 L49.4,0.8 L40.6,9.4 L42.6,11.4 L47.6,6.4 L44.4,13.2 L45.8,14.6 Z" id="Shape" fill="#000000"></path>
                        <path d="M60.8,15.8 L59.4,17.4 L62.8,20.6 L61,22.4 L57.6,19.2 L55.6,21 L59.8,25 L58,26.8 L51.8,20.6 L60.4,11.8 L66.6,18.2 L65,20 L60.8,15.8 Z" id="Shape" fill="#000000"></path>
                        <path d="M69.2,38.2 L75.2,44.2 L77.2,42.2 L73.4,38.4 L80.2,31.6 L78,29.4 L69.2,38.2 Z" id="Shape" fill="#000000"></path>
                        <path d="M92.8,44.2 L90,53.6 L96,47.4 L98,49.6 L89.2,58.4 L86.6,55.6 L89,46 L83,52 L81,50 L89.6,41.2 L92.8,44.2 Z" id="Shape" fill="#000000"></path>
                        <path d="M67.6,36.6 L69.2,30.6 C70.4,31.2 72.2,31 73.4,29.8 C74.6,28.6 74.6,26.2 73.2,24.8 L73.2,24.8 L68.6,20 L60,28.8 L62.2,31 L69.2,24 L70.8,25.8 C71.4,26.4 71.4,27.4 70.8,28 C70.2,28.6 69.2,28.6 68.6,28 L67,26.4 L65.2,34.2 L67.6,36.6 L67.6,36.6 Z" id="Shape" fill="#000000"></path>
                        <path d="M11,60 L87.6,60 L49.4,21.6 L11,60 Z" id="Shape" fill="#50B848"></path>
                        <path d="M58.2,78.8 C58,78.8 57.8,78.6 57.8,78.4 C57.6,78.2 57.8,77.8 58,77.6 C63.6,75 75.6,72 85.4,73.6 C85.6,73.6 85.8,74 85.8,74.2 C85.8,74.4 85.4,74.6 85.2,74.6 C75.4,73 63.8,76 58.4,78.4 C58.4,78.8 58.4,78.8 58.2,78.8" id="Shape" fill="#E4412B"></path>
                        <path d="M15.8,71.2 C14,74.2 13.2,75.6 13.2,76.2 C13.2,76.6 13.4,76.8 14.2,76.8 C16.6,76.6 20.2,74.4 20,71.6 C19.8,70.4 18.8,69.8 16,70.2 C15,70.2 14.6,70.4 13.4,70.8 C13.2,70.8 12.8,71 12.8,71.2 L12.8,71.2 C12.8,71.2 13.2,71.4 13.4,71.4 C12.6,71.8 12.2,72 11.4,72.2 L11,72.2 C10.8,72.2 10.8,72 10.8,71.8 C10.6,70.4 11,69.8 12.4,69.2 C13.6,68.6 14.8,68.2 16.2,68.2 C17.4,68 20.2,68 20.6,71.2 C21,75.4 15.8,78.2 13.2,78.4 C12.6,78.4 12.2,78.4 12,77.2 C11.8,75.8 14,72.8 15.4,70.2 L15.8,71.2 L15.8,71.2 Z" id="Shape" fill="#000000"></path>
                        <path d="M24.4,74 L24.4,74.4 C24.4,74.8 24.2,75.2 24,75.6 C24,75.6 24,75.6 24,75.8 C24,75.8 24.2,76 24.4,76 C24.8,76 24.6,75.8 25,75.8 L25.2,75.8 C25.2,76 24.6,76.6 24,76.8 L23.8,76.8 C23.2,77.6 22.6,77.8 22.2,78 C21.2,78.2 20.6,77 20.6,76.2 C20.4,75 22.2,73 23.6,72.8 C24,72.8 24.4,73 24.4,73.2 L24.4,73.6 C24.4,73.2 24.4,73.6 24.4,74 M22.8,75.8 L22.8,75 C23,74.2 23.2,74 23.2,74 L23,73.8 C22.8,73.8 22,74.4 21.8,74.8 C21.4,75.4 21,75.8 21.2,76.4 C21.2,77 21.8,77 22,77 C22.4,77 22.8,76.6 23,76.4 C22.8,76.2 22.8,76 22.8,75.8" id="Shape" fill="#000000"></path>
                        <path d="M31.8,72.2 C32,72.2 32.2,72.6 32.4,72.8 C32.4,73.2 32,73.4 31.8,73.8 C31.6,74 31.2,74.6 31.2,75 C31.2,75.4 31.6,75.4 31.6,75.4 C31.8,75.4 32.2,75.2 32.4,74.8 C32.6,74.4 32.8,74.4 32.8,74.4 C32.8,74.4 33,74.4 33,74.6 C33,74.8 32.6,75.2 32.6,75.4 C32.2,76 31.4,76.8 30.8,77 C30.2,77 30,76.8 30,76.4 C30,75.6 30.6,75 31,74 C29,75.4 28.2,77.2 27.8,77.2 C27.6,77.2 27.6,76.8 27.4,76.4 C27.4,76.2 27.6,75.8 27.8,75.2 C28.2,74.4 28.2,74 28.2,74 C28.2,73 26.4,77.2 25.2,77.2 C24.8,77.2 24.6,76.8 24.6,76.4 C24.6,75.8 25.2,74.6 25.6,74.6 L25.8,74.6 C25.8,74.8 25.6,75 25.6,75.8 C25.6,76 25.6,76.2 25.8,76.2 C26,76.2 26.6,75 27.6,74 C28,73.6 29.2,72.2 29.6,72.2 C29.8,72.2 30,72.4 30,73 C30,73.2 29.8,73.4 29.8,73.6 C29.2,74.4 29,74.8 29.2,75.2 L29.2,75.4 C31.2,72.6 31.6,72.4 31.8,72.2" id="Shape" fill="#000000"></path>
                        <path d="M38.4,77.2 C37.8,78.6 37.2,80 36.6,80.2 C36.6,80.2 36.2,80.2 36,79.2 C35.8,77.4 36.6,77.2 38,76.2 C38.2,75.6 38.6,74.8 38.8,74.2 C37.6,75.4 37,76 36.6,76 C36,76 35.2,74.8 35.2,74.4 C35,72.8 38.4,71 39.8,70.8 C40.2,70.8 40.6,71 40.6,72 L40.6,72.4 L39,76 L41.2,74.8 C41.2,74.8 41.6,74.6 41.6,74.8 C41.6,75 41.6,75 41.4,75 L38.6,76.8 L38.4,77.2 L38.4,77.2 Z M36.6,75 C37.2,75 39.8,72.6 39.8,72 C39.8,72 39.8,71.8 39.6,71.8 C39.2,71.8 38,72.4 37.4,73 C36.8,73.4 36.4,74 36.4,74.6 C36.4,75 36.4,75 36.6,75 C36.4,75 36.6,75 36.6,75 L36.6,75 Z M36.4,79 L36.4,79.2 C37,79 37,78.6 37.4,77.6 L37.6,77 C36.2,77.6 36.4,79 36.4,79 L36.4,79 Z" id="Shape" fill="#000000"></path>
                        <path d="M41.6,75.8 C41.4,75.8 41,75.4 41,75 C41,74.4 41.4,73.2 41.8,73.2 L42,73.2 C42,73.2 42,73.2 42,73.4 C41.8,73.8 42,74 42,74.4 C42,74.6 42,74.8 42.2,74.8 C42.4,74.8 43,73.6 44,72.6 C44.2,72.4 45.4,71.2 45.8,71 C46,71 46.2,71.4 46.2,71.6 C46.2,71.8 46,72 45.6,72.6 C45.4,73 45,73.4 45.2,73.8 C45.2,74 45.4,74.2 45.6,74 C46.4,74 46.2,73 46.8,73 C46.8,73 47,73 47,73.2 C47,73.4 46.4,74.2 46.2,74.4 C45.8,75 45.4,75.4 44.8,75.6 C44.4,75.6 44,75.4 44,74.6 C44,74.4 44,73.8 44.8,72.6 C42.6,73.8 44,75.4 41.6,75.8" id="Shape" fill="#000000"></path>
                        <path d="M51.4,71.4 L51.4,71.4 L51.4,71.8 C51.4,72.4 51.4,72.4 51,72.6 C50.8,72.8 50.2,73.2 50.4,73.8 C50.4,74 50.6,74 50.8,74 C51,74 51.2,73.8 51.6,73.6 C51.8,73.4 51.8,73.4 52,73.4 C52.2,73.4 52.2,73.4 52.2,73.6 C52.2,74 50.6,75.2 50.2,75.2 C49.8,75.2 49.6,75 49.6,74.8 L49.6,74.4 C49.6,74 49.8,73.4 50,73 C49.8,73.2 49.6,73.4 49.4,73.4 C48.2,75.8 47.2,76.6 46.4,76.6 C46.2,76.6 45.8,76.6 45.8,76.4 C45.8,76.2 46.4,75.2 46.4,75 C46.6,75.2 46.8,75.2 46.8,75.2 C47.4,75.2 48,74.2 48.4,73.6 C48,73.8 47.6,74 47.4,74 C47,74 46.8,74.2 46.6,72.8 C46.6,72.4 46.6,72 47.8,70.8 C48.4,70 49.4,69.4 50,69.4 C50.4,69.4 50.6,69.8 50.8,70.6 C50.8,71 50.6,71.4 50,72.2 C50.8,71.8 51.2,71.4 51.4,71.4 M49.8,71 C49.8,70.8 49.6,70.8 49.4,70.8 C48.6,70.8 47.2,72 47.2,72.4 C47.2,72.6 47.4,72.6 47.8,72.6 C48.2,72.6 48.6,72.6 49,72.4 C49.8,71.4 49.8,71.2 49.8,71" id="Shape" fill="#000000"></path>
                        <path d="M60.2,66.8 C58.4,69.8 57.6,71.2 57.6,71.8 C57.6,72.2 57.8,72.4 58.6,72.4 C61,72.2 64.6,70 64.4,67.2 C64.2,66 63.2,65.6 60.4,65.8 C59.4,65.8 59,66 57.8,66.4 C57.6,66.4 57.2,66.6 57.2,66.8 L57.2,66.8 C57.2,66.8 57.6,67 57.8,67 C57,67.4 56.6,67.6 55.8,67.8 L55.4,67.8 C55.2,67.8 55.2,67.6 55.2,67.4 C55,66 55.4,65.4 56.8,64.8 C58,64.2 59.2,63.8 60.8,63.8 C62,63.6 64.8,63.6 65.2,66.8 C65.6,71 60.4,73.8 57.8,74 C57.2,74 56.8,74 56.6,72.8 C56.4,71.4 58.6,68.4 60,65.8 L60.2,66.8 L60.2,66.8 Z" id="Shape" fill="#000000"></path>
                        <path d="M68.6,69.6 L68.6,70 C68.6,70.4 68.4,70.8 68.2,71.2 C68.2,71.2 68.2,71.2 68.2,71.4 C68.2,71.4 68.4,71.6 68.6,71.6 C69,71.6 68.8,71.4 69.2,71.4 L69.4,71.4 C69.4,71.6 68.8,72.2 68.2,72.4 L68,72.4 C67.4,73.2 67,73.4 66.4,73.6 C65.4,73.8 64.8,72.6 64.8,71.8 C64.6,70.6 66.4,68.6 67.8,68.4 C68.2,68.4 68.6,68.6 68.6,68.8 L68.6,69.2 C68.6,69 68.6,69.4 68.6,69.6 M67,71.6 L67,70.8 C67.2,70 67.4,69.8 67.4,69.8 L67.2,69.6 C67,69.6 66.2,70.2 66,70.6 C65.6,71.2 65.2,71.6 65.4,72.2 C65.4,72.8 66,72.8 66.2,72.8 C66.6,72.8 67,72.4 67.4,72.2 C67.2,72 67,71.8 67,71.6" id="Shape" fill="#000000"></path>
                        <path d="M76.2,68 C76.4,68 76.6,68.4 76.8,68.6 C76.8,69 76.4,69.2 76.2,69.6 C76,69.8 75.6,70.4 75.6,70.8 C75.6,71.2 76,71.2 76,71.2 C76.2,71.2 76.6,71 76.8,70.6 C77,70.2 77.2,70.2 77.2,70.2 C77.2,70.2 77.4,70.2 77.4,70.4 C77.4,70.6 77,71 77,71.2 C76.6,71.8 75.8,72.6 75.2,72.8 C74.6,72.8 74.4,72.6 74.4,72.2 C74.4,71.4 75,70.8 75.4,69.8 C73.4,71.2 72.6,73 72.2,73 C72,73 72,72.6 71.8,72.2 C71.8,72 72,71.6 72.2,71 C72.6,70.2 72.6,69.8 72.6,69.8 C72.6,69 70.8,73 69.6,73 C69.2,73 69,72.6 69,72.2 C69,71.6 69.6,70.4 70,70.4 L70.2,70.4 C70.2,70.6 70,70.8 70,71.6 C70,71.8 70,72 70.2,72 C70.4,72 71,70.8 72,69.8 C72.4,69.4 73.6,68 74,68 C74.2,68 74.4,68.2 74.4,68.8 C74.4,69 74.2,69.2 74.2,69.4 C73.6,70.2 73.4,70.6 73.6,71 L73.6,71.2 C75.4,68.4 76,68 76.2,68" id="Shape" fill="#000000"></path>
                        <path d="M81.8,68.2 C81.8,68.4 81.6,68.6 81.4,69.2 C81.2,69.6 81,70 81,70.4 C81,70.8 81.4,70.8 81.6,70.8 C81.8,70.8 82,70.6 82.6,70.2 L83,69.8 L83,69.8 C83,70 82.8,70.2 82.2,70.8 C81.6,71.4 81.2,72 80.6,72 C80.2,72 79.8,71.8 79.8,71.4 C79.8,70.8 80,70.4 80.2,69.6 C78.4,71.8 78,72 77.8,72 C77.4,72 77,71 76.8,70.4 C76.8,69.4 77.6,68.4 78.4,67.8 C79.2,67.2 80.4,66.4 81,66.4 C81.4,66.4 81.6,66.6 81.6,66.8 C81.6,67 81.4,67.2 81.2,67.2 C81.6,67.8 81.8,68 81.8,68.2 M77.8,71.2 L77.8,71.2 C78.8,71 80.6,69 80.6,68.4 C80.6,68.2 80.4,68.2 80.4,68.2 C79.2,68.4 77.6,69.6 77.8,70.8 C77.6,71 77.8,71 77.8,71.2" id="Shape" fill="#000000"></path>
                        <path d="M83.4,71.4 C83.4,71.2 83.6,70.2 84,70.2 C84.2,70.2 84.8,70.4 84.8,70.8 C84.8,71 84.6,72 84.4,72 C84,72 83.6,71.8 83.4,71.4 M87,63.6 C87.2,63.6 87.8,63.8 87.8,64 C87.8,64.2 87.6,64 86,66.8 C85.2,68.4 85.2,69.4 84.8,69.6 C84.6,69.6 84.2,69.4 84,68.8 C84,67.8 85.4,65.2 86.4,64 C86.4,63.8 86.6,63.6 87,63.6" id="Shape" fill="#000000"></path>
                    </g>
                </g>
            </g>
        </g>
    </g>
</svg>