<?xml version="1.0" encoding="UTF-8" standalone="no"?>
<svg width="168px" height="275px" viewBox="0 0 168 275" version="1.1" xmlns="http://www.w3.org/2000/svg" xmlns:xlink="http://www.w3.org/1999/xlink" xmlns:sketch="http://www.bohemiancoding.com/sketch/ns">
    <!-- Generator: Sketch 3.3.3 (12072) - http://www.bohemiancoding.com/sketch -->
    <title>vitrina</title>
    <desc>Created with Sketch.</desc>
    <defs></defs>
    <g id="Page-1" stroke="none" stroke-width="1" fill="none" fill-rule="evenodd" sketch:type="MSPage">
        <g id="Screen_4" sketch:type="MSArtboardGroup" transform="translate(-453.000000, -249.000000)">
            <g id="illustration" sketch:type="MSLayerGroup" transform="translate(0.000000, 100.000000)">
                <g id="vitrina" transform="translate(537.000000, 286.500000) scale(-1, 1) translate(-537.000000, -286.500000) translate(453.000000, 149.000000)" sketch:type="MSShapeGroup">
                    <path d="M167.8438,260.5219 C167.8438,268.0349 160.6388,274.1259 151.7528,274.1259 L16.5938,274.1259 C7.7068,274.1259 0.5028,268.0349 0.5028,260.5219 C0.5028,253.0079 7.7068,246.9159 16.5938,246.9159 L151.7528,246.9159 C160.6388,246.9159 167.8438,253.0079 167.8438,260.5219" id="Fill-1" fill="#D1D1D1"></path>
                    <path d="M150.3271,243.3373 C150.3271,249.0313 145.7111,253.6493 140.0151,253.6493 L23.7261,253.6493 C18.0311,253.6493 13.4141,249.0313 13.4141,243.3373 L13.4141,17.06 C13.4141,11.365 18.0311,6.748 23.7261,6.748 L140.0151,6.748 C145.7111,6.748 150.3271,11.365 150.3271,17.06 L150.3271,243.3373 L150.3271,243.3373 Z" id="Fill-2" fill="#603B31"></path>
                    <path d="M152.266,207.5551 L15.078,207.5551 L15.078,195.1761 L152.266,195.1761 L152.266,207.5551 L152.266,207.5551 Z" id="Fill-3" fill="#C4692C"></path>
                    <path d="M153.77,133.1171 L15.079,133.1171 L15.079,120.7381 L153.77,120.7381 L153.77,133.1171 L153.77,133.1171 Z" id="Fill-4" fill="#C4692C"></path>
                    <path d="M147.109,60.2421 L15.078,60.2421 L15.078,47.8631 L147.109,47.8631 L147.109,60.2421 L147.109,60.2421 Z" id="Fill-5" fill="#C4692C"></path>
                    <path d="M136.6367,200.3686 L121.0327,200.3686 L117.3887,178.0456 C122.0667,177.7996 137.0487,178.0506 140.5227,178.0456 L136.6367,200.3686 L136.6367,200.3686 Z" id="Fill-6" fill="#004472"></path>
                    <path d="M154.7539,259.184 C154.7539,261.189 152.9869,262.813 150.8059,262.813 C148.6229,262.813 146.8569,261.189 146.8569,259.184 L146.8569,5.146 C146.8569,3.141 148.6229,1.516 150.8059,1.516 C152.9869,1.516 154.7539,3.141 154.7539,5.146 L154.7539,259.184 L154.7539,259.184 Z" id="Fill-8" fill="#F2A86B"></path>
                    <path d="M18.1406,258.6166 C18.1406,260.6186 16.3726,262.2406 14.1916,262.2406 C12.0096,262.2406 10.2426,260.6186 10.2426,258.6166 L10.2426,4.931 C10.2426,2.93 12.0096,1.307 14.1916,1.307 C16.3726,1.307 18.1406,2.93 18.1406,4.931 L18.1406,258.6166 L18.1406,258.6166 Z" id="Fill-9" fill="#F2A86B"></path>
                    <path d="M18.4443,214.3891 C17.3983,214.3891 16.5503,212.8691 16.5503,210.9941 C16.5503,209.1191 17.3983,207.6001 18.4443,207.6001 L151.0113,207.6001 C152.0573,207.6001 152.9043,209.1191 152.9043,210.9941 C152.9043,212.8691 152.0573,214.3891 151.0113,214.3891 L18.4443,214.3891 L18.4443,214.3891 Z" id="Fill-10" fill="#F2A86B"></path>
                    <path d="M18.4521,139.3344 C17.4011,139.3344 16.5511,137.8144 16.5511,135.9394 C16.5511,134.0644 17.4011,132.5454 18.4521,132.5454 L151.5761,132.5454 C152.6271,132.5454 153.4781,134.0644 153.4781,135.9394 C153.4781,137.8144 152.6271,139.3344 151.5761,139.3344 L18.4521,139.3344 L18.4521,139.3344 Z" id="Fill-11" fill="#F2A86B"></path>
                    <path d="M18.4609,65.8383 C17.4059,65.8383 16.5509,64.3183 16.5509,62.4433 C16.5509,60.5683 17.4059,59.0493 18.4609,59.0493 L152.1419,59.0493 C153.1959,59.0493 154.0509,60.5683 154.0509,62.4433 C154.0509,64.3183 153.1959,65.8383 152.1419,65.8383 L18.4609,65.8383 L18.4609,65.8383 Z" id="Fill-12" fill="#F2A86B"></path>
                    <path d="M28.3096,11.618 C28.3096,16.681 24.2056,20.7836 19.1446,20.7836 C14.0816,20.7836 9.9786,16.681 9.9786,11.618 L9.9786,0.162 L28.3096,0.162 L28.3096,11.618 L28.3096,11.618 Z" id="Fill-21" fill="#FFF255"></path>
                    <path d="M46.3545,11.618 C46.3545,16.681 42.2505,20.7836 37.1895,20.7836 C32.1265,20.7836 28.0235,16.681 28.0235,11.618 L28.0235,0.162 L46.3545,0.162 L46.3545,11.618 L46.3545,11.618 Z" id="Fill-22" fill="#FFF255"></path>
                    <path d="M64.3994,11.618 C64.3994,16.681 60.2954,20.7836 55.2344,20.7836 C50.1714,20.7836 46.0684,16.681 46.0684,11.618 L46.0684,0.162 L64.3994,0.162 L64.3994,11.618 L64.3994,11.618 Z" id="Fill-23" fill="#FFF255"></path>
                    <path d="M82.4434,11.618 C82.4434,16.681 78.3404,20.7836 73.2794,20.7836 C68.2164,20.7836 64.1134,16.681 64.1134,11.618 L64.1134,0.162 L82.4434,0.162 L82.4434,11.618 L82.4434,11.618 Z" id="Fill-24" fill="#FFF255"></path>
                    <path d="M100.7754,11.618 C100.7754,16.681 96.6714,20.7836 91.6094,20.7836 C86.5484,20.7836 82.4454,16.681 82.4454,11.618 L82.4454,0.162 L100.7754,0.162 L100.7754,11.618 L100.7754,11.618 Z" id="Fill-25" fill="#FFF255"></path>
                    <path d="M118.8203,11.618 C118.8203,16.681 114.7163,20.7836 109.6543,20.7836 C104.5933,20.7836 100.4903,16.681 100.4903,11.618 L100.4903,0.162 L118.8203,0.162 L118.8203,11.618 L118.8203,11.618 Z" id="Fill-26" fill="#FFF255"></path>
                    <path d="M136.8652,11.618 C136.8652,16.681 132.7612,20.7836 127.6992,20.7836 C122.6382,20.7836 118.5352,16.681 118.5352,11.618 L118.5352,0.162 L136.8652,0.162 L136.8652,11.618 L136.8652,11.618 Z" id="Fill-27" fill="#FFF255"></path>
                    <path d="M154.9102,11.618 C154.9102,16.681 150.8062,20.7836 145.7442,20.7836 C140.6832,20.7836 136.5802,16.681 136.5802,11.618 L136.5802,0.162 L154.9102,0.162 L154.9102,11.618 L154.9102,11.618 Z" id="Fill-28" fill="#FFF255"></path>
                    <path d="M122.8955,180.6215 C122.8955,181.3775 122.2835,181.9895 121.5275,181.9895 C120.7715,181.9895 120.1595,181.3775 120.1595,180.6215 C120.1595,179.8655 120.7715,179.2535 121.5275,179.2535 C122.2835,179.2535 122.8955,179.8655 122.8955,180.6215" id="Fill-29" fill="#FFFFFF"></path>
                    <path d="M135.8281,190.9125 C128.9861,190.9125 121.3211,181.5645 120.9411,181.0965 C120.6801,180.7725 120.7301,180.2985 121.0531,180.0355 C121.3771,179.7715 121.8511,179.8225 122.1131,180.1465 C122.2151,180.2715 132.3481,192.6335 138.6311,188.5975 C139.1681,188.2525 139.4411,187.8595 139.5351,187.4065 C139.6561,186.8265 139.3461,186.2485 139.1391,185.8845 C139.2791,185.1845 139.3571,184.7845 139.4681,184.2975 C139.6871,184.2975 140.1471,184.6975 140.3081,184.8935 C140.3551,184.9515 141.2731,186.0905 141.0241,187.6445 C140.8831,188.5375 140.3511,189.2845 139.4451,189.8645 C138.3011,190.6005 137.0781,190.9125 135.8281,190.9125" id="Fill-30" fill="#CCCCCC"></path>
                    <path d="M154.3379,253.5043 C154.3379,258.0133 155.1399,262.8133 150.6139,262.8133 L14.1309,262.2403 C9.6059,262.2403 10.2649,258.0133 10.2649,253.5043 C10.2649,248.9953 13.9339,245.3413 18.4609,245.3413 L146.1419,245.3413 C150.6679,245.3413 154.3379,248.9953 154.3379,253.5043" id="Fill-31" fill="#F2A86B"></path>
                    <g id="Group" transform="translate(32.000000, 26.000000)">
                        <path d="M25.6172,1.103 C26.3582,0.538 26.8772,0.378 27.2352,0.734 L28.4122,1.904 C28.7542,2.245 28.4512,2.944 28.0102,3.532 C27.6542,4.006 26.2672,5.753 26.2672,5.753 C25.7692,6.254 25.2262,6.22 24.8692,5.864 L23.2792,4.283 C22.9212,3.927 22.9022,3.402 23.4002,2.902 C23.4002,2.902 24.8772,1.667 25.6172,1.103" id="Fill-7" fill="#DDDDDD"></path>
                        <path d="M10.7734,19.8998 L9.3824,18.5168 L24.4194,3.3898 L25.8094,4.7718 L10.7734,19.8998 L10.7734,19.8998 Z" id="Fill-15" fill="#DDDDDD"></path>
                        <path d="M5.5195,27.9418 C4.5555,28.9118 2.8075,28.7408 1.6175,27.5558 C0.4255,26.3728 0.2445,24.6278 1.2085,23.6568 L10.7365,14.0728 C11.7015,13.1018 13.4485,13.2738 14.6385,14.4588 C15.8305,15.6408 16.0125,17.3878 15.0465,18.3578 L5.5195,27.9418 L5.5195,27.9418 Z" id="Fill-33" fill="#F21636"></path>
                        <path d="M3.0449,25.4106 C2.6719,25.7916 2.1709,25.9086 1.9239,25.6686 C1.6779,25.4286 1.7789,24.9246 2.1519,24.5396 L10.8439,15.6116 C11.2159,15.2306 11.7179,15.1136 11.9649,15.3546 C12.2109,15.5946 12.1079,16.0976 11.7359,16.4826 L3.0449,25.4106 L3.0449,25.4106 Z" id="Fill-34" fill="#FF85A5"></path>
                    </g>
                    <g id="Group" transform="translate(74.000000, 74.000000)">
                        <path d="M6.23622753,35.1896631 L4.95122753,34.1326631 L16.4302275,20.1476631 L17.7162275,21.2036631 L6.23622753,35.1896631 L6.23622753,35.1896631 Z" id="Fill-16" fill="#DDDDDD"></path>
                        <path d="M35.4178275,27.6886631 L34.1328275,26.6346631 L37.3748275,22.6836631 L38.6598275,23.7396631 L35.4178275,27.6886631 L35.4178275,27.6886631 Z" id="Fill-17" fill="#DDDDDD"></path>
                        <path d="M16.0252275,21.4259631 L16.4392275,20.1439631 L35.8162275,26.3929631 L35.4022275,27.6759631 L16.0252275,21.4259631 L16.0252275,21.4259631 Z" id="Fill-18" fill="#DDDDDD"></path>
                        <path d="M33.9949275,20.0939631 L34.8489275,19.0519631 L39.4209275,22.8029631 L38.5659275,23.8459631 L33.9949275,20.0939631 L33.9949275,20.0939631 Z" id="Fill-19" fill="#DDDDDD"></path>
                        <path d="M35.9744275,20.2648631 C34.4644275,22.1058631 31.9624275,22.5458631 30.3844275,21.2498631 L13.9144275,7.73286308 C12.3364275,6.43786308 12.2814275,3.89686308 13.7904275,2.05686308 C15.2994275,0.219863078 17.8024275,-0.220136922 19.3804275,1.07386308 L35.8494275,14.5898631 C37.4274275,15.8868631 37.4844275,18.4268631 35.9744275,20.2648631" id="Fill-20" fill="#FFFFFF"></path>
                        <path d="M6.63072753,39.0079631 C5.67972753,40.1679631 3.67572753,40.0979631 2.15572753,38.8499631 C0.636727533,37.6029631 0.176727533,35.6519631 1.12872753,34.4909631 L10.5287275,23.0389631 C11.4807275,21.8789631 13.4847275,21.9509631 15.0037275,23.1969631 C16.5237275,24.4449631 16.9827275,26.3959631 16.0307275,27.5569631 L6.63072753,39.0079631 L6.63072753,39.0079631 Z" id="Fill-32" fill="#377725"></path>
                        <path d="M4.22252753,34.7238631 C3.87852753,35.1298631 3.38552753,35.2828631 3.12152753,35.0598631 C2.85952753,34.8368631 2.92752753,34.3278631 3.27252753,33.9178631 L11.3185275,24.4058631 C11.6615275,23.9978631 12.1555275,23.8468631 12.4175275,24.0698631 C12.6795275,24.2908631 12.6135275,24.8008631 12.2695275,25.2098631 L4.22252753,34.7238631 L4.22252753,34.7238631 Z" id="Fill-35" fill="#63A34B"></path>
                    </g>
                    <path d="M15.3496,14.351 C15.3496,15.53 14.6756,16.486 13.8456,16.486 C13.0146,16.486 12.3416,15.53 12.3416,14.351 L12.3416,3.441 C12.3416,2.262 13.0146,1.306 13.8456,1.306 C14.6756,1.306 15.3496,2.262 15.3496,3.441 L15.3496,14.351 L15.3496,14.351 Z" id="Fill-37" fill="#FFF8AE"></path>
                    <path d="M34.0381,14.351 C34.0381,15.53 33.3651,16.486 32.5351,16.486 C31.7031,16.486 31.0311,15.53 31.0311,14.351 L31.0311,3.441 C31.0311,2.262 31.7031,1.306 32.5351,1.306 C33.3651,1.306 34.0381,2.262 34.0381,3.441 L34.0381,14.351 L34.0381,14.351 Z" id="Fill-38" fill="#FFF8AE"></path>
                    <path d="M51.2236,14.351 C51.2236,15.53 50.5506,16.486 49.7206,16.486 C48.8886,16.486 48.2166,15.53 48.2166,14.351 L48.2166,3.441 C48.2166,2.262 48.8886,1.306 49.7206,1.306 C50.5506,1.306 51.2236,2.262 51.2236,3.441 L51.2236,14.351 L51.2236,14.351 Z" id="Fill-39" fill="#FFF8AE"></path>
                    <path d="M69.9131,14.351 C69.9131,15.53 69.2401,16.486 68.4101,16.486 C67.5781,16.486 66.9061,15.53 66.9061,14.351 L66.9061,3.441 C66.9061,2.262 67.5781,1.306 68.4101,1.306 C69.2401,1.306 69.9131,2.262 69.9131,3.441 L69.9131,14.351 L69.9131,14.351 Z" id="Fill-40" fill="#FFF8AE"></path>
                    <path d="M87.5283,14.351 C87.5283,15.53 86.8553,16.486 86.0253,16.486 C85.1933,16.486 84.5213,15.53 84.5213,14.351 L84.5213,3.441 C84.5213,2.262 85.1933,1.306 86.0253,1.306 C86.8553,1.306 87.5283,2.262 87.5283,3.441 L87.5283,14.351 L87.5283,14.351 Z" id="Fill-41" fill="#FFF8AE"></path>
                    <path d="M106.2178,14.351 C106.2178,15.53 105.5448,16.486 104.7138,16.486 C103.8828,16.486 103.2108,15.53 103.2108,14.351 L103.2108,3.441 C103.2108,2.262 103.8828,1.306 104.7138,1.306 C105.5448,1.306 106.2178,2.262 106.2178,3.441 L106.2178,14.351 L106.2178,14.351 Z" id="Fill-42" fill="#FFF8AE"></path>
                    <path d="M123.1885,14.351 C123.1885,15.53 122.5155,16.486 121.6845,16.486 C120.8535,16.486 120.1815,15.53 120.1815,14.351 L120.1815,3.441 C120.1815,2.262 120.8535,1.306 121.6845,1.306 C122.5155,1.306 123.1885,2.262 123.1885,3.441 L123.1885,14.351 L123.1885,14.351 Z" id="Fill-43" fill="#FFF8AE"></path>
                    <path d="M141.8779,14.351 C141.8779,15.53 141.2049,16.486 140.3739,16.486 C139.5429,16.486 138.8709,15.53 138.8709,14.351 L138.8709,3.441 C138.8709,2.262 139.5429,1.306 140.3739,1.306 C141.2049,1.306 141.8779,2.262 141.8779,3.441 L141.8779,14.351 L141.8779,14.351 Z" id="Fill-44" fill="#FFF8AE"></path>
                    <path d="M70.5117,199.5209 C69.0507,200.9679 66.9437,201.2099 65.8047,200.0609 C64.6657,198.9119 64.9277,196.8059 66.3887,195.3589 L88.6117,173.3439 C90.0727,171.8959 92.1787,171.6539 93.3187,172.8039 C94.4567,173.9539 94.1957,176.0589 92.7337,177.5069 L70.5117,199.5209 L70.5117,199.5209 Z" id="Fill-45" fill="#377725"></path>
                    <path d="M84.8535,169.6567 L89.6675,164.8857 L98.8935,174.1987 C98.8935,174.1987 100.9165,180.8967 99.3305,182.2597 C98.4475,183.0167 96.3825,181.2307 93.8165,178.7047 C89.8145,174.7607 84.8535,169.6567 84.8535,169.6567" id="Fill-46" fill="#B5B5B5"></path>
                    <path d="M72.0938,192.6381 C71.4728,193.2621 70.8328,193.6291 70.6638,193.4611 C70.4938,193.2911 70.8628,192.6521 71.4808,192.0291 L85.9548,177.5171 C86.5738,176.8941 87.2148,176.5251 87.3848,176.6961 C87.5528,176.8631 87.1878,177.5021 86.5668,178.1251 L72.0938,192.6381 L72.0938,192.6381 Z" id="Fill-47" fill="#63A34B"></path>
                    <path d="M123.3848,197.641 C123.4648,198.153 123.2268,198.614 122.8538,198.671 C122.4808,198.731 122.1138,198.363 122.0328,197.853 L120.1528,185.834 C120.0718,185.324 120.3108,184.862 120.6838,184.804 C121.0568,184.745 121.4238,185.113 121.5038,185.623 L123.3848,197.641 L123.3848,197.641 Z" id="Fill-48" fill="#4FB4E0"></path>
                    <path d="M89.5,167.5092 C89.212,167.2172 89.141,166.8202 89.344,166.6192 C89.546,166.4222 89.941,166.4972 90.231,166.7892 L96.949,173.6082 C97.236,173.8992 97.307,174.2972 97.104,174.4962 C96.903,174.6962 96.506,174.6192 96.218,174.3262 L89.5,167.5092 L89.5,167.5092 Z" id="Fill-49" fill="#D3D3D3"></path>
                    <path d="M32.2734,123.0453 C30.8124,124.4923 28.7054,124.7333 27.5664,123.5843 C26.4274,122.4363 26.6894,120.3303 28.1504,118.8833 L50.3734,96.8673 C51.8344,95.4193 53.9414,95.1783 55.0804,96.3283 C56.2184,97.4773 55.9574,99.5823 54.4964,101.0303 L32.2734,123.0453 L32.2734,123.0453 Z" id="Fill-50" fill="#004472"></path>
                    <path d="M46.6152,93.1811 L51.4292,88.4101 L60.6562,97.7231 C60.6562,97.7231 62.6782,104.4211 61.0922,105.7831 C60.2092,106.5401 58.1442,104.7551 55.5792,102.2291 C51.5762,98.2851 46.6152,93.1811 46.6152,93.1811" id="Fill-51" fill="#B5B5B5"></path>
                    <path d="M33.8555,116.1625 C33.2345,116.7855 32.5945,117.1535 32.4255,116.9855 C32.2555,116.8155 32.6255,116.1765 33.2425,115.5535 L47.7165,101.0415 C48.3355,100.4185 48.9765,100.0495 49.1465,100.2195 C49.3145,100.3865 48.9495,101.0265 48.3285,101.6495 L33.8555,116.1625 L33.8555,116.1625 Z" id="Fill-52" fill="#12A9D8"></path>
                    <path d="M51.2617,91.0336 C50.9737,90.7416 50.9037,90.3446 51.1057,90.1436 C51.3077,89.9456 51.7027,90.0216 51.9927,90.3136 L58.7107,97.1326 C58.9977,97.4226 59.0687,97.8206 58.8657,98.0206 C58.6657,98.2206 58.2687,98.1426 57.9807,97.8506 L51.2617,91.0336 L51.2617,91.0336 Z" id="Fill-53" fill="#D3D3D3"></path>
                    <g id="Group" transform="translate(25.000000, 152.000000)">
                        <path d="M48.1855,6.4106 L46.7795,7.0926 L46.4045,8.7596 L44.3825,9.8786 L44.0155,11.9076 L42.1795,12.7266 L41.8455,14.7706 L39.9995,15.6576 L39.6945,17.6076 L37.7655,18.6016 L37.3985,20.6366 L35.3665,21.4776 L35.0635,23.7146 L33.0975,24.6086 L32.8105,26.6866 L31.0385,27.4466 L30.8615,29.2566 L29.0635,30.1726 L28.7635,32.0246 L26.9175,33.1216 L26.6195,34.8516 L24.9825,35.5726 L24.7935,37.2596 L22.5805,38.5376 L22.2705,40.6426 L20.7265,42.6246 L10.9715,27.8206 L42.5215,0.5536 L48.1855,6.4106 L48.1855,6.4106 Z" id="Fill-13" fill="#CCCCCC"></path>
                        <path d="M17.2578,43.5639 C16.2608,44.2429 14.9058,43.9859 14.2288,42.9919 L8.1108,33.9929 C7.4338,32.9979 7.6948,31.6429 8.6918,30.9639 C9.6878,30.2849 11.0448,30.5429 11.7208,31.5369 L17.8398,40.5359 C18.5158,41.5309 18.2558,42.8849 17.2578,43.5639 M19.4668,37.7989 L12.9938,28.1779 C11.2208,26.3129 8.5198,25.8789 6.2198,29.2759 C6.2198,29.2759 2.3198,34.7329 1.3438,36.2399 C0.1328,38.1049 -0.4132,40.5919 1.2818,42.3739 L7.1288,48.5189 C8.9038,50.3829 10.8388,50.3509 13.2718,48.9299 C15.7048,47.5069 20.4548,44.2389 20.4548,44.2389 C21.9748,42.7929 21.1988,40.1329 19.4668,37.7989" id="Fill-14" fill="#F91042"></path>
                        <path d="M20.5957,23.6889 C19.7887,24.4259 18.9457,24.8189 18.7117,24.5649 C18.4827,24.3089 18.9497,23.5069 19.7567,22.7679 L38.5997,5.5719 C39.4057,4.8349 40.2487,4.4429 40.4817,4.6979 C40.7127,4.9509 40.2457,5.7539 39.4387,6.4919 L20.5957,23.6889 L20.5957,23.6889 Z" id="Fill-36" fill="#EFEFEF"></path>
                        <path d="M2.248,40.7856 C1.975,40.4806 1.924,40.0806 2.135,39.8906 C2.348,39.7026 2.74,39.7976 3.014,40.1036 L9.39,47.2436 C9.662,47.5476 9.714,47.9476 9.502,48.1376 C9.291,48.3276 8.898,48.2316 8.625,47.9246 L2.248,40.7856 L2.248,40.7856 Z" id="Fill-54" fill="#FF769A"></path>
                    </g>
                </g>
            </g>
        </g>
    </g>
</svg>