<?xml version="1.0" encoding="utf-8"?>
<!-- Generator: Adobe Illustrator 18.0.0, SVG Export Plug-In . SVG Version: 6.00 Build 0)  -->
<!DOCTYPE svg PUBLIC "-//W3C//DTD SVG 1.0//EN" "http://www.w3.org/TR/2001/REC-SVG-20010904/DTD/svg10.dtd">
<svg version="1.0" id="Layer_1" xmlns="http://www.w3.org/2000/svg" xmlns:xlink="http://www.w3.org/1999/xlink" x="0px" y="0px"
	 width="300px" height="300px" viewBox="0 0 300 300" enable-background="new 0 0 300 300" xml:space="preserve">
<g>
	<path fill="#FFFFFF" d="M95.6,203.5H48.2c-0.5,0-0.9-0.4-0.9-0.9V89.8c0-0.5,0.4-0.9,0.9-0.9h63.7c0.5,0,0.9,0.4,0.9,0.9v64.7h4.5
		V76.8c0-5.2-4.3-9.5-9.5-9.5h-2.2c-0.1-0.3-0.4-0.5-0.8-0.5h-8.3c-0.3,0-0.6,0.2-0.8,0.5H52.1c-5.2,0-9.5,4.3-9.5,9.5v12.3
		c-0.3,0.1-0.5,0.4-0.5,0.8V93c0,0.3,0.2,0.6,0.5,0.8v3.7c-0.3,0.1-0.5,0.4-0.5,0.8v3.1c0,0.3,0.2,0.6,0.5,0.8v113.2
		c0,5.2,4.3,9.5,9.5,9.5h43.6V203.5z M79.6,73.4c0.8,0,1.4,0.6,1.4,1.4c0,0.8-0.6,1.4-1.4,1.4c-0.8,0-1.4-0.6-1.4-1.4
		S78.8,73.4,79.6,73.4z M74.6,80.2h10.8c0.5,0,0.9,0.4,0.9,0.9s-0.4,0.9-0.9,0.9H74.6c-0.5,0-0.9-0.4-0.9-0.9
		C73.7,80.6,74.1,80.2,74.6,80.2z M80.5,221.2c-4.1,0-7.5-3.4-7.5-7.5c0-4.1,3.4-7.5,7.5-7.5c4.1,0,7.5,3.4,7.5,7.5
		C88,217.9,84.6,221.2,80.5,221.2z"/>
	<path fill="#FFFFFF" d="M80.5,207.9c-3.2,0-5.8,2.6-5.8,5.8c0,3.2,2.6,5.8,5.8,5.8c3.2,0,5.8-2.6,5.8-5.8
		C86.3,210.5,83.7,207.9,80.5,207.9z"/>
	<path fill="#FFFFFF" d="M111,190.6c-3.2,0-5.8,2.6-5.8,5.8c0,3.2,2.6,5.8,5.8,5.8s5.8-2.6,5.8-5.8
		C116.8,193.2,114.2,190.6,111,190.6z"/>
	<path fill="#FFFFFF" d="M257.4,211.7V168c0-5.2-4.2-9.5-9.5-9.5h-12.3c-0.1-0.3-0.4-0.5-0.8-0.5h-3.1c-0.3,0-0.6,0.2-0.8,0.5h-3.7
		c-0.1-0.3-0.4-0.5-0.8-0.5h-3.1c-0.4,0-0.6,0.2-0.8,0.5H109.4c-5.2,0-9.5,4.3-9.5,9.5v55.7c0,5.2,4.3,9.5,9.5,9.5h138.5
		c5.3,0,9.5-4.3,9.5-9.5v-2.2c0.3-0.1,0.5-0.4,0.5-0.8v-8.3C257.9,212.1,257.7,211.8,257.4,211.7z M111,203.9
		c-4.1,0-7.5-3.4-7.5-7.5c0-4.1,3.4-7.5,7.5-7.5s7.5,3.4,7.5,7.5C118.5,200.5,115.1,203.9,111,203.9z M235.9,227.8
		c0,0.5-0.4,0.9-0.9,0.9H122.1c-0.5,0-0.9-0.4-0.9-0.9v-63.7c0-0.5,0.4-0.9,0.9-0.9H235c0.5,0,0.9,0.4,0.9,0.9L235.9,227.8
		L235.9,227.8z M244.6,201.3c0,0.5-0.4,0.9-0.9,0.9c-0.5,0-0.9-0.4-0.9-0.9v-10.8c0-0.5,0.4-0.9,0.9-0.9c0.5,0,0.9,0.4,0.9,0.9
		V201.3z M249.9,197c-0.8,0-1.4-0.6-1.4-1.4s0.6-1.4,1.4-1.4c0.8,0,1.4,0.6,1.4,1.4S250.7,197,249.9,197z"/>
	<path fill="#FFFFFF" d="M136.7,95.8l-4.4,4.1c23,2.3,33.9,15.7,39.1,26.8c5.7,12.3,5.6,24.1,5.6,24.6l0,1.3h-3.5l0-1.3
		c0-0.1,0.1-11.6-5.4-23.2c-6.8-14.6-18.9-22.8-35.8-24.6l3.8,4.2l-5-0.2l-5.6-6.1l6.1-5.6L136.7,95.8z"/>
</g>
</svg>
