<?xml version="1.0" encoding="UTF-8" standalone="no"?>
<svg width="164px" height="252px" viewBox="0 0 164 252" version="1.1" xmlns="http://www.w3.org/2000/svg" xmlns:xlink="http://www.w3.org/1999/xlink" xmlns:sketch="http://www.bohemiancoding.com/sketch/ns">
    <!-- Generator: Sketch 3.3.3 (12072) - http://www.bohemiancoding.com/sketch -->
    <title>illustration</title>
    <desc>Created with Sketch.</desc>
    <defs></defs>
    <g id="Page-1" stroke="none" stroke-width="1" fill="none" fill-rule="evenodd" sketch:type="MSPage">
        <g id="Screen_3" sketch:type="MSArtboardGroup" transform="translate(-229.000000, -422.000000)">
            <g id="illustration" sketch:type="MSLayerGroup" transform="translate(229.000000, 422.000000)">
                <g id="character_1" transform="translate(82.000000, 126.000000) scale(-1, 1) translate(-82.000000, -126.000000) " sketch:type="MSShapeGroup">
                    <path d="M163.5,241.373995 C163.5,246.703995 158.333832,251.033995 151.962066,251.033995 L55.0391272,251.033995 C48.6661676,251.033995 43.5,246.703995 43.5,241.373995 C43.5,236.033995 48.6661676,231.703995 55.0391272,231.703995 L151.962066,231.703995 C158.333832,231.703995 163.5,236.033995 163.5,241.373995" id="Fill-1793" fill="#CDCCC7"></path>
                    <path d="M91.1875,7.6769 C90.7535,9.0339 90.4455,10.4109 89.8225,13.0789 C89.8225,13.0789 95.3085,12.0759 96.2655,11.9019 L117.4745,8.0479 C119.3615,7.7049 120.5935,5.7879 120.2285,3.7659 C119.8595,1.7419 118.0315,0.3829 116.1445,0.7239 L94.9335,4.5769 C93.0465,4.9219 91.8105,5.7359 91.1875,7.6769" id="Fill-1" fill="#A4D7A4"></path>
                    <path d="M23.5918,71.2326 C25.6778,74.5456 29.9588,75.6036 33.1548,73.5936 L51.5978,61.9916 C54.7928,59.9806 55.6958,55.6646 53.6098,52.3496 L31.3538,16.9656 C29.2678,13.6526 24.9868,12.5946 21.7908,14.6046 L3.3458,26.2076 C0.1528,28.2166 -0.7502,32.5326 1.3358,35.8476 L23.5918,71.2326 L23.5918,71.2326 Z" id="Fill-3" fill="#A4D7A4"></path>
                    <path d="M28.7148,69.5119 L51.4608,54.9569 L27.8218,18.0139 L5.0758,32.5709 L28.7148,69.5119 L28.7148,69.5119 Z" id="Fill-4" fill="#FFFFFF"></path>
                    <path d="M4.207,31.7609 C5.086,33.1249 6.887,33.5279 8.23,32.6609 L26.477,20.9019 C27.822,20.0349 28.199,18.2279 27.32,16.8649 C26.441,15.5019 24.639,15.0989 23.295,15.9649 L5.051,27.7249 C3.707,28.5919 3.328,30.3989 4.207,31.7609" id="Fill-5" fill="#50B848"></path>
                    <path d="M10.5605,21.0636 C9.7985,19.8826 10.1405,18.3116 11.3205,17.5496 C12.4995,16.7896 14.0745,17.1276 14.8335,18.3086 C15.5955,19.4886 15.2535,21.0636 14.0765,21.8246 C12.8945,22.5846 11.3205,22.2436 10.5605,21.0636 M8.4785,22.7906 C10.0425,25.2156 13.2775,25.9156 15.7055,24.3516 C18.1305,22.7886 18.8305,19.5526 17.2655,17.1256 C15.7035,14.6996 12.4665,14.0006 10.0405,15.5636 C7.6135,17.1276 6.9155,20.3636 8.4785,22.7906" id="Fill-6" fill="#50B848"></path>
                    <path d="M15.584,38.6925 C15.509,38.6925 15.435,38.6845 15.36,38.6675 L12.042,37.9045 C11.503,37.7805 11.167,37.2445 11.291,36.7055 C11.415,36.1675 11.954,35.8355 12.489,35.9555 L14.759,36.4765 L15.492,31.6965 C15.576,31.1515 16.086,30.7765 16.632,30.8605 C17.178,30.9435 17.553,31.4545 17.469,32.0005 L16.572,37.8445 C16.53,38.1185 16.376,38.3635 16.146,38.5205 C15.979,38.6335 15.782,38.6925 15.584,38.6925" id="Fill-7" fill="#50B848"></path>
                    <path d="M23.0947,38.091 C22.7687,38.091 22.4487,37.932 22.2577,37.639 C21.9547,37.178 22.0827,36.558 22.5447,36.255 L31.7367,30.225 C32.1987,29.922 32.8207,30.05 33.1207,30.512 C33.4237,30.974 33.2957,31.594 32.8337,31.897 L23.6427,37.927 C23.4737,38.038 23.2827,38.091 23.0947,38.091" id="Fill-8" fill="#C9C9C9"></path>
                    <path d="M15.3779,43.1174 C15.0419,43.1174 14.7139,42.9484 14.5249,42.6404 L13.6799,41.2644 C13.3899,40.7944 13.5369,40.1784 14.0079,39.8894 C14.4779,39.6004 15.0939,39.7464 15.3829,40.2184 L15.7049,40.7424 L18.0969,39.2734 L17.6139,38.5314 C17.3139,38.0684 17.4449,37.4494 17.9079,37.1484 C18.3709,36.8464 18.9909,36.9794 19.2919,37.4414 L20.3329,39.0444 C20.4799,39.2704 20.5289,39.5464 20.4699,39.8094 C20.4099,40.0724 20.2469,40.3004 20.0179,40.4414 L15.8999,42.9694 C15.7369,43.0694 15.5569,43.1174 15.3779,43.1174" id="Fill-9" fill="#C4C4C4"></path>
                    <path d="M27.4521,44.3927 C27.1261,44.3927 26.8061,44.2337 26.6151,43.9407 C26.3121,43.4787 26.4411,42.8597 26.9021,42.5567 L36.0961,36.5277 C36.5601,36.2257 37.1791,36.3537 37.4801,36.8157 C37.7831,37.2777 37.6541,37.8977 37.1931,38.2007 L28.0001,44.2287 C27.8301,44.3397 27.6401,44.3927 27.4521,44.3927" id="Fill-10" fill="#C9C9C9"></path>
                    <path d="M19.7373,49.4201 C19.4013,49.4201 19.0733,49.2511 18.8833,48.9431 L18.0383,47.5661 C17.7493,47.0961 17.8963,46.4801 18.3673,46.1911 C18.8363,45.9011 19.4523,46.0481 19.7433,46.5201 L20.0653,47.0451 L22.4563,45.5761 L21.9733,44.8331 C21.6733,44.3691 21.8043,43.7501 22.2673,43.4491 C22.7333,43.1491 23.3503,43.2811 23.6513,43.7441 L24.6923,45.3471 C24.8393,45.5731 24.8883,45.8491 24.8293,46.1121 C24.7693,46.3751 24.6063,46.6031 24.3773,46.7441 L20.2593,49.2721 C20.0963,49.3721 19.9163,49.4201 19.7373,49.4201" id="Fill-11" fill="#C4C4C4"></path>
                    <path d="M31.5381,51.0451 C31.2121,51.0451 30.8921,50.8861 30.7011,50.5931 C30.3981,50.1321 30.5261,49.5121 30.9881,49.2091 L40.1821,43.1781 C40.6441,42.8741 41.2661,43.0031 41.5661,43.4651 C41.8691,43.9271 41.7411,44.5471 41.2791,44.8501 L32.0861,50.8811 C31.9171,50.9921 31.7261,51.0451 31.5381,51.0451" id="Fill-12" fill="#C9C9C9"></path>
                    <path d="M23.8232,56.0715 C23.4872,56.0715 23.1592,55.9025 22.9702,55.5945 L22.1252,54.2185 C21.8352,53.7485 21.9822,53.1325 22.4532,52.8435 C22.9222,52.5545 23.5392,52.6995 23.8282,53.1725 L24.1502,53.6965 L26.5422,52.2265 L26.0592,51.4845 C25.7592,51.0215 25.8902,50.4025 26.3532,50.1015 C26.8152,49.8005 27.4362,49.9315 27.7372,50.3945 L28.7782,51.9975 C28.9252,52.2235 28.9742,52.4995 28.9152,52.7625 C28.8552,53.0255 28.6922,53.2535 28.4632,53.3945 L24.3452,55.9235 C24.1822,56.0235 24.0022,56.0715 23.8232,56.0715" id="Fill-13" fill="#C4C4C4"></path>
                    <path d="M35.6924,57.0187 C35.3664,57.0187 35.0464,56.8597 34.8554,56.5667 C34.5524,56.1057 34.6804,55.4857 35.1424,55.1827 L44.3364,49.1527 C44.7994,48.8487 45.4204,48.9787 45.7204,49.4397 C46.0234,49.9017 45.8954,50.5217 45.4334,50.8247 L36.2404,56.8547 C36.0704,56.9657 35.8804,57.0187 35.6924,57.0187" id="Fill-14" fill="#C9C9C9"></path>
                    <path d="M27.9756,62.0451 C27.6396,62.0451 27.3116,61.8761 27.1226,61.5681 L26.2776,60.1921 C25.9876,59.7221 26.1346,59.1061 26.6056,58.8171 C27.0746,58.5271 27.6916,58.6741 27.9806,59.1461 L28.3026,59.6701 L30.6946,58.2011 L30.2116,57.4601 C29.9116,56.9971 30.0426,56.3781 30.5056,56.0771 C30.9686,55.7751 31.5876,55.9061 31.8896,56.3701 L32.9306,57.9721 C33.0776,58.1981 33.1266,58.4741 33.0676,58.7371 C33.0076,59.0001 32.8446,59.2281 32.6156,59.3691 L28.4976,61.8971 C28.3346,61.9971 28.1546,62.0451 27.9756,62.0451" id="Fill-15" fill="#C4C4C4"></path>
                    <path d="M76.7051,48.9914 C99.4341,47.0364 102.1011,31.9704 101.6251,20.6134 C105.8201,20.1904 120.6991,18.7444 134.7191,17.0874 C136.1131,41.4374 117.0331,66.4614 91.4121,69.4704 C65.7911,72.4794 41.3941,55.9584 36.7261,31.1194 C35.9591,27.0284 40.6391,23.2934 42.3221,22.8914 C44.7071,22.3244 46.2771,23.6584 46.9391,25.3784 C47.6031,27.1004 48.0231,32.5304 53.9981,38.8244 C61.6951,46.9314 67.5431,49.7794 76.7051,48.9914" id="Fill-16" fill="#FFE4A9"></path>
                    <path d="M144.248,113.0138 L144.711,38.7008 C144.711,20.7168 130.744,6.1398 113.516,6.1398 L105.719,6.1398 C88.49,6.1398 74.523,20.7168 74.523,38.7008 L74.592,112.8588 L144.248,113.0138 L144.248,113.0138 Z" id="Fill-17" fill="#C6EEC9"></path>
                    <path d="M101.164,8.3244 L123.553,8.3244 L123.553,0.2464 L101.164,0.2464 L101.164,8.3244 L101.164,8.3244 Z" id="Fill-18" fill="#F9D691"></path>
                    <path d="M55.8398,82.0773 C83.8688,82.2793 89.2698,68.1363 90.3148,56.8013 C95.4938,56.8703 113.8578,57.1693 131.2008,57.1583 C129.4118,81.5053 112.9628,101.1303 71.5758,102.5603 C39.9018,103.6563 13.8928,82.6113 13.8928,57.3383 C13.8928,56.8003 13.7068,55.7753 13.7308,55.2433 C14.4828,56.6933 15.5018,58.1433 16.6308,59.7553 C17.2598,60.6533 17.6538,49.7163 21.9508,50.7903 C24.2578,51.3663 23.6698,56.1603 23.6698,58.5233 C23.6698,61.5933 25.9808,66.9893 28.3378,69.5293 C34.6208,76.2963 43.5368,81.9883 55.8398,82.0773" id="Fill-32" fill="#FFE4A9"></path>
                    <path d="M131.8398,57.0207 L132.1188,36.4537 C132.1188,25.4117 123.7208,16.4627 113.3598,16.4627 L108.6718,16.4627 C98.3128,16.4627 89.9138,25.4117 89.9138,36.4537 L89.9138,56.8067 L131.8398,57.0207 L131.8398,57.0207 Z" id="Fill-33" fill="#A4D7A4"></path>
                    <path d="M35.8008,31.6164 C36.6578,31.0474 36.7348,30.4044 36.3028,29.7374 C35.8728,29.0764 35.1758,28.8184 34.3188,29.3874 L29.8128,32.3854 L31.2948,34.6154 L35.8008,31.6164 L35.8008,31.6164 Z" id="Fill-34" fill="#3A3A3A"></path>
                    <path d="M52.9961,18.6437 C54.3571,17.5477 54.6031,16.7167 54.1191,16.0877 C53.6371,15.4627 52.6801,15.4617 51.3181,16.5587 L44.1601,22.3207 L45.8381,24.4067 L52.9961,18.6437 L52.9961,18.6437 Z" id="Fill-35" fill="#3A3A3A"></path>
                    <path d="M98.9102,9.6154 C98.4282,10.9574 98.0702,12.3224 97.3532,14.9664 C97.3532,14.9664 102.8712,14.1574 103.8342,14.0164 L125.1662,10.9124 C127.0642,10.6364 128.3632,8.7634 128.0682,6.7294 C127.7712,4.6944 125.9922,3.2714 124.0962,3.5464 L102.7622,6.6484 C100.8632,6.9274 99.6012,7.6974 98.9102,9.6154" id="Fill-37" fill="#A4D7A4"></path>
                    <path d="M43.1777,31.485 C41.9827,31.485 41.1037,30.609 40.3317,29.662 C34.9867,23.102 37.6387,14.672 37.7537,14.317 C38.0177,13.504 38.7697,12.949 39.6237,12.935 L39.6567,12.935 C40.4977,12.935 41.2507,13.462 41.5367,14.256 C46.5997,28.286 45.5797,29.737 45.0317,30.517 C44.5997,31.132 43.9237,31.485 43.1777,31.485" id="Fill-38" fill="#FFE4A9"></path>
                    <path d="M37.7637,34.4762 L37.7617,34.4762 C36.2897,34.4752 35.5897,33.1132 35.0787,32.1192 C31.5287,25.2182 32.7507,17.8102 32.8047,17.4982 C32.9637,16.5742 33.7437,15.8842 34.6807,15.8402 C35.6127,15.7832 36.4587,16.4092 36.7047,17.3132 C40.6957,31.9982 40.0527,32.8372 39.4317,33.6492 C39.0527,34.1432 38.3867,34.4762 37.7637,34.4762" id="Fill-39" fill="#FFE4A9"></path>
                    <path d="M49.7236,30.7087 C48.6546,30.7087 47.7676,29.9987 46.9666,29.2307 C40.8616,23.3907 42.3956,14.7187 42.4636,14.3527 C42.6206,13.5107 43.2956,12.8627 44.1426,12.7397 C44.9886,12.6177 45.8216,13.0467 46.2106,13.8097 C53.0916,27.2867 52.1936,28.7527 51.6566,29.6287 C51.2426,30.3057 50.5196,30.7087 49.7236,30.7087" id="Fill-40" fill="#FFE4A9"></path>
                    <path d="M50.0225,39.3835 C48.3465,39.3835 47.5765,37.6995 47.2055,36.8905 C43.8045,29.4935 48.2515,22.2695 48.4435,21.9655 C48.8985,21.2405 49.7655,20.8835 50.5985,21.0835 C51.4315,21.2805 52.0455,21.9875 52.1275,22.8395 C53.4515,36.7025 52.2245,38.0525 51.7005,38.6285 C51.2575,39.1155 50.6625,39.3835 50.0225,39.3835" id="Fill-41" fill="#FFE4A9"></path>
                    <path d="M93.3789,52.7199 C93.3789,53.6719 94.0039,54.4429 94.7749,54.4429 C95.5469,54.4429 96.1719,53.6719 96.1719,52.7199 L96.1719,31.5319 C96.1719,30.5789 95.5469,29.8089 94.7749,29.8089 C94.0039,29.8089 93.3789,30.5789 93.3789,31.5319 L93.3789,52.7199 L93.3789,52.7199 Z" id="Fill-42" fill="#C6EEC9"></path>
                    <path d="M20.4688,78.6115 C20.4688,78.6115 23.0468,71.1425 30.5468,71.7675 L33.6718,74.4345 C33.6718,74.4345 25.4998,75.2625 23.3278,82.4245 L21.7498,80.3775 L20.4688,78.6115 L20.4688,78.6115 Z" id="Fill-46" fill="#50B848"></path>
                    <path d="M28.084,76.8625 C28.084,79.0845 26.527,80.8845 24.608,80.8845 C22.691,80.8845 21.135,79.0845 21.135,76.8625 C21.135,74.6385 22.691,72.8395 24.608,72.8395 C26.527,72.8395 28.084,74.6385 28.084,76.8625" id="Fill-47" fill="#8BFA82"></path>
                    <path d="M27.0586,76.8273 C27.0586,78.4773 25.9256,79.8163 24.5306,79.8163 C23.1336,79.8163 22.0016,78.4773 22.0016,76.8273 C22.0016,75.1773 23.1336,73.8403 24.5306,73.8403 C25.9256,73.8403 27.0586,75.1773 27.0586,76.8273" id="Fill-48" fill="#FFFFFF"></path>
                    <path d="M23.9307,77.0563 C24.0277,77.1343 24.0437,77.2723 23.9667,77.3693 L23.1897,78.3563 C23.1127,78.4523 22.9727,78.4693 22.8747,78.3923 C22.7807,78.3173 22.7637,78.1773 22.8387,78.0803 L23.6187,77.0943 C23.6957,76.9973 23.8347,76.9823 23.9307,77.0563" id="Fill-49" fill="#3A3A3A"></path>
                    <path d="M29.793,32.4264 L28.301,34.9164 L31.275,34.6564 C31.275,34.6564 31.863,33.0814 29.793,32.4264" id="Fill-54" fill="#3A3A3A"></path>
                    <g id="bottom" transform="translate(102.500000, 178.209990) scale(-1, 1) translate(-102.500000, -178.209990) translate(57.000000, 111.709990)">
                        <path d="M67.8648206,131.892729 L43.7266176,131.529718 C36.8430996,131.529718 33.892302,132.957433 33.892302,127.784764 C33.892302,127.784764 32.9757569,118 38.8999828,118 L67.6850319,118 C88.9629603,118.241359 89.8543602,131.892729 89.8543602,131.892729 C82.7030451,132.134088 73.7865319,131.892729 67.8648206,131.892729 Z" id="Fill-2" fill="#3DA236"></path>
                        <path d="M89.4316102,133 L35.2283782,133 C34.4698424,133 33.8572272,132.328402 33.8572272,131.5 C33.8572272,130.671598 34.4698424,130 35.2283782,130 L76.5019531,130 L89.4316102,130 C90.190146,130 90.8040191,130.671598 90.8040191,131.5 C90.8040191,132.328402 90.190146,133 89.4316102,133 Z" id="Fill-3" fill="#86EC7E"></path>
                        <path d="M73,118 L4,118 L4,0 L73,0 L73,118 L73,118 Z" id="Fill-4" fill="#395B59"></path>
                        <path d="M60.9947121,131.892729 C53.2494963,132.134088 43.5905647,131.892729 37.1730285,131.892729 L11.0210037,131.529718 C3.56441387,131.529718 0.369449611,132.957433 0.369449611,127.784764 C0.369449611,127.784764 -0.625682619,118 5.7931085,118 L36.9785197,118 C60.0284425,118.241359 60.9947121,131.892729 60.9947121,131.892729" id="Fill-5" fill="#50B848"></path>
                        <path d="M61.9443711,131.5 C61.9443711,132.328402 61.2785591,133 60.4572657,133 L1.81566081,133 C0.994367374,133 0.32980933,132.328402 0.32980933,131.5 C0.32980933,130.671598 0.994367374,130 1.81566081,130 L60.4572657,130 C61.2785591,130 61.9443711,130.671598 61.9443711,131.5" id="Fill-6" fill="#86EC7E"></path>
                        <path d="M48,118 L3,118 L3,0 L48,0 L48,118 L48,118 Z" id="Fill-7" fill="#3E6B67"></path>
                        <path d="M72,4 L3,4 L3,0 L72,0 L72,4 L72,4 Z" id="Fill-8" fill="#4F7F72"></path>
                        <path d="M43,86.2174689 C43,87.2029981 41.6564246,88 40,88 C38.3421788,88 37,87.2029981 37,86.2174689 L37,18.7845261 C37,17.7989969 38.3421788,17 40,17 C41.6564246,17 43,17.7989969 43,18.7845261 L43,86.2174689 L43,86.2174689 Z" id="Fill-9" fill="#467C75"></path>
                        <path d="M69,86.2174689 C69,87.2029981 67.6564246,88 66,88 C64.3421788,88 63,87.2029981 63,86.2174689 L63,18.7845261 C63,17.7989969 64.3421788,17 66,17 C67.6564246,17 69,17.7989969 69,18.7845261 L69,86.2174689 L69,86.2174689 Z" id="Fill-10" fill="#3E6B67"></path>
                    </g>
                </g>
            </g>
        </g>
    </g>
</svg>