<?xml version="1.0" encoding="UTF-8" standalone="no"?>
<svg width="161px" height="318px" viewBox="0 0 161 318" version="1.1" xmlns="http://www.w3.org/2000/svg" xmlns:xlink="http://www.w3.org/1999/xlink" xmlns:sketch="http://www.bohemiancoding.com/sketch/ns">
    <!-- Generator: Sketch 3.3.3 (12072) - http://www.bohemiancoding.com/sketch -->
    <title>character_2</title>
    <desc>Created with Sketch.</desc>
    <defs></defs>
    <g id="Page-1" stroke="none" stroke-width="1" fill="none" fill-rule="evenodd" sketch:type="MSPage">
        <g id="Screen_4" sketch:type="MSArtboardGroup" transform="translate(-23.000000, -335.000000)">
            <g id="illustration" sketch:type="MSLayerGroup" transform="translate(0.000000, 100.000000)">
                <g id="character_2" transform="translate(23.000000, 235.000000)" sketch:type="MSShapeGroup">
                    <path d="M88.5449,134.463 C88.2519,134.463 87.9629,134.459 87.6729,134.449 C66.0449,133.76 58.8329,114.861 58.0409,104.966 L66.0159,104.328 L73.9849,103.632 C74.2149,106.039 75.9769,118.068 88.1829,118.457 C94.9139,118.682 106.3469,112.678 110.3139,95.283 L125.9129,98.84 C120.2999,123.455 102.7969,134.463 88.5449,134.463" id="Fill-1" fill="#FFE4A9"></path>
                    <path d="M113.6177,108.048 L112.5767,96.679 C112.5517,96.406 112.0067,89.944 115.4957,84.215 C115.9967,83.393 116.8347,82.016 118.4497,82.016 L119.7427,82.016 L120.5557,83.109 C121.3367,84.214 121.8087,84.881 117.4237,97.284 L113.6177,108.048 L113.6177,108.048 Z" id="Fill-2" fill="#FFE4A9"></path>
                    <path d="M118.8335,114.412 L111.4535,102.861 C111.3125,102.641 108.0105,97.402 107.7705,90.885 C107.7265,89.693 107.7555,88.641 108.5605,87.807 L109.2975,87.041 L110.4005,87.023 C112.7715,87.023 113.2445,89.017 114.6495,94.941 C115.3595,97.936 115.9995,100.969 116.0055,101 L118.8335,114.412 L118.8335,114.412 Z" id="Fill-3" fill="#FFE4A9"></path>
                    <path d="M116.0996,107.168 L117.0256,95.814 C117.0476,95.542 117.6216,89.078 122.0566,84.039 C122.6476,83.365 123.5436,82.346 124.8946,82.346 L126.3296,82.346 L127.1246,83.625 C127.8636,84.891 128.2706,85.587 121.6956,97.246 L116.0996,107.168 L116.0996,107.168 Z" id="Fill-4" fill="#FFE4A9"></path>
                    <path d="M116.9033,110.998 L118.2233,101.641 C118.2643,101.353 119.2843,94.526 124.7893,90.258 C125.6923,89.557 126.4873,89.09 127.4303,89.09 C128.4463,89.09 129.3533,89.65 129.7983,90.555 C130.4743,91.932 130.9223,92.842 122.6773,103.519 L116.9033,110.998 L116.9033,110.998 Z" id="Fill-5" fill="#FFE4A9"></path>
                    <path d="M111.2588,106.567 C109.7848,110.194 111.4218,114.288 114.9178,115.712 L135.0998,123.926 C138.5968,125.349 142.6298,123.564 144.1058,119.936 L159.8668,81.221 C161.3418,77.594 159.7038,73.5 156.2078,72.076 L136.0248,63.86 C132.5298,62.438 128.4978,64.222 127.0218,67.85 L111.2588,106.567 L111.2588,106.567 Z" id="Fill-6" fill="#A4D7A4"></path>
                    <path d="M115.6445,109.725 L140.7335,119.712 L156.9555,78.963 L131.8655,68.977 L115.6445,109.725 L115.6445,109.725 Z" id="Fill-7" fill="#FFFFFF"></path>
                    <path d="M132.0156,67.799 C131.4206,69.309 132.1436,71.006 133.6316,71.592 L153.8256,79.555 C155.3136,80.143 157.0016,79.395 157.5966,77.886 C158.1906,76.377 157.4666,74.678 155.9796,74.091 L135.7866,66.13 C134.2986,65.545 132.6096,66.29 132.0156,67.799" id="Fill-8" fill="#50B848"></path>
                    <path d="M144.4111,66.721 C144.9261,65.412 146.4011,64.775 147.7081,65.288 C149.0141,65.803 149.6571,67.28 149.1411,68.585 C148.6271,69.892 147.1481,70.534 145.8441,70.02 C144.5361,69.504 143.8951,68.026 144.4111,66.721 M141.7931,66.036 C140.7361,68.722 142.0551,71.757 144.7401,72.817 C147.4251,73.876 150.4611,72.557 151.5201,69.87 C152.5791,67.186 151.2611,64.15 148.5751,63.09 C145.8891,62.032 142.8541,63.352 141.7931,66.036" id="Fill-9" fill="#50B848"></path>
                    <path d="M133.833,81.5 C133.717,81.5 133.6,81.479 133.488,81.438 C133.228,81.343 133.018,81.143 132.911,80.887 L131.595,77.746 C131.381,77.236 131.621,76.65 132.131,76.437 C132.639,76.224 133.226,76.463 133.439,76.973 L134.339,79.12 L138.649,76.928 C139.144,76.677 139.745,76.875 139.994,77.366 C140.245,77.858 140.049,78.46 139.557,78.711 L134.287,81.392 C134.145,81.464 133.989,81.5 133.833,81.5" id="Fill-10" fill="#3A9B3C"></path>
                    <path d="M148.9609,91.198 C148.8409,91.198 148.7199,91.177 148.6019,91.132 L138.3419,87.183 C137.8269,86.985 137.5699,86.406 137.7689,85.89 C137.9669,85.375 138.5469,85.121 139.0609,85.316 L149.3199,89.264 C149.8359,89.463 150.0929,90.042 149.8939,90.557 C149.7409,90.955 149.3619,91.198 148.9609,91.198" id="Fill-11" fill="#C9C9C9"></path>
                    <path d="M134.5732,85.783 C134.4412,85.783 134.3102,85.757 134.1862,85.705 L129.7302,83.835 C129.2212,83.621 128.9822,83.035 129.1952,82.526 L129.8202,81.036 C130.0342,80.526 130.6192,80.285 131.1292,80.501 C131.6382,80.714 131.8782,81.301 131.6652,81.809 L131.4262,82.378 L134.0142,83.464 L134.3362,82.638 C134.5362,82.124 135.1142,81.867 135.6312,82.07 C136.1452,82.27 136.4002,82.85 136.1992,83.365 L135.5052,85.146 C135.4072,85.397 135.2122,85.598 134.9632,85.704 C134.8392,85.757 134.7062,85.783 134.5732,85.783" id="Fill-12" fill="#C4C4C4"></path>
                    <path d="M146.3833,98.416 C146.2633,98.416 146.1423,98.396 146.0243,98.351 L135.7653,94.398 C135.2493,94.198 134.9923,93.62 135.1913,93.104 C135.3893,92.59 135.9693,92.335 136.4843,92.53 L146.7423,96.483 C147.2583,96.682 147.5153,97.26 147.3163,97.775 C147.1633,98.173 146.7843,98.416 146.3833,98.416" id="Fill-13" fill="#C9C9C9"></path>
                    <path d="M131.9961,92.999 C131.8641,92.999 131.7331,92.974 131.6091,92.921 L127.1531,91.052 C126.9091,90.948 126.7151,90.754 126.6151,90.508 C126.5151,90.263 126.5161,89.986 126.6191,89.742 L127.2451,88.253 C127.4581,87.744 128.0431,87.505 128.5541,87.718 C129.0631,87.932 129.3021,88.519 129.0881,89.028 L128.8501,89.595 L131.4371,90.68 L131.7601,89.854 C131.9601,89.341 132.5401,89.086 133.0551,89.287 C133.5701,89.488 133.8241,90.068 133.6231,90.583 L132.9281,92.363 C132.8291,92.615 132.6341,92.814 132.3861,92.921 C132.2611,92.974 132.1291,92.999 131.9961,92.999" id="Fill-14" fill="#C4C4C4"></path>
                    <path d="M143.3647,105.614 C143.2447,105.614 143.1237,105.593 143.0057,105.548 L132.7437,101.596 C132.2287,101.397 131.9717,100.819 132.1707,100.303 C132.3687,99.788 132.9477,99.534 133.4627,99.729 L143.7237,103.68 C144.2397,103.88 144.4967,104.458 144.2977,104.973 C144.1447,105.371 143.7657,105.614 143.3647,105.614" id="Fill-15" fill="#C9C9C9"></path>
                    <path d="M128.9771,100.197 C128.8461,100.197 128.7141,100.171 128.5901,100.119 L124.1341,98.251 C123.8891,98.148 123.6951,97.953 123.5951,97.708 C123.4951,97.462 123.4961,97.186 123.5981,96.942 L124.2231,95.452 C124.4371,94.943 125.0221,94.7 125.5321,94.917 C126.0411,95.13 126.2811,95.717 126.0681,96.225 L125.8301,96.794 L128.4181,97.879 L128.7401,97.053 C128.9401,96.539 129.5191,96.282 130.0351,96.485 C130.5491,96.685 130.8041,97.265 130.6031,97.78 L129.9091,99.56 C129.8101,99.811 129.6161,100.012 129.3671,100.118 C129.2431,100.171 129.1101,100.197 128.9771,100.197" id="Fill-16" fill="#C4C4C4"></path>
                    <path d="M140.9346,112.473 C140.8146,112.473 140.6936,112.452 140.5756,112.407 L130.3146,108.455 C129.7996,108.256 129.5426,107.678 129.7416,107.162 C129.9396,106.647 130.5196,106.392 131.0336,106.588 L141.2936,110.539 C141.8096,110.739 142.0666,111.317 141.8676,111.832 C141.7146,112.23 141.3356,112.473 140.9346,112.473" id="Fill-17" fill="#C9C9C9"></path>
                    <path d="M126.5454,107.055 C126.4134,107.055 126.2824,107.029 126.1584,106.977 L121.7034,105.107 C121.1944,104.893 120.9554,104.308 121.1684,103.798 L121.7924,102.309 C122.0064,101.799 122.5914,101.557 123.1014,101.774 C123.6104,101.987 123.8504,102.573 123.6374,103.082 L123.3994,103.65 L125.9864,104.736 L126.3074,103.911 C126.5074,103.396 127.0874,103.14 127.6024,103.343 C128.1174,103.543 128.3714,104.123 128.1704,104.638 L127.4774,106.418 C127.3794,106.669 127.1844,106.87 126.9354,106.976 C126.8114,107.029 126.6784,107.055 126.5454,107.055" id="Fill-18" fill="#C4C4C4"></path>
                    <path d="M100.6055,307.9946 C100.6055,313.3326 96.2785,317.6606 90.9395,317.6606 L9.7425,317.6606 C4.4035,317.6606 0.0755,313.3326 0.0755,307.9946 C0.0755,302.6546 4.4035,298.3266 9.7425,298.3266 L90.9395,298.3266 C96.2785,298.3266 100.6055,302.6546 100.6055,307.9946" id="Fill-19" fill="#D1D1D1"></path>
                    <path d="M86.6563,307.8286 C80.9683,308.0766 73.8763,307.8286 69.1663,307.8286 L49.9673,307.4556 C44.4923,307.4556 42.1453,308.9226 42.1453,303.6076 C42.1453,303.6076 41.4163,293.5536 46.1283,293.5536 L69.0233,293.5536 C85.9473,293.8016 86.6563,307.8286 86.6563,307.8286" id="Fill-20" fill="#3EA136"></path>
                    <path d="M87.2227,307.5532 C87.2227,308.3932 86.7347,309.0742 86.1317,309.0742 L43.0427,309.0742 C42.4397,309.0742 41.9527,308.3932 41.9527,307.5532 C41.9527,306.7132 42.4397,306.0322 43.0427,306.0322 L86.1317,306.0322 C86.7347,306.0322 87.2227,306.7132 87.2227,307.5532" id="Fill-21" fill="#86EC7E"></path>
                    <path d="M61.9033,79.963 C62.3333,81.108 62.6543,82.272 63.2993,84.527 C63.2993,84.527 58.4273,83.815 57.5793,83.69 L38.7483,80.949 C37.0723,80.707 35.9173,79.106 36.1703,77.373 C36.4223,75.641 37.9853,74.436 39.6603,74.678 L58.4923,77.418 C60.1673,77.664 61.2853,78.324 61.9033,79.963" id="Fill-22" fill="#A4D7A4"></path>
                    <path d="M52.7109,114.475 L49.1679,102.725 C47.3499,96.393 50.4779,89.938 56.1559,88.305 L58.7269,87.567 C64.4049,85.934 70.4839,89.743 72.3029,96.075 L75.6579,107.746 L52.7109,114.475 L52.7109,114.475 Z" id="Fill-23" fill="#A4D7A4"></path>
                    <path d="M54.189,78.35 L31.799,78.35 L31.799,70.272 L54.189,70.272 L54.189,78.35 L54.189,78.35 Z" id="Fill-24" fill="#F9D691"></path>
                    <path d="M68.9619,51.516 C68.9619,62.575 59.2589,71.544 47.2889,71.544 L38.2599,71.544 C26.2909,71.544 16.5859,62.575 16.5859,51.516 L16.5859,19.811 L68.9829,19.811 L68.9619,51.516 L68.9619,51.516 Z" id="Fill-25" fill="#FFE4A9"></path>
                    <path d="M67.3887,41.258 C67.3887,42.364 66.4927,43.262 65.3847,43.262 C64.2777,43.262 63.3807,42.364 63.3807,41.258 C63.3807,40.152 64.2777,39.255 65.3847,39.255 C66.4927,39.255 67.3887,40.152 67.3887,41.258" id="Fill-26" fill="#32445E"></path>
                    <path d="M50.1318,41.258 C50.1318,42.364 49.2348,43.262 48.1278,43.262 C47.0218,43.262 46.1238,42.364 46.1238,41.258 C46.1238,40.152 47.0218,39.255 48.1278,39.255 C49.2348,39.255 50.1318,40.152 50.1318,41.258" id="Fill-27" fill="#32445E"></path>
                    <path d="M68.182,293.586 L16.996,293.586 L16.996,175.539 L68.182,175.539 L68.182,293.586 L68.182,293.586 Z" id="Fill-28" fill="#395B59"></path>
                    <path d="M16.998,176.4516 L16.656,106.321 C16.656,89.348 26.917,75.591 39.577,75.591 L45.306,75.591 C57.965,75.591 68.227,89.348 68.227,106.321 L68.177,176.3036 L16.998,176.4516 L16.998,176.4516 Z" id="Fill-29" fill="#C6EEC9"></path>
                    <path d="M62.6665,56.893 C62.6665,60.346 59.8695,63.143 56.4155,63.143 C52.9635,63.143 50.1655,60.346 50.1655,56.893 L62.6665,56.893 L62.6665,56.893 Z" id="Fill-32" fill="#FFFFFF"></path>
                    <path d="M60.0156,48.474 C60.0156,50.221 59.2496,50.934 58.0196,50.951 C56.7926,50.966 55.8616,50.221 55.8616,48.474 L55.8616,39.284 L60.0156,39.284 L60.0156,48.474 L60.0156,48.474 Z" id="Fill-33" fill="#FF8948"></path>
                    <path d="M63.6348,34.129 C62.6148,34.129 61.8858,33.5 61.8768,32.535 C61.8668,31.572 62.6148,30.871 63.6348,30.871 L69.0018,30.871 L69.0018,34.129 L63.6348,34.129 L63.6348,34.129 Z" id="Fill-34" fill="#231B18"></path>
                    <path d="M50.7051,48.418 C50.7051,49.663 49.4561,50.674 47.9161,50.674 L43.3991,50.674 C41.8581,50.674 40.6091,49.663 40.6091,48.418 C40.6091,47.173 41.8581,46.162 43.3991,46.162 L47.9161,46.162 C49.4561,46.162 50.7051,47.173 50.7051,48.418" id="Fill-35" fill="#FFC799"></path>
                    <path d="M68.9844,50.674 L65.6304,50.674 C64.4864,50.674 63.5584,49.663 63.5584,48.418 C63.5584,47.173 64.4864,46.162 65.6304,46.162 L68.9844,46.162 L68.9844,50.674 L68.9844,50.674 Z" id="Fill-36" fill="#FFC799"></path>
                    <path d="M52.9688,78.364 C53.3788,79.505 53.6838,80.667 54.2928,82.919 C54.2928,82.919 49.5958,82.229 48.7768,82.11 L30.6148,79.468 C28.9998,79.233 27.8938,77.637 28.1448,75.907 C28.3968,74.175 29.9118,72.962 31.5278,73.196 L49.6898,75.839 C51.3058,76.075 52.3808,76.731 52.9688,78.364" id="Fill-37" fill="#A4D7A4"></path>
                    <path d="M54.6953,32.828 C54.6953,33.718 53.7463,34.438 52.5783,34.438 L43.9223,34.438 C42.7533,34.438 41.8053,33.718 41.8053,32.828 C41.8053,31.938 42.7533,31.217 43.9223,31.217 L52.5783,31.217 C53.7463,31.217 54.6953,31.938 54.6953,32.828" id="Fill-38" fill="#231B18"></path>
                    <path d="M63.4063,307.8286 C57.2343,308.0766 49.5373,307.8286 44.4233,307.8286 L23.5833,307.4556 C17.6413,307.4556 15.0953,308.9226 15.0953,303.6076 C15.0953,303.6076 14.3023,293.5536 19.4173,293.5536 L44.2683,293.5536 C62.6363,293.8016 63.4063,307.8286 63.4063,307.8286" id="Fill-39" fill="#50B848"></path>
                    <path d="M64.0234,307.5532 C64.0234,308.3932 63.4924,309.0742 62.8374,309.0742 L16.0694,309.0742 C15.4144,309.0742 14.8844,308.3932 14.8844,307.5532 C14.8844,306.7132 15.4144,306.0322 16.0694,306.0322 L62.8374,306.0322 C63.4924,306.0322 64.0234,306.7132 64.0234,307.5532" id="Fill-40" fill="#86EC7E"></path>
                    <path d="M50.137,293.586 L16.996,293.586 L16.996,175.969 L50.137,175.969 L50.137,293.586 L50.137,293.586 Z" id="Fill-42" fill="#3E6B67"></path>
                    <path d="M68.093,179.729 L16.965,179.729 L16.965,175.934 L68.093,175.934 L68.093,179.729 L68.093,179.729 Z" id="Fill-43" fill="#4F7F72"></path>
                    <path d="M46.4072,262.6528 C46.4072,263.6408 45.4452,264.4398 44.2592,264.4398 C43.0722,264.4398 42.1112,263.6408 42.1112,262.6528 L42.1112,195.0508 C42.1112,194.0628 43.0722,193.2618 44.2592,193.2618 C45.4452,193.2618 46.4072,194.0628 46.4072,195.0508 L46.4072,262.6528 L46.4072,262.6528 Z" id="Fill-48" fill="#467C75"></path>
                    <path d="M65.3115,262.6528 C65.3115,263.6408 64.3495,264.4398 63.1635,264.4398 C61.9765,264.4398 61.0155,263.6408 61.0155,262.6528 L61.0155,195.0508 C61.0155,194.0628 61.9765,193.2618 63.1635,193.2618 C64.3495,193.2618 65.3115,194.0628 65.3115,195.0508 L65.3115,262.6528 L65.3115,262.6528 Z" id="Fill-49" fill="#3E6B67"></path>
                    <path d="M68.2754,20.292 C61.3264,22.014 56.1564,21.164 43.6524,21.207 C41.0374,21.215 41.4804,27.064 38.7924,30.126 C37.5044,31.595 35.1874,32.685 35.1674,37.251 C35.1614,38.797 35.1054,43.626 35.1054,43.626 L30.2614,43.626 C30.2614,43.626 30.1574,42.988 30.1994,48.751 C30.2114,50.472 30.4814,60.086 20.6064,63.127 C18.8344,61.169 16.6084,58.182 15.5434,56.419 C14.2104,54.211 13.5954,52.101 13.5644,50.043 C13.5644,50.043 13.7014,25.262 13.5994,19.973 C13.4984,14.685 14.8244,11.274 18.1774,8.163 C22.4534,4.196 26.8204,3.293 32.9414,3.259 C46.7184,3.183 60.6034,3.05 62.9494,2.978 C66.3374,2.874 67.7084,2.964 70.6934,2.257 C73.7914,1.524 75.0504,0.671 75.0504,0.671 C75.0504,0.671 75.8574,7.104 75.1304,10.982 C74.2484,15.697 72.1774,19.325 68.2754,20.292" id="Fill-54" fill="#231B18"></path>
                    <path d="M30.4497,48.438 C27.5607,48.438 25.2207,46.099 25.2207,43.211 C25.2207,40.325 27.5607,37.984 30.4497,37.984 L30.4497,48.438 L30.4497,48.438 Z" id="Fill-55" fill="#FFE4A9"></path>
                    <path d="M35.7676,33.814 L13.6426,33.773 L13.6426,35.707 L35.2686,35.72 L35.4866,34.596 L35.7676,33.814 L35.7676,33.814 Z" id="Fill-56" fill="#4C4441"></path>
                    <path d="M39.5488,29.064 L13.6428,29.023 L13.6428,30.957 L37.9568,30.97 L38.9078,30.065 L39.5488,29.064 L39.5488,29.064 Z" id="Fill-57" fill="#4C4441"></path>
                </g>
            </g>
        </g>
    </g>
</svg>