<?xml version="1.0" encoding="utf-8"?>
<!-- Generator: Adobe Illustrator 18.0.0, SVG Export Plug-In . SVG Version: 6.00 Build 0)  -->
<!DOCTYPE svg PUBLIC "-//W3C//DTD SVG 1.1//EN" "http://www.w3.org/Graphics/SVG/1.1/DTD/svg11.dtd">
<svg version="1.1" id="Layer_1" xmlns="http://www.w3.org/2000/svg" xmlns:xlink="http://www.w3.org/1999/xlink" x="0px" y="0px"
	 width="300px" height="300px" viewBox="0 0 300 300" enable-background="new 0 0 300 300" xml:space="preserve">
<path d="M63.5,30c-1.8-0.2-3.4,0.3-4.6,1.5L31.6,58.9c-2.4,2.4-1.8,6.8,1.2,9.8l81.3,81.3l-81.3,81.3c-3,3-3.6,7.4-1.2,9.8
	l27.3,27.3c2.4,2.4,6.8,2.1,9.8-0.9l81.3-81.3l81.3,81.3c3,3,7.4,3.3,9.8,0.9l27.3-27.3c2.4-2.4,1.8-6.8-1.2-9.8L185.9,150
	l81.3-81.3c3-3,3.6-7.4,1.2-9.8l-27.3-27.3c-2.4-2.4-6.8-1.8-9.8,1.2L150,114.1L68.7,32.8C67.2,31.3,65.3,30.2,63.5,30z"/>
</svg>
