<?xml version="1.0" encoding="UTF-8" standalone="no"?>
<svg width="124px" height="68px" viewBox="0 0 124 68" version="1.1" xmlns="http://www.w3.org/2000/svg" xmlns:xlink="http://www.w3.org/1999/xlink" xmlns:sketch="http://www.bohemiancoding.com/sketch/ns">
    <!-- Generator: Sketch 3.3.3 (12072) - http://www.bohemiancoding.com/sketch -->
    <title>Group</title>
    <desc>Created with Sketch.</desc>
    <defs></defs>
    <g id="Page-1" stroke="none" stroke-width="1" fill="none" fill-rule="evenodd" sketch:type="MSPage">
        <g id="Screen_4" sketch:type="MSArtboardGroup" transform="translate(-77.000000, -418.000000)">
            <g id="illustration" sketch:type="MSLayerGroup" transform="translate(0.000000, 100.000000)">
                <g id="character_2" transform="translate(53.000000, 235.000000)" sketch:type="MSShapeGroup">
                    <g id="Group" transform="translate(24.000000, 83.000000)">
                        <path d="M24.0319596,52.6901691 C13.3669596,42.3091691 9.68395962,30.0091691 9.53295962,29.4901691 L24.8899596,25.0011691 L17.2119596,27.2461691 L24.8789596,24.9621691 C24.9069596,25.0541691 27.7529596,34.2101691 35.6129596,41.6281691 C45.7329596,51.1791691 59.6209596,53.6791691 76.8939596,49.0581691 C99.1489596,43.1071691 102.56596,25.7361691 102.59696,25.5621691 L118.33796,28.4371691 C118.13296,29.5561691 112.95896,55.9751691 81.0279596,64.5151691 C73.7029596,66.4741691 67.0819596,67.3111691 61.1179596,67.3111691 C43.4049596,67.3111691 31.4769596,59.9371691 24.0319596,52.6901691 Z" id="Fill-30" fill="#FFE4A9"></path>
                        <path d="M4.96555962,30.3061691 L1.26055962,17.2431691 C-0.644440384,10.2081691 2.50855962,3.23416909 8.30155962,1.66516909 L10.9225596,0.954169087 C16.7175596,-0.613830913 22.9575596,3.81616909 24.8625596,10.8511691 L28.3745596,23.8201691 L4.96555962,30.3061691 L4.96555962,30.3061691 Z" id="Fill-31" fill="#A4D7A4"></path>
                        <path d="M19.3894596,8.24216909 C19.2134596,7.62316909 19.5634596,6.98416909 20.1724596,6.81216909 C20.7804596,6.63816909 21.4144596,6.99616909 21.5904596,7.61516909 L25.5084596,21.3691691 C25.6864596,21.9881691 25.3344596,22.6291691 24.7274596,22.8031691 C24.1194596,22.9741691 23.4834596,22.6151691 23.3094596,21.9981691 L19.3894596,8.24216909 L19.3894596,8.24216909 Z" id="Fill-41" fill="#C6EEC9"></path>
                        <path d="M106.63746,38.7261691 L105.52646,27.3671691 C105.49946,27.0941691 104.91346,20.6361691 108.36646,14.8841691 C108.86546,14.0551691 109.69946,12.6671691 111.32346,12.6671691 L112.61246,12.6671691 L113.42546,13.7531691 C114.18246,14.8181691 114.68246,15.5191691 110.37546,27.9421691 L106.63746,38.7261691 L106.63746,38.7261691 Z" id="Fill-44" fill="#FFE4A9"></path>
                        <path d="M109.71456,44.2401691 L103.98956,31.7831691 C103.88156,31.5451691 101.33056,25.9021691 101.98756,19.4161691 C102.07556,18.5521691 102.34256,15.9261691 104.77356,15.9261691 C107.43756,15.9261691 107.65556,18.2191691 108.24056,24.3441691 C108.53456,27.4191691 108.75356,30.5331691 108.75556,30.5641691 L109.71456,44.2401691 L109.71456,44.2401691 Z" id="Fill-45" fill="#FFE4A9"></path>
                        <path d="M109.32936,37.1891691 L110.18536,25.8311691 C110.20536,25.5581691 110.74036,19.0911691 115.14236,14.0251691 C115.73336,13.3431691 116.62736,12.3141691 117.98736,12.3141691 L119.41736,12.3141691 L120.21236,13.5851691 C120.95436,14.8471691 121.36336,15.5431691 114.86336,27.2341691 L109.32936,37.1891691 L109.32936,37.1891691 Z" id="Fill-46" fill="#FFE4A9"></path>
                        <path d="M110.57596,40.5821691 L111.83996,31.2171691 C111.87896,30.9281691 112.85596,24.0941691 118.33596,19.7911691 C119.23996,19.0801691 120.03696,18.6051691 120.98596,18.6051691 C121.99896,18.6051691 122.90396,19.1641691 123.34896,20.0631691 C124.02896,21.4361691 124.47796,22.3441691 116.30496,33.0661691 L110.57596,40.5821691 L110.57596,40.5821691 Z" id="Fill-47" fill="#FFE4A9"></path>
                        <path d="M97.9050596,35.3141691 C97.9050596,35.3141691 106.95206,36.4861691 109.62406,46.3771691 L106.40506,50.0641691 C106.40506,50.0641691 103.38906,41.2981691 94.6240596,39.2201691 L96.3110596,37.3141691 L97.9050596,35.3141691 L97.9050596,35.3141691 Z" id="Fill-50" fill="#15BA68"></path>
                        <path d="M102.99926,43.8901691 C100.79426,44.1651691 98.8152596,42.8451691 98.5782596,40.9411691 C98.3402596,39.0381691 99.9332596,37.2711691 102.13826,36.9951691 C104.34526,36.7201691 106.32426,38.0411691 106.56126,39.9441691 C106.79926,41.8481691 105.20626,43.6151691 102.99926,43.8901691" id="Fill-51" fill="#66FF8E"></path>
                        <path d="M102.90746,42.8701691 C101.26946,43.0741691 99.8014596,42.1151691 99.6284596,40.7311691 C99.4554596,39.3461691 100.64246,38.0571691 102.28046,37.8511691 C103.91746,37.6481691 105.38546,38.6051691 105.55846,39.9901691 C105.73146,41.3751691 104.54446,42.6661691 102.90746,42.8701691" id="Fill-52" fill="#FFFFFF"></path>
                        <path d="M102.29276,39.7941691 C102.22776,39.8991691 102.09276,39.9331691 101.98676,39.8681691 L100.91076,39.2191691 C100.80576,39.1541691 100.77176,39.0201691 100.83576,38.9131691 C100.89876,38.8081691 101.03476,38.7741691 101.14076,38.8371691 L102.21676,39.4891691 C102.32176,39.5531691 102.35476,39.6891691 102.29276,39.7941691" id="Fill-53" fill="#3A3A3A"></path>
                    </g>
                </g>
            </g>
        </g>
    </g>
</svg>