<?xml version="1.0" encoding="UTF-8" standalone="no"?>
<svg width="68px" height="87px" viewBox="0 0 68 87" version="1.1" xmlns="http://www.w3.org/2000/svg" xmlns:xlink="http://www.w3.org/1999/xlink" xmlns:sketch="http://www.bohemiancoding.com/sketch/ns">
    <!-- Generator: Sketch 3.3.3 (12072) - http://www.bohemiancoding.com/sketch -->
    <title>Group</title>
    <desc>Created with Sketch.</desc>
    <defs></defs>
    <g id="Page-1" stroke="none" stroke-width="1" fill="none" fill-rule="evenodd" sketch:type="MSPage">
        <g id="Screen_3" sketch:type="MSArtboardGroup" transform="translate(-248.000000, -338.000000)">
            <g id="illustration" sketch:type="MSLayerGroup" transform="translate(229.000000, 338.000000)">
                <g id="character_1" transform="translate(82.000000, 168.000000) scale(-1, 1) translate(-82.000000, -168.000000) " sketch:type="MSShapeGroup">
                    <g id="Group" transform="translate(77.000000, 0.000000)">
                        <path d="M9,66.0394989 C9.02084129,77.026045 18.6505077,86.0394989 31,86.0394989 C30.529048,86.0394989 39.4898084,86.0394989 39,86.0394989 C51.3683487,86.0394989 61,77.026045 61,66.0394989 L61,34.0394989 L9,34.0394989 C9,34.0394989 9.02084129,65.9077429 9,66.0394989 L9,66.0394989 Z" id="Fill-19" fill="#FFE4A9"></path>
                        <path d="M7.5176,33.0529 C14.4666,34.7749 19.6366,33.9249 32.1406,33.9679 C34.7556,33.9759 34.3126,39.8249 36.9996,42.8869 C38.2886,44.3559 40.6056,45.4459 40.6246,50.0119 C40.6306,51.5579 40.6876,56.3869 40.6876,56.3869 L45.5316,56.3869 C45.5316,56.3869 45.5616,52.3869 45.5396,50.8869 C45.5896,56.0749 45.6356,55.7489 45.5936,61.5119 C45.5816,63.2329 47.4996,74.4709 57.3746,77.5119 C59.2066,75.5539 59.9856,73.8369 60.8326,72.0119 C61.9156,69.6789 62.4826,67.1729 62.3226,63.7889 C62.3226,63.7889 62.0916,38.0229 62.1936,32.7339 C62.2946,27.4459 60.9686,24.0349 57.6156,20.9239 C53.3396,16.9569 48.9726,16.0539 42.8516,16.0199 C29.0746,15.9439 15.1896,15.8109 12.8436,15.7389 C9.4556,15.6349 8.0836,15.7249 5.0996,15.0179 C2.0016,14.2849 0.7426,13.4319 0.7426,13.4319 C0.7426,13.4319 -0.0644,19.8649 0.6626,23.7429 C1.5446,28.4579 3.6156,32.0859 7.5176,33.0529" id="Fill-22" fill="#BF3600"></path>
                        <path d="M45.4219,61.4894 C48.3109,61.4894 50.6509,59.1504 50.6509,56.2624 C50.6509,53.3764 48.3109,51.0354 45.4219,51.0354 L45.4219,61.4894 L45.4219,61.4894 Z" id="Fill-23" fill="#FFE4A9"></path>
                        <path d="M40.6367,50.6183 L62.2027,50.6183 L62.2027,48.6843 L40.5467,48.6683 L40.6097,49.4183 L40.6367,50.6183 L40.6367,50.6183 Z" id="Fill-30" fill="#C66D40"></path>
                        <path d="M39.8281,46.1374 L62.1871,46.1794 L62.1871,44.2454 L38.3751,44.2314 L39.1561,45.0904 L39.8281,46.1374 L39.8281,46.1374 Z" id="Fill-31" fill="#C66D40"></path>
                        <path d="M66.4121,39.3332 C66.4121,39.3332 66.7731,41.1912 67.3201,43.7802 C55.4591,43.4692 59.8521,37.3552 54.0801,35.8182 C39.1191,31.8342 12.2031,23.9702 8.0061,22.3472 C4.3041,20.9152 1.1871,18.0752 4.1251,14.8872 C6.5581,12.2472 16.9141,14.9642 16.9141,14.9642 L64.5301,30.1262 L66.4121,39.3332 L66.4121,39.3332 Z" id="Fill-50" fill="#DDDDDD"></path>
                        <path d="M64.7227,31.3132 C54.3027,28.4312 53.3747,27.4542 38.5717,23.5482 C23.7687,19.6432 20.5937,18.0372 11.9217,16.1292 C15.2637,3.8972 29.8537,-2.6598 44.6567,1.2452 C59.4587,5.1512 68.0657,19.0812 64.7227,31.3132" id="Fill-51" fill="#CECECE"></path>
                        <path d="M64.7363,31.3053 L11.9293,16.1693 L12.5253,14.2903 L65.1743,29.3073 L64.7363,31.3053 L64.7363,31.3053 Z" id="Fill-52" fill="#BFBFBF"></path>
                        <path d="M61.6211,28.5983 L59.6291,28.4273 C59.6851,27.7503 60.8341,11.7803 44.7001,6.7163 C25.1291,0.5723 17.9531,15.4233 17.6571,16.0583 L15.8421,15.2183 C15.9221,15.0463 24.0161,-1.8747 45.3001,4.8083 C62.9861,10.3593 61.6371,28.4163 61.6211,28.5983" id="Fill-53" fill="#BFBFBF"></path>
                        <g id="face" transform="translate(9.000000, 44.000000)">
                            <path d="M1.5977,9.0902 C1.5977,10.1962 2.4947,11.0942 3.6017,11.0942 C4.7087,11.0942 5.6057,10.1962 5.6057,9.0902 C5.6057,7.9832 4.7087,7.0872 3.6017,7.0872 C2.4947,7.0872 1.5977,7.9832 1.5977,9.0902" id="Fill-20-Copy" fill="#3A3A3A"></path>
                            <path d="M18.8555,9.0902 C18.8555,10.1962 19.7515,11.0942 20.8595,11.0942 C21.9655,11.0942 22.8635,10.1962 22.8635,9.0902 C22.8635,7.9832 21.9655,7.0872 20.8595,7.0872 C19.7515,7.0872 18.8555,7.9832 18.8555,9.0902" id="Fill-21-Copy" fill="#3A3A3A"></path>
                            <path d="M27.8398,5.7599 C27.8398,5.7599 27.4828,3.4689 24.6178,1.9649 C22.5958,0.9029 20.3948,0.6759 18.1018,1.3919" id="Stroke-24-Copy" stroke="#A52300" stroke-width="3" stroke-linecap="round" stroke-linejoin="round"></path>
                            <path d="M4.6758,1.5001 C4.6758,1.5001 2.5278,0.8911 0.5938,2.7161" id="Stroke-25-Copy" stroke="#A52300" stroke-width="3" stroke-linecap="round" stroke-linejoin="round"></path>
                            <path d="M10.4316,25.6732 C11.3106,28.1942 14.0666,29.5252 16.5876,28.6452 C19.1076,27.7662 20.4396,25.0102 19.5606,22.4882 C14.2076,24.3562 14.2076,24.3562 10.4316,25.6732" id="Fill-26-Copy" fill="#FFFFFF"></path>
                            <path d="M8.9707,16.306 C8.9707,18.053 9.7367,18.765 10.9667,18.782 C12.1937,18.798 13.1247,18.053 13.1247,16.306 L13.1247,7.116 L8.9707,7.116 L8.9707,16.306 L8.9707,16.306 Z" id="Fill-27-Copy" fill="#FF8948"></path>
                            <path d="M18.2813,16.2503 C18.2813,17.4953 19.5303,18.5063 21.0713,18.5063 L25.5883,18.5063 C27.1283,18.5063 28.3773,17.4953 28.3773,16.2503 C28.3773,15.0053 27.1283,13.9943 25.5883,13.9943 L21.0713,13.9943 C19.5303,13.9943 18.2813,15.0053 18.2813,16.2503" id="Fill-28-Copy" fill="#FFC49C"></path>
                            <path d="M0.0029,18.5062 L3.3559,18.5062 C4.4999,18.5062 5.4279,17.4952 5.4279,16.2502 C5.4279,15.0052 4.4999,13.9942 3.3559,13.9942 L0.0029,13.9942 L0.0029,18.5062 L0.0029,18.5062 Z" id="Fill-29-Copy" fill="#FFC49C"></path>
                        </g>
                    </g>
                </g>
            </g>
        </g>
    </g>
</svg>