<?xml version="1.0" encoding="UTF-8" standalone="no"?>
<svg width="40px" height="40px" viewBox="0 0 40 40" version="1.1" xmlns="http://www.w3.org/2000/svg" xmlns:xlink="http://www.w3.org/1999/xlink" xmlns:sketch="http://www.bohemiancoding.com/sketch/ns">
    <!-- Generator: Sketch 3.3.3 (12072) - http://www.bohemiancoding.com/sketch -->
    <title>Group</title>
    <desc>Created with Sketch.</desc>
    <defs></defs>
    <g id="Page-1" stroke="none" stroke-width="1" fill="none" fill-rule="evenodd" sketch:type="MSPage">
        <g id="Screen_4" sketch:type="MSArtboardGroup" transform="translate(-454.000000, -322.000000)">
            <g id="illustration" sketch:type="MSLayerGroup" transform="translate(0.000000, 100.000000)">
                <g id="vitrina" transform="translate(380.000000, 148.000000)" sketch:type="MSShapeGroup">
                    <g id="Group" transform="translate(74.000000, 74.000000)">
                        <path d="M6.23622753,35.1896631 L4.95122753,34.1326631 L16.4302275,20.1476631 L17.7162275,21.2036631 L6.23622753,35.1896631 L6.23622753,35.1896631 Z" id="Fill-16" fill="#DDDDDD"></path>
                        <path d="M35.4178275,27.6886631 L34.1328275,26.6346631 L37.3748275,22.6836631 L38.6598275,23.7396631 L35.4178275,27.6886631 L35.4178275,27.6886631 Z" id="Fill-17" fill="#DDDDDD"></path>
                        <path d="M16.0252275,21.4259631 L16.4392275,20.1439631 L35.8162275,26.3929631 L35.4022275,27.6759631 L16.0252275,21.4259631 L16.0252275,21.4259631 Z" id="Fill-18" fill="#DDDDDD"></path>
                        <path d="M33.9949275,20.0939631 L34.8489275,19.0519631 L39.4209275,22.8029631 L38.5659275,23.8459631 L33.9949275,20.0939631 L33.9949275,20.0939631 Z" id="Fill-19" fill="#DDDDDD"></path>
                        <path d="M35.9744275,20.2648631 C34.4644275,22.1058631 31.9624275,22.5458631 30.3844275,21.2498631 L13.9144275,7.73286308 C12.3364275,6.43786308 12.2814275,3.89686308 13.7904275,2.05686308 C15.2994275,0.219863078 17.8024275,-0.220136922 19.3804275,1.07386308 L35.8494275,14.5898631 C37.4274275,15.8868631 37.4844275,18.4268631 35.9744275,20.2648631" id="Fill-20" fill="#FFFFFF"></path>
                        <path d="M6.63072753,39.0079631 C5.67972753,40.1679631 3.67572753,40.0979631 2.15572753,38.8499631 C0.636727533,37.6029631 0.176727533,35.6519631 1.12872753,34.4909631 L10.5287275,23.0389631 C11.4807275,21.8789631 13.4847275,21.9509631 15.0037275,23.1969631 C16.5237275,24.4449631 16.9827275,26.3959631 16.0307275,27.5569631 L6.63072753,39.0079631 L6.63072753,39.0079631 Z" id="Fill-32" fill="#377725"></path>
                        <path d="M4.22252753,34.7238631 C3.87852753,35.1298631 3.38552753,35.2828631 3.12152753,35.0598631 C2.85952753,34.8368631 2.92752753,34.3278631 3.27252753,33.9178631 L11.3185275,24.4058631 C11.6615275,23.9978631 12.1555275,23.8468631 12.4175275,24.0698631 C12.6795275,24.2908631 12.6135275,24.8008631 12.2695275,25.2098631 L4.22252753,34.7238631 L4.22252753,34.7238631 Z" id="Fill-35" fill="#63A34B"></path>
                    </g>
                </g>
            </g>
        </g>
    </g>
</svg>