<?xml version="1.0" encoding="UTF-8" standalone="no"?>
<svg width="49px" height="50px" viewBox="0 0 49 50" version="1.1" xmlns="http://www.w3.org/2000/svg" xmlns:xlink="http://www.w3.org/1999/xlink" xmlns:sketch="http://www.bohemiancoding.com/sketch/ns">
    <!-- Generator: Sketch 3.3.3 (12072) - http://www.bohemiancoding.com/sketch -->
    <title>Group</title>
    <desc>Created with Sketch.</desc>
    <defs></defs>
    <g id="Page-1" stroke="none" stroke-width="1" fill="none" fill-rule="evenodd" sketch:type="MSPage">
        <g id="Screen_4" sketch:type="MSArtboardGroup" transform="translate(-405.000000, -400.000000)">
            <g id="illustration" sketch:type="MSLayerGroup" transform="translate(0.000000, 100.000000)">
                <g id="vitrina" transform="translate(380.000000, 148.000000)" sketch:type="MSShapeGroup">
                    <g id="Group" transform="translate(25.000000, 152.000000)">
                        <path d="M48.1855,6.4106 L46.7795,7.0926 L46.4045,8.7596 L44.3825,9.8786 L44.0155,11.9076 L42.1795,12.7266 L41.8455,14.7706 L39.9995,15.6576 L39.6945,17.6076 L37.7655,18.6016 L37.3985,20.6366 L35.3665,21.4776 L35.0635,23.7146 L33.0975,24.6086 L32.8105,26.6866 L31.0385,27.4466 L30.8615,29.2566 L29.0635,30.1726 L28.7635,32.0246 L26.9175,33.1216 L26.6195,34.8516 L24.9825,35.5726 L24.7935,37.2596 L22.5805,38.5376 L22.2705,40.6426 L20.7265,42.6246 L10.9715,27.8206 L42.5215,0.5536 L48.1855,6.4106 L48.1855,6.4106 Z" id="Fill-13" fill="#CCCCCC"></path>
                        <path d="M17.2578,43.5639 C16.2608,44.2429 14.9058,43.9859 14.2288,42.9919 L8.1108,33.9929 C7.4338,32.9979 7.6948,31.6429 8.6918,30.9639 C9.6878,30.2849 11.0448,30.5429 11.7208,31.5369 L17.8398,40.5359 C18.5158,41.5309 18.2558,42.8849 17.2578,43.5639 M19.4668,37.7989 L12.9938,28.1779 C11.2208,26.3129 8.5198,25.8789 6.2198,29.2759 C6.2198,29.2759 2.3198,34.7329 1.3438,36.2399 C0.1328,38.1049 -0.4132,40.5919 1.2818,42.3739 L7.1288,48.5189 C8.9038,50.3829 10.8388,50.3509 13.2718,48.9299 C15.7048,47.5069 20.4548,44.2389 20.4548,44.2389 C21.9748,42.7929 21.1988,40.1329 19.4668,37.7989" id="Fill-14" fill="#F91042"></path>
                        <path d="M20.5957,23.6889 C19.7887,24.4259 18.9457,24.8189 18.7117,24.5649 C18.4827,24.3089 18.9497,23.5069 19.7567,22.7679 L38.5997,5.5719 C39.4057,4.8349 40.2487,4.4429 40.4817,4.6979 C40.7127,4.9509 40.2457,5.7539 39.4387,6.4919 L20.5957,23.6889 L20.5957,23.6889 Z" id="Fill-36" fill="#EFEFEF"></path>
                        <path d="M2.248,40.7856 C1.975,40.4806 1.924,40.0806 2.135,39.8906 C2.348,39.7026 2.74,39.7976 3.014,40.1036 L9.39,47.2436 C9.662,47.5476 9.714,47.9476 9.502,48.1376 C9.291,48.3276 8.898,48.2316 8.625,47.9246 L2.248,40.7856 L2.248,40.7856 Z" id="Fill-54" fill="#FF769A"></path>
                    </g>
                </g>
            </g>
        </g>
    </g>
</svg>