<?xml version="1.0" encoding="UTF-8" standalone="no"?>
<svg width="90px" height="89px" viewBox="0 0 90 89" version="1.1" xmlns="http://www.w3.org/2000/svg" xmlns:xlink="http://www.w3.org/1999/xlink" xmlns:sketch="http://www.bohemiancoding.com/sketch/ns">
    <!-- Generator: Sketch 3.3.3 (12072) - http://www.bohemiancoding.com/sketch -->
    <title>star</title>
    <desc>Created with Sketch.</desc>
    <defs>
        <filter x="-50%" y="-50%" width="200%" height="200%" filterUnits="objectBoundingBox" id="filter-1">
            <feOffset dx="0" dy="0" in="SourceAlpha" result="shadowOffsetOuter1"></feOffset>
            <feGaussianBlur stdDeviation="2" in="shadowOffsetOuter1" result="shadowBlurOuter1"></feGaussianBlur>
            <feColorMatrix values="0 0 0 0 0   0 0 0 0 0   0 0 0 0 0  0 0 0 0.175 0" in="shadowBlurOuter1" type="matrix" result="shadowMatrixOuter1"></feColorMatrix>
            <feMerge>
                <feMergeNode in="shadowMatrixOuter1"></feMergeNode>
                <feMergeNode in="SourceGraphic"></feMergeNode>
            </feMerge>
        </filter>
        <linearGradient x1="0%" y1="0%" x2="50%" y2="100%" id="linearGradient-2">
            <stop stop-color="#F7F058" offset="0%"></stop>
            <stop stop-color="#FFE600" offset="100%"></stop>
        </linearGradient>
    </defs>
    <g id="Page-1" stroke="none" stroke-width="1" fill="none" fill-rule="evenodd" sketch:type="MSPage">
        <g id="Screen_2" sketch:type="MSArtboardGroup" transform="translate(-729.000000, -280.000000)">
            <g id="star" sketch:type="MSLayerGroup" transform="translate(732.000000, 283.000000)">
                <path d="M83.6747327,32.6110561 C82.0002086,27.8393742 57.9895698,25.3850847 56.2372881,24.5954628 C54.4850065,23.8069361 44.2418253,0.83452412 40.6649804,0.24970013 C37.0881356,-0.335123859 27.5053455,23.9471186 27.5053455,23.9471186 C27.5053455,23.9471186 3.68526728,26.3630769 0.680104302,29.7811213 C-2.32396349,33.1980704 18.0090743,51.0724381 18.0090743,51.0724381 C18.0090743,51.0724381 11.9724641,79.0235202 16.208605,79.9960365 C20.4458409,80.9685528 39.4383833,67.2295698 40.7230248,67.7015906 C42.0076662,68.1725163 60.616897,87.2526728 65.2483963,81.5895176 C68.5656845,79.3071708 62.7316819,56.1398175 64.4982008,52.1227119 C66.2658149,48.1045111 83.5498827,39.890691 83.6747327,32.6110561" id="Fill-1" fill="#FFD300" filter="url(#filter-1)" sketch:type="MSShapeGroup"></path>
                <path d="M83.6747327,32.6110561 C82.0002086,27.8393742 57.9895698,25.3850847 56.2372881,24.5954628 C54.4850065,23.8069361 44.2418253,0.83452412 40.6649804,0.24970013 C37.0881356,-0.335123859 27.5053455,23.9471186 27.5053455,23.9471186 C27.5053455,23.9471186 3.68526728,26.3630769 0.680104302,29.7811213 C-2.32396349,33.1980704 18.0090743,51.0724381 18.0090743,51.0724381 C18.0090743,51.0724381 11.9724641,79.0235202 16.208605,79.9960365 C40.8106389,59.8053716 34.6261799,40.8128292 83.6747327,32.6110561" id="Fill-2" fill="url(#linearGradient-2)" sketch:type="MSShapeGroup"></path>
            </g>
        </g>
    </g>
</svg>