<?xml version="1.0" encoding="UTF-8" standalone="no"?>
<svg width="280px" height="430px" viewBox="0 0 280 430" version="1.1" xmlns="http://www.w3.org/2000/svg" xmlns:xlink="http://www.w3.org/1999/xlink" xmlns:sketch="http://www.bohemiancoding.com/sketch/ns">
    <!-- Generator: Sketch 3.3.3 (12072) - http://www.bohemiancoding.com/sketch -->
    <title>greeen_1 + greeen_2</title>
    <desc>Created with Sketch.</desc>
    <defs></defs>
    <g id="Page-1" stroke="none" stroke-width="1" fill="none" fill-rule="evenodd" sketch:type="MSPage">
        <g id="Screen_3" sketch:type="MSArtboardGroup" transform="translate(-101.000000, -103.000000)">
            <g id="illustration" sketch:type="MSLayerGroup" transform="translate(35.000000, 103.000000)">
                <g id="greeen_1-+-greeen_2" transform="translate(66.000000, -249.000000)" sketch:type="MSShapeGroup">
                    <g id="greeen_1" transform="translate(0.000000, 216.000000)">
                        <path d="M189,428.892504 L194,428.892504 L194,0.892504233 L189,0.892504233 L189,428.892504 L189,428.892504 Z" id="Fill-1" fill="#15BA68"></path>
                        <path d="M193,284.419668 C192.992701,285.174896 192.770803,286 192,286 C192.222628,286 192,285.174896 192,284.419668 C192,284.161083 192.007299,2.59128535 192,2.33033241 C192.007299,1.57510428 192.229927,0.75 193,0.75 C192.778832,0.75 193,1.57510428 193,2.33033241 C193,2.59128535 192.992701,284.161083 193,284.419668 L193,284.419668 Z" id="Fill-3" fill="#1DDB77"></path>
                        <path d="M14.6802,458.4781 C14.6802,459.4661 13.9902,460.2681 13.1382,460.2681 L11.7822,460.2681 C10.9312,460.2681 10.2402,459.4661 10.2402,458.4781 C10.2402,457.4891 10.9312,456.6881 11.7822,456.6881 L13.1382,456.6881 C13.9902,456.6881 14.6802,457.4891 14.6802,458.4781" id="Fill-4" fill="#37539B"></path>
                        <path d="M9.6221,438.2125 C9.3921,437.2495 9.8771,436.3115 10.7051,436.1115 L12.0241,435.7975 C12.8521,435.5985 13.7101,436.2175 13.9401,437.1785 C14.1701,438.1425 13.6851,439.0805 12.8571,439.2795 L11.5381,439.5945 C10.7091,439.7925 9.8521,439.1735 9.6221,438.2125" id="Fill-5" fill="#37539B"></path>
                        <path d="M5.6787,441.4606 C4.9427,440.7996 4.8077,439.7516 5.3757,439.1166 L6.2827,438.1066 C6.8497,437.4736 7.9067,437.4946 8.6427,438.1536 C9.3807,438.8156 9.5157,439.8646 8.9477,440.4986 L8.0407,441.5086 C7.4727,442.1426 6.4147,442.1196 5.6787,441.4606" id="Fill-6" fill="#37539B"></path>
                        <path d="M4.0601,445.9762 C3.0981,445.7412 2.4831,444.8812 2.6831,444.0542 L3.0041,442.7362 C3.2041,441.9092 4.1461,441.4282 5.1061,441.6612 C6.0691,441.8952 6.6841,442.7542 6.4841,443.5812 L6.1631,444.9002 C5.9621,445.7272 5.0201,446.2082 4.0601,445.9762" id="Fill-7" fill="#37539B"></path>
                        <path d="M4.0796,450.902 C3.0906,450.964 2.2486,450.325 2.1936,449.476 L2.1096,448.122 C2.0546,447.272 2.8106,446.533 3.7966,446.47 C4.7876,446.409 5.6286,447.047 5.6836,447.896 L5.7676,449.251 C5.8216,450.099 5.0656,450.839 4.0796,450.902" id="Fill-8" fill="#37539B"></path>
                        <path d="M6.2603,455.0709 C5.4353,455.6199 4.3873,455.4899 3.9143,454.7819 L3.1633,453.6519 C2.6913,452.9429 2.9763,451.9249 3.7973,451.3779 C4.6233,450.8289 5.6713,450.9589 6.1443,451.6679 L6.8953,452.7979 C7.3673,453.5059 7.0823,454.5239 6.2603,455.0709" id="Fill-9" fill="#37539B"></path>
                        <path d="M9.7539,458.3834 C9.1279,459.1534 8.0879,459.3374 7.4269,458.8034 L6.3739,457.9464 C5.7119,457.4094 5.6819,456.3544 6.3049,455.5864 C6.9309,454.8174 7.9709,454.6314 8.6309,455.1664 L9.6839,456.0234 C10.3449,456.5584 10.3759,457.6164 9.7539,458.3834" id="Fill-10" fill="#37539B"></path>
                        <path d="M14.5361,458.5387 C14.4941,459.5297 13.7891,460.3007 12.9621,460.2677 L11.6411,460.2127 C10.8121,460.1787 10.1741,459.3507 10.2151,458.3627 C10.2561,457.3727 10.9611,456.6007 11.7881,456.6337 L13.1101,456.6897 C13.9371,456.7237 14.5761,457.5527 14.5361,458.5387" id="Fill-11" fill="#37539B"></path>
                        <path d="M24.0625,458.6324 C24.0625,459.6214 23.3725,460.4224 22.5215,460.4224 L21.1645,460.4224 C20.3135,460.4224 19.6235,459.6214 19.6235,458.6324 C19.6235,457.6434 20.3135,456.8424 21.1645,456.8424 L22.5215,456.8424 C23.3725,456.8424 24.0625,457.6434 24.0625,458.6324" id="Fill-12" fill="#37539B"></path>
                        <path d="M28.8604,458.6324 C28.8604,459.6214 28.1704,460.4224 27.3184,460.4224 L25.9634,460.4224 C25.1114,460.4224 24.4214,459.6214 24.4214,458.6324 C24.4214,457.6434 25.1114,456.8424 25.9634,456.8424 L27.3184,456.8424 C28.1704,456.8424 28.8604,457.6434 28.8604,458.6324" id="Fill-13" fill="#37539B"></path>
                        <path d="M19.1221,458.6324 C19.1221,459.6214 18.4321,460.4224 17.5801,460.4224 L16.2251,460.4224 C15.3731,460.4224 14.6831,459.6214 14.6831,458.6324 C14.6831,457.6434 15.3731,456.8424 16.2251,456.8424 L17.5801,456.8424 C18.4321,456.8424 19.1221,457.6434 19.1221,458.6324" id="Fill-14" fill="#37539B"></path>
                        <path d="M33.6582,458.6324 C33.6582,459.6214 32.9682,460.4224 32.1162,460.4224 L30.7602,460.4224 C29.9082,460.4224 29.2192,459.6214 29.2192,458.6324 C29.2192,457.6434 29.9082,456.8424 30.7602,456.8424 L32.1162,456.8424 C32.9682,456.8424 33.6582,457.6434 33.6582,458.6324" id="Fill-15" fill="#37539B"></path>
                        <path d="M38.4551,458.6324 C38.4551,459.6214 37.7661,460.4224 36.9141,460.4224 L35.5571,460.4224 C34.7071,460.4224 34.0161,459.6214 34.0161,458.6324 C34.0161,457.6434 34.7071,456.8424 35.5571,456.8424 L36.9141,456.8424 C37.7661,456.8424 38.4551,457.6434 38.4551,458.6324" id="Fill-16" fill="#37539B"></path>
                        <path d="M43.3242,458.6324 C43.3242,459.6214 42.6352,460.4224 41.7832,460.4224 L40.4272,460.4224 C39.5752,460.4224 38.8852,459.6214 38.8852,458.6324 C38.8852,457.6434 39.5752,456.8424 40.4272,456.8424 L41.7832,456.8424 C42.6352,456.8424 43.3242,457.6434 43.3242,458.6324" id="Fill-17" fill="#37539B"></path>
                        <path d="M48.123,458.6324 C48.123,459.6214 47.432,460.4224 46.581,460.4224 L45.225,460.4224 C44.373,460.4224 43.683,459.6214 43.683,458.6324 C43.683,457.6434 44.373,456.8424 45.225,456.8424 L46.581,456.8424 C47.432,456.8424 48.123,457.6434 48.123,458.6324" id="Fill-18" fill="#37539B"></path>
                        <path d="M52.9199,458.6324 C52.9199,459.6214 52.2299,460.4224 51.3789,460.4224 L50.0219,460.4224 C49.1709,460.4224 48.4809,459.6214 48.4809,458.6324 C48.4809,457.6434 49.1709,456.8424 50.0219,456.8424 L51.3789,456.8424 C52.2299,456.8424 52.9199,457.6434 52.9199,458.6324" id="Fill-19" fill="#37539B"></path>
                        <path d="M57.7168,458.6324 C57.7168,459.6214 57.0278,460.4224 56.1758,460.4224 L54.8208,460.4224 C53.9688,460.4224 53.2788,459.6214 53.2788,458.6324 C53.2788,457.6434 53.9688,456.8424 54.8208,456.8424 L56.1758,456.8424 C57.0278,456.8424 57.7168,457.6434 57.7168,458.6324" id="Fill-20" fill="#37539B"></path>
                        <path d="M62.5869,458.6324 C62.5869,459.6214 61.8969,460.4224 61.0449,460.4224 L59.6899,460.4224 C58.8379,460.4224 58.1489,459.6214 58.1489,458.6324 C58.1489,457.6434 58.8379,456.8424 59.6899,456.8424 L61.0449,456.8424 C61.8969,456.8424 62.5869,457.6434 62.5869,458.6324" id="Fill-21" fill="#37539B"></path>
                        <path d="M67.3848,458.6324 C67.3848,459.6214 66.6948,460.4224 65.8438,460.4224 L64.4868,460.4224 C63.6358,460.4224 62.9458,459.6214 62.9458,458.6324 C62.9458,457.6434 63.6358,456.8424 64.4868,456.8424 L65.8438,456.8424 C66.6948,456.8424 67.3848,457.6434 67.3848,458.6324" id="Fill-22" fill="#37539B"></path>
                        <path d="M72.1826,458.6324 C72.1826,459.6214 71.4926,460.4224 70.6406,460.4224 L69.2846,460.4224 C68.4336,460.4224 67.7426,459.6214 67.7426,458.6324 C67.7426,457.6434 68.4336,456.8424 69.2846,456.8424 L70.6406,456.8424 C71.4926,456.8424 72.1826,457.6434 72.1826,458.6324" id="Fill-23" fill="#37539B"></path>
                        <path d="M76.9805,458.6324 C76.9805,459.6214 76.2905,460.4224 75.4385,460.4224 L74.0825,460.4224 C73.2305,460.4224 72.5415,459.6214 72.5415,458.6324 C72.5415,457.6434 73.2305,456.8424 74.0825,456.8424 L75.4385,456.8424 C76.2905,456.8424 76.9805,457.6434 76.9805,458.6324" id="Fill-24" fill="#37539B"></path>
                        <path d="M81.8496,458.6324 C81.8496,459.6214 81.1586,460.4224 80.3076,460.4224 L78.9516,460.4224 C78.0996,460.4224 77.4106,459.6214 77.4106,458.6324 C77.4106,457.6434 78.0996,456.8424 78.9516,456.8424 L80.3076,456.8424 C81.1586,456.8424 81.8496,457.6434 81.8496,458.6324" id="Fill-25" fill="#37539B"></path>
                        <path d="M86.6465,458.6324 C86.6465,459.6214 85.9575,460.4224 85.1055,460.4224 L83.7495,460.4224 C82.8975,460.4224 82.2075,459.6214 82.2075,458.6324 C82.2075,457.6434 82.8975,456.8424 83.7495,456.8424 L85.1055,456.8424 C85.9575,456.8424 86.6465,457.6434 86.6465,458.6324" id="Fill-26" fill="#37539B"></path>
                        <path d="M91.4434,458.6324 C91.4434,459.6214 90.7544,460.4224 89.9024,460.4224 L88.5474,460.4224 C87.6954,460.4224 87.0054,459.6214 87.0054,458.6324 C87.0054,457.6434 87.6954,456.8424 88.5474,456.8424 L89.9024,456.8424 C90.7544,456.8424 91.4434,457.6434 91.4434,458.6324" id="Fill-27" fill="#37539B"></path>
                        <path d="M96.2422,458.6324 C96.2422,459.6214 95.5522,460.4224 94.7012,460.4224 L93.3442,460.4224 C92.4932,460.4224 91.8032,459.6214 91.8032,458.6324 C91.8032,457.6434 92.4932,456.8424 93.3442,456.8424 L94.7012,456.8424 C95.5522,456.8424 96.2422,457.6434 96.2422,458.6324" id="Fill-28" fill="#37539B"></path>
                        <path d="M101.291,458.6324 C101.291,459.6214 100.6,460.4224 99.749,460.4224 L98.393,460.4224 C97.541,460.4224 96.851,459.6214 96.851,458.6324 C96.851,457.6434 97.541,456.8424 98.393,456.8424 L99.749,456.8424 C100.6,456.8424 101.291,457.6434 101.291,458.6324" id="Fill-29" fill="#37539B"></path>
                        <path d="M106.0879,458.6324 C106.0879,459.6214 105.3989,460.4224 104.5469,460.4224 L103.1909,460.4224 C102.3389,460.4224 101.6489,459.6214 101.6489,458.6324 C101.6489,457.6434 102.3389,456.8424 103.1909,456.8424 L104.5469,456.8424 C105.3989,456.8424 106.0879,457.6434 106.0879,458.6324" id="Fill-30" fill="#37539B"></path>
                        <path d="M110.8848,458.6324 C110.8848,459.6214 110.1958,460.4224 109.3438,460.4224 L107.9888,460.4224 C107.1368,460.4224 106.4468,459.6214 106.4468,458.6324 C106.4468,457.6434 107.1368,456.8424 107.9888,456.8424 L109.3438,456.8424 C110.1958,456.8424 110.8848,457.6434 110.8848,458.6324" id="Fill-31" fill="#37539B"></path>
                        <path d="M115.6836,458.6324 C115.6836,459.6214 114.9926,460.4224 114.1426,460.4224 L112.7856,460.4224 C111.9336,460.4224 111.2446,459.6214 111.2446,458.6324 C111.2446,457.6434 111.9336,456.8424 112.7856,456.8424 L114.1426,456.8424 C114.9926,456.8424 115.6836,457.6434 115.6836,458.6324" id="Fill-32" fill="#37539B"></path>
                        <path d="M120.5527,458.6324 C120.5527,459.6214 119.8627,460.4224 119.0107,460.4224 L117.6547,460.4224 C116.8027,460.4224 116.1137,459.6214 116.1137,458.6324 C116.1137,457.6434 116.8027,456.8424 117.6547,456.8424 L119.0107,456.8424 C119.8627,456.8424 120.5527,457.6434 120.5527,458.6324" id="Fill-33" fill="#37539B"></path>
                        <path d="M125.3506,458.6324 C125.3506,459.6214 124.6606,460.4224 123.8086,460.4224 L122.4526,460.4224 C121.6016,460.4224 120.9106,459.6214 120.9106,458.6324 C120.9106,457.6434 121.6016,456.8424 122.4526,456.8424 L123.8086,456.8424 C124.6606,456.8424 125.3506,457.6434 125.3506,458.6324" id="Fill-34" fill="#37539B"></path>
                        <path d="M130.1484,458.6324 C130.1484,459.6214 129.4574,460.4224 128.6064,460.4224 L127.2504,460.4224 C126.3984,460.4224 125.7084,459.6214 125.7084,458.6324 C125.7084,457.6434 126.3984,456.8424 127.2504,456.8424 L128.6064,456.8424 C129.4574,456.8424 130.1484,457.6434 130.1484,458.6324" id="Fill-35" fill="#37539B"></path>
                        <path d="M134.9453,458.6324 C134.9453,459.6214 134.2563,460.4224 133.4043,460.4224 L132.0473,460.4224 C131.1953,460.4224 130.5063,459.6214 130.5063,458.6324 C130.5063,457.6434 131.1953,456.8424 132.0473,456.8424 L133.4043,456.8424 C134.2563,456.8424 134.9453,457.6434 134.9453,458.6324" id="Fill-36" fill="#37539B"></path>
                        <path d="M139.8145,458.6324 C139.8145,459.6214 139.1255,460.4224 138.2735,460.4224 L136.9175,460.4224 C136.0655,460.4224 135.3755,459.6214 135.3755,458.6324 C135.3755,457.6434 136.0655,456.8424 136.9175,456.8424 L138.2735,456.8424 C139.1255,456.8424 139.8145,457.6434 139.8145,458.6324" id="Fill-37" fill="#37539B"></path>
                        <path d="M144.6133,458.6324 C144.6133,459.6214 143.9223,460.4224 143.0713,460.4224 L141.7153,460.4224 C140.8633,460.4224 140.1733,459.6214 140.1733,458.6324 C140.1733,457.6434 140.8633,456.8424 141.7153,456.8424 L143.0713,456.8424 C143.9223,456.8424 144.6133,457.6434 144.6133,458.6324" id="Fill-38" fill="#37539B"></path>
                        <path d="M149.4102,458.6324 C149.4102,459.6214 148.7202,460.4224 147.8692,460.4224 L146.5122,460.4224 C145.6612,460.4224 144.9712,459.6214 144.9712,458.6324 C144.9712,457.6434 145.6612,456.8424 146.5122,456.8424 L147.8692,456.8424 C148.7202,456.8424 149.4102,457.6434 149.4102,458.6324" id="Fill-39" fill="#37539B"></path>
                        <path d="M154.207,458.6324 C154.207,459.6214 153.518,460.4224 152.666,460.4224 L151.311,460.4224 C150.459,460.4224 149.769,459.6214 149.769,458.6324 C149.769,457.6434 150.459,456.8424 151.311,456.8424 L152.666,456.8424 C153.518,456.8424 154.207,457.6434 154.207,458.6324" id="Fill-40" fill="#37539B"></path>
                        <path d="M159.0771,458.6324 C159.0771,459.6214 158.3871,460.4224 157.5351,460.4224 L156.1791,460.4224 C155.3281,460.4224 154.6371,459.6214 154.6371,458.6324 C154.6371,457.6434 155.3281,456.8424 156.1791,456.8424 L157.5351,456.8424 C158.3871,456.8424 159.0771,457.6434 159.0771,458.6324" id="Fill-41" fill="#37539B"></path>
                        <path d="M163.875,458.6324 C163.875,459.6214 163.185,460.4224 162.333,460.4224 L160.977,460.4224 C160.125,460.4224 159.436,459.6214 159.436,458.6324 C159.436,457.6434 160.125,456.8424 160.977,456.8424 L162.333,456.8424 C163.185,456.8424 163.875,457.6434 163.875,458.6324" id="Fill-42" fill="#37539B"></path>
                        <path d="M168.6719,458.6324 C168.6719,459.6214 167.9829,460.4224 167.1309,460.4224 L165.7749,460.4224 C164.9219,460.4224 164.2329,459.6214 164.2329,458.6324 C164.2329,457.6434 164.9219,456.8424 165.7749,456.8424 L167.1309,456.8424 C167.9829,456.8424 168.6719,457.6434 168.6719,458.6324" id="Fill-43" fill="#37539B"></path>
                        <path d="M173.4707,458.6324 C173.4707,459.6214 172.7797,460.4224 171.9287,460.4224 L170.5727,460.4224 C169.7207,460.4224 169.0307,459.6214 169.0307,458.6324 C169.0307,457.6434 169.7207,456.8424 170.5727,456.8424 L171.9287,456.8424 C172.7797,456.8424 173.4707,457.6434 173.4707,458.6324" id="Fill-44" fill="#37539B"></path>
                        <path d="M178.4111,458.6324 C178.4111,459.6214 177.7211,460.4224 176.8691,460.4224 L175.5131,460.4224 C174.6621,460.4224 173.9711,459.6214 173.9711,458.6324 C173.9711,457.6434 174.6621,456.8424 175.5131,456.8424 L176.8691,456.8424 C177.7211,456.8424 178.4111,457.6434 178.4111,458.6324" id="Fill-45" fill="#37539B"></path>
                        <path d="M183.2793,458.6324 C183.2793,459.6214 182.5903,460.4224 181.7383,460.4224 L180.3823,460.4224 C179.5303,460.4224 178.8403,459.6214 178.8403,458.6324 C178.8403,457.6434 179.5303,456.8424 180.3823,456.8424 L181.7383,456.8424 C182.5903,456.8424 183.2793,457.6434 183.2793,458.6324" id="Fill-46" fill="#37539B"></path>
                        <path d="M188.0781,458.6324 C188.0781,459.6214 187.3871,460.4224 186.5361,460.4224 L185.1801,460.4224 C184.3281,460.4224 183.6381,459.6214 183.6381,458.6324 C183.6381,457.6434 184.3281,456.8424 185.1801,456.8424 L186.5361,456.8424 C187.3871,456.8424 188.0781,457.6434 188.0781,458.6324" id="Fill-47" fill="#37539B"></path>
                        <path d="M192.875,458.6324 C192.875,459.6214 192.185,460.4224 191.334,460.4224 L189.977,460.4224 C189.126,460.4224 188.436,459.6214 188.436,458.6324 C188.436,457.6434 189.126,456.8424 189.977,456.8424 L191.334,456.8424 C192.185,456.8424 192.875,457.6434 192.875,458.6324" id="Fill-48" fill="#37539B"></path>
                        <path d="M197.6719,458.6324 C197.6719,459.6214 196.9829,460.4224 196.1309,460.4224 L194.7759,460.4224 C193.9239,460.4224 193.2339,459.6214 193.2339,458.6324 C193.2339,457.6434 193.9239,456.8424 194.7759,456.8424 L196.1309,456.8424 C196.9829,456.8424 197.6719,457.6434 197.6719,458.6324" id="Fill-49" fill="#37539B"></path>
                        <path d="M202.4102,457.8287 C202.6392,458.7917 202.1542,459.7297 201.3262,459.9297 L200.0072,460.2437 C199.1792,460.4427 198.3212,459.8237 198.0922,458.8627 C197.8612,457.8987 198.3462,456.9607 199.1742,456.7617 L200.4942,456.4467 C201.3222,456.2487 202.1792,456.8677 202.4102,457.8287" id="Fill-50" fill="#37539B"></path>
                        <path d="M205.9219,454.5094 C206.6579,455.1704 206.7929,456.2184 206.2249,456.8534 L205.3179,457.8624 C204.7499,458.4964 203.6939,458.4754 202.9589,457.8154 C202.2209,457.1534 202.0859,456.1054 202.6539,455.4714 L203.5609,454.4614 C204.1279,453.8274 205.1859,453.8494 205.9219,454.5094" id="Fill-51" fill="#37539B"></path>
                        <path d="M207.4697,450.065 C208.4317,450.3 209.0467,451.16 208.8467,451.987 L208.5257,453.305 C208.3247,454.132 207.3837,454.613 206.4227,454.38 C205.4607,454.146 204.8457,453.287 205.0447,452.46 L205.3667,451.141 C205.5677,450.314 206.5097,449.833 207.4697,450.065" id="Fill-52" fill="#37539B"></path>
                        <path d="M207.4502,445.1393 C208.4392,445.0773 209.2812,445.7153 209.3362,446.5653 L209.4202,447.9193 C209.4742,448.7693 208.7192,449.5083 207.7322,449.5713 C206.7422,449.6323 205.9012,448.9943 205.8462,448.1453 L205.7622,446.7903 C205.7082,445.9423 206.4652,445.2023 207.4502,445.1393" id="Fill-53" fill="#37539B"></path>
                        <path d="M205.2695,440.9693 C206.0935,440.4203 207.1425,440.5513 207.6155,441.2593 L208.3675,442.3893 C208.8385,443.0973 208.5535,444.1153 207.7325,444.6633 C206.9065,445.2123 205.8585,445.0823 205.3845,444.3733 L204.6345,443.2433 C204.1625,442.5353 204.4475,441.5173 205.2695,440.9693" id="Fill-54" fill="#37539B"></path>
                        <path d="M201.7754,437.6578 C202.4024,436.8878 203.4414,436.7038 204.1034,437.2378 L205.1564,438.0948 C205.8174,438.6318 205.8474,439.6868 205.2244,440.4548 C204.5984,441.2238 203.5584,441.4098 202.8984,440.8748 L201.8454,440.0178 C201.1844,439.4828 201.1544,438.4248 201.7754,437.6578" id="Fill-55" fill="#37539B"></path>
                        <path d="M196.9941,437.5025 C197.0351,436.5115 197.7401,435.7405 198.5681,435.7735 L199.8891,435.8285 C200.7181,435.8625 201.3551,436.6905 201.3141,437.6775 C201.2731,438.6685 200.5681,439.4405 199.7411,439.4065 L198.4201,439.3515 C197.5921,439.3175 196.9531,438.4885 196.9941,437.5025" id="Fill-56" fill="#37539B"></path>
                        <path d="M18.7998,437.6334 C18.7998,438.6214 18.1098,439.4234 17.2578,439.4234 L15.9018,439.4234 C15.0508,439.4234 14.3598,438.6214 14.3598,437.6334 C14.3598,436.6444 15.0508,435.8424 15.9018,435.8424 L17.2578,435.8424 C18.1098,435.8424 18.7998,436.6444 18.7998,437.6334" id="Fill-57" fill="#37539B"></path>
                        <path d="M23.5977,437.6334 C23.5977,438.6214 22.9077,439.4234 22.0557,439.4234 L20.6997,439.4234 C19.8477,439.4234 19.1587,438.6214 19.1587,437.6334 C19.1587,436.6444 19.8477,435.8424 20.6997,435.8424 L22.0557,435.8424 C22.9077,435.8424 23.5977,436.6444 23.5977,437.6334" id="Fill-58" fill="#37539B"></path>
                        <path d="M28.3945,437.6334 C28.3945,438.6214 27.7055,439.4234 26.8535,439.4234 L25.4975,439.4234 C24.6445,439.4234 23.9555,438.6214 23.9555,437.6334 C23.9555,436.6444 24.6445,435.8424 25.4975,435.8424 L26.8535,435.8424 C27.7055,435.8424 28.3945,436.6444 28.3945,437.6334" id="Fill-59" fill="#37539B"></path>
                        <path d="M33.1924,437.6334 C33.1924,438.6214 32.5024,439.4234 31.6504,439.4234 L30.2954,439.4234 C29.4434,439.4234 28.7534,438.6214 28.7534,437.6334 C28.7534,436.6444 29.4434,435.8424 30.2954,435.8424 L31.6504,435.8424 C32.5024,435.8424 33.1924,436.6444 33.1924,437.6334" id="Fill-60" fill="#37539B"></path>
                        <path d="M38.0615,437.6334 C38.0615,438.6214 37.3715,439.4234 36.5195,439.4234 L35.1645,439.4234 C34.3125,439.4234 33.6225,438.6214 33.6225,437.6334 C33.6225,436.6444 34.3125,435.8424 35.1645,435.8424 L36.5195,435.8424 C37.3715,435.8424 38.0615,436.6444 38.0615,437.6334" id="Fill-61" fill="#37539B"></path>
                        <path d="M42.8594,437.6334 C42.8594,438.6214 42.1694,439.4234 41.3184,439.4234 L39.9614,439.4234 C39.1104,439.4234 38.4204,438.6214 38.4204,437.6334 C38.4204,436.6444 39.1104,435.8424 39.9614,435.8424 L41.3184,435.8424 C42.1694,435.8424 42.8594,436.6444 42.8594,437.6334" id="Fill-62" fill="#37539B"></path>
                        <path d="M47.6563,437.6334 C47.6563,438.6214 46.9673,439.4234 46.1153,439.4234 L44.7583,439.4234 C43.9083,439.4234 43.2173,438.6214 43.2173,437.6334 C43.2173,436.6444 43.9083,435.8424 44.7583,435.8424 L46.1153,435.8424 C46.9673,435.8424 47.6563,436.6444 47.6563,437.6334" id="Fill-63" fill="#37539B"></path>
                        <path d="M52.4541,437.6334 C52.4541,438.6214 51.7651,439.4234 50.9121,439.4234 L49.5571,439.4234 C48.7051,439.4234 48.0161,438.6214 48.0161,437.6334 C48.0161,436.6444 48.7051,435.8424 49.5571,435.8424 L50.9121,435.8424 C51.7651,435.8424 52.4541,436.6444 52.4541,437.6334" id="Fill-64" fill="#37539B"></path>
                        <path d="M57.3242,437.6334 C57.3242,438.6214 56.6342,439.4234 55.7822,439.4234 L54.4262,439.4234 C53.5742,439.4234 52.8852,438.6214 52.8852,437.6334 C52.8852,436.6444 53.5742,435.8424 54.4262,435.8424 L55.7822,435.8424 C56.6342,435.8424 57.3242,436.6444 57.3242,437.6334" id="Fill-65" fill="#37539B"></path>
                        <path d="M62.1221,437.6334 C62.1221,438.6214 61.4321,439.4234 60.5801,439.4234 L59.2241,439.4234 C58.3731,439.4234 57.6821,438.6214 57.6821,437.6334 C57.6821,436.6444 58.3731,435.8424 59.2241,435.8424 L60.5801,435.8424 C61.4321,435.8424 62.1221,436.6444 62.1221,437.6334" id="Fill-66" fill="#37539B"></path>
                        <path d="M66.9199,437.6334 C66.9199,438.6214 66.2289,439.4234 65.3779,439.4234 L64.0219,439.4234 C63.1699,439.4234 62.4799,438.6214 62.4799,437.6334 C62.4799,436.6444 63.1699,435.8424 64.0219,435.8424 L65.3779,435.8424 C66.2289,435.8424 66.9199,436.6444 66.9199,437.6334" id="Fill-67" fill="#37539B"></path>
                        <path d="M71.7168,437.6334 C71.7168,438.6214 71.0278,439.4234 70.1758,439.4234 L68.8198,439.4234 C67.9668,439.4234 67.2778,438.6214 67.2778,437.6334 C67.2778,436.6444 67.9668,435.8424 68.8198,435.8424 L70.1758,435.8424 C71.0278,435.8424 71.7168,436.6444 71.7168,437.6334" id="Fill-68" fill="#37539B"></path>
                        <path d="M76.5859,437.6334 C76.5859,438.6214 75.8959,439.4234 75.0449,439.4234 L73.6879,439.4234 C72.8369,439.4234 72.1469,438.6214 72.1469,437.6334 C72.1469,436.6444 72.8369,435.8424 73.6879,435.8424 L75.0449,435.8424 C75.8959,435.8424 76.5859,436.6444 76.5859,437.6334" id="Fill-69" fill="#37539B"></path>
                        <path d="M81.3838,437.6334 C81.3838,438.6214 80.6938,439.4234 79.8418,439.4234 L78.4868,439.4234 C77.6348,439.4234 76.9448,438.6214 76.9448,437.6334 C76.9448,436.6444 77.6348,435.8424 78.4868,435.8424 L79.8418,435.8424 C80.6938,435.8424 81.3838,436.6444 81.3838,437.6334" id="Fill-70" fill="#37539B"></path>
                        <path d="M86.1816,437.6334 C86.1816,438.6214 85.4916,439.4234 84.6396,439.4234 L83.2836,439.4234 C82.4316,439.4234 81.7426,438.6214 81.7426,437.6334 C81.7426,436.6444 82.4316,435.8424 83.2836,435.8424 L84.6396,435.8424 C85.4916,435.8424 86.1816,436.6444 86.1816,437.6334" id="Fill-71" fill="#37539B"></path>
                        <path d="M90.9785,437.6334 C90.9785,438.6214 90.2895,439.4234 89.4375,439.4234 L88.0805,439.4234 C87.2305,439.4234 86.5395,438.6214 86.5395,437.6334 C86.5395,436.6444 87.2305,435.8424 88.0805,435.8424 L89.4375,435.8424 C90.2895,435.8424 90.9785,436.6444 90.9785,437.6334" id="Fill-72" fill="#37539B"></path>
                        <path d="M96.0273,437.6334 C96.0273,438.6214 95.3373,439.4234 94.4863,439.4234 L93.1293,439.4234 C92.2783,439.4234 91.5883,438.6214 91.5883,437.6334 C91.5883,436.6444 92.2783,435.8424 93.1293,435.8424 L94.4863,435.8424 C95.3373,435.8424 96.0273,436.6444 96.0273,437.6334" id="Fill-73" fill="#37539B"></path>
                        <path d="M100.8242,437.6334 C100.8242,438.6214 100.1352,439.4234 99.2832,439.4234 L97.9282,439.4234 C97.0762,439.4234 96.3862,438.6214 96.3862,437.6334 C96.3862,436.6444 97.0762,435.8424 97.9282,435.8424 L99.2832,435.8424 C100.1352,435.8424 100.8242,436.6444 100.8242,437.6334" id="Fill-74" fill="#37539B"></path>
                        <path d="M105.6221,437.6334 C105.6221,438.6214 104.9331,439.4234 104.0801,439.4234 L102.7251,439.4234 C101.8731,439.4234 101.1841,438.6214 101.1841,437.6334 C101.1841,436.6444 101.8731,435.8424 102.7251,435.8424 L104.0801,435.8424 C104.9331,435.8424 105.6221,436.6444 105.6221,437.6334" id="Fill-75" fill="#37539B"></path>
                        <path d="M110.4199,437.6334 C110.4199,438.6214 109.7309,439.4234 108.8789,439.4234 L107.5219,439.4234 C106.6709,439.4234 105.9809,438.6214 105.9809,437.6334 C105.9809,436.6444 106.6709,435.8424 107.5219,435.8424 L108.8789,435.8424 C109.7309,435.8424 110.4199,436.6444 110.4199,437.6334" id="Fill-76" fill="#37539B"></path>
                        <path d="M115.2891,437.6334 C115.2891,438.6214 114.6001,439.4234 113.7481,439.4234 L112.3921,439.4234 C111.5401,439.4234 110.8501,438.6214 110.8501,437.6334 C110.8501,436.6444 111.5401,435.8424 112.3921,435.8424 L113.7481,435.8424 C114.6001,435.8424 115.2891,436.6444 115.2891,437.6334" id="Fill-77" fill="#37539B"></path>
                        <path d="M120.0879,437.6334 C120.0879,438.6214 119.3969,439.4234 118.5459,439.4234 L117.1899,439.4234 C116.3379,439.4234 115.6479,438.6214 115.6479,437.6334 C115.6479,436.6444 116.3379,435.8424 117.1899,435.8424 L118.5459,435.8424 C119.3969,435.8424 120.0879,436.6444 120.0879,437.6334" id="Fill-78" fill="#37539B"></path>
                        <path d="M124.8848,437.6334 C124.8848,438.6214 124.1938,439.4234 123.3438,439.4234 L121.9868,439.4234 C121.1348,439.4234 120.4458,438.6214 120.4458,437.6334 C120.4458,436.6444 121.1348,435.8424 121.9868,435.8424 L123.3438,435.8424 C124.1938,435.8424 124.8848,436.6444 124.8848,437.6334" id="Fill-79" fill="#37539B"></path>
                        <path d="M129.6816,437.6334 C129.6816,438.6214 128.9926,439.4234 128.1406,439.4234 L126.7856,439.4234 C125.9326,439.4234 125.2436,438.6214 125.2436,437.6334 C125.2436,436.6444 125.9326,435.8424 126.7856,435.8424 L128.1406,435.8424 C128.9926,435.8424 129.6816,436.6444 129.6816,437.6334" id="Fill-80" fill="#37539B"></path>
                        <path d="M134.5518,437.6334 C134.5518,438.6214 133.8618,439.4234 133.0098,439.4234 L131.6548,439.4234 C130.8028,439.4234 130.1128,438.6214 130.1128,437.6334 C130.1128,436.6444 130.8028,435.8424 131.6548,435.8424 L133.0098,435.8424 C133.8618,435.8424 134.5518,436.6444 134.5518,437.6334" id="Fill-81" fill="#37539B"></path>
                        <path d="M139.3496,437.6334 C139.3496,438.6214 138.6596,439.4234 137.8086,439.4234 L136.4516,439.4234 C135.6006,439.4234 134.9106,438.6214 134.9106,437.6334 C134.9106,436.6444 135.6006,435.8424 136.4516,435.8424 L137.8086,435.8424 C138.6596,435.8424 139.3496,436.6444 139.3496,437.6334" id="Fill-82" fill="#37539B"></path>
                        <path d="M144.1465,437.6334 C144.1465,438.6214 143.4575,439.4234 142.6055,439.4234 L141.2485,439.4234 C140.3985,439.4234 139.7075,438.6214 139.7075,437.6334 C139.7075,436.6444 140.3985,435.8424 141.2485,435.8424 L142.6055,435.8424 C143.4575,435.8424 144.1465,436.6444 144.1465,437.6334" id="Fill-83" fill="#37539B"></path>
                        <path d="M148.9443,437.6334 C148.9443,438.6214 148.2553,439.4234 147.4023,439.4234 L146.0473,439.4234 C145.1953,439.4234 144.5063,438.6214 144.5063,437.6334 C144.5063,436.6444 145.1953,435.8424 146.0473,435.8424 L147.4023,435.8424 C148.2553,435.8424 148.9443,436.6444 148.9443,437.6334" id="Fill-84" fill="#37539B"></path>
                        <path d="M153.8145,437.6334 C153.8145,438.6214 153.1235,439.4234 152.2725,439.4234 L150.9165,439.4234 C150.0645,439.4234 149.3745,438.6214 149.3745,437.6334 C149.3745,436.6444 150.0645,435.8424 150.9165,435.8424 L152.2725,435.8424 C153.1235,435.8424 153.8145,436.6444 153.8145,437.6334" id="Fill-85" fill="#37539B"></path>
                        <path d="M158.6113,437.6334 C158.6113,438.6214 157.9223,439.4234 157.0703,439.4234 L155.7143,439.4234 C154.8623,439.4234 154.1723,438.6214 154.1723,437.6334 C154.1723,436.6444 154.8623,435.8424 155.7143,435.8424 L157.0703,435.8424 C157.9223,435.8424 158.6113,436.6444 158.6113,437.6334" id="Fill-86" fill="#37539B"></path>
                        <path d="M163.4082,437.6334 C163.4082,438.6214 162.7192,439.4234 161.8672,439.4234 L160.5122,439.4234 C159.6602,439.4234 158.9702,438.6214 158.9702,437.6334 C158.9702,436.6444 159.6602,435.8424 160.5122,435.8424 L161.8672,435.8424 C162.7192,435.8424 163.4082,436.6444 163.4082,437.6334" id="Fill-87" fill="#37539B"></path>
                        <path d="M168.207,437.6334 C168.207,438.6214 167.516,439.4234 166.666,439.4234 L165.309,439.4234 C164.457,439.4234 163.768,438.6214 163.768,437.6334 C163.768,436.6444 164.457,435.8424 165.309,435.8424 L166.666,435.8424 C167.516,435.8424 168.207,436.6444 168.207,437.6334" id="Fill-88" fill="#37539B"></path>
                        <path d="M173.0039,437.7047 C173.0039,438.6927 172.3139,439.4947 171.4629,439.4947 L170.1059,439.4947 C169.2549,439.4947 168.5649,438.6927 168.5649,437.7047 C168.5649,436.7157 169.2549,435.9137 170.1059,435.9137 L171.4629,435.9137 C172.3139,435.9137 173.0039,436.7157 173.0039,437.7047" id="Fill-89" fill="#37539B"></path>
                        <path d="M177.6943,437.7408 C177.6943,438.7288 177.0043,439.5308 176.1523,439.5308 L174.7973,439.5308 C173.9453,439.5308 173.2563,438.7288 173.2563,437.7408 C173.2563,436.7518 173.9453,435.9498 174.7973,435.9498 L176.1523,435.9498 C177.0043,435.9498 177.6943,436.7518 177.6943,437.7408" id="Fill-90" fill="#37539B"></path>
                        <path d="M182.4922,437.7408 C182.4922,438.7288 181.8022,439.5308 180.9512,439.5308 L179.5942,439.5308 C178.7432,439.5308 178.0532,438.7288 178.0532,437.7408 C178.0532,436.7518 178.7432,435.9498 179.5942,435.9498 L180.9512,435.9498 C181.8022,435.9498 182.4922,436.7518 182.4922,437.7408" id="Fill-91" fill="#37539B"></path>
                        <path d="M187.2188,437.7408 C187.2188,438.7288 186.5278,439.5308 185.6778,439.5308 L184.3208,439.5308 C183.4688,439.5308 182.7798,438.7288 182.7798,437.7408 C182.7798,436.7518 183.4688,435.9498 184.3208,435.9498 L185.6778,435.9498 C186.5278,435.9498 187.2188,436.7518 187.2188,437.7408" id="Fill-92" fill="#37539B"></path>
                        <path d="M192.0879,437.7408 C192.0879,438.7288 191.3969,439.5308 190.5459,439.5308 L189.1899,439.5308 C188.3379,439.5308 187.6479,438.7288 187.6479,437.7408 C187.6479,436.7518 188.3379,435.9498 189.1899,435.9498 L190.5459,435.9498 C191.3969,435.9498 192.0879,436.7518 192.0879,437.7408" id="Fill-93" fill="#37539B"></path>
                        <path d="M196.8135,437.7408 C196.8135,438.7288 196.1235,439.5308 195.2715,439.5308 L193.9165,439.5308 C193.0645,439.5308 192.3745,438.7288 192.3745,437.7408 C192.3745,436.7518 193.0645,435.9498 193.9165,435.9498 L195.2715,435.9498 C196.1235,435.9498 196.8135,436.7518 196.8135,437.7408" id="Fill-94" fill="#37539B"></path>
                        <path d="M199,434.892504 L184,434.892504 C184,430.474038 187.357471,426.892504 191,426.892504 C195.641559,426.892504 199,430.474038 199,434.892504" id="Fill-95" fill="#15BA68"></path>
                        <path d="M12.056872,436.999647 C6.88870368,436.999647 3.01421801,441.442435 3.01421801,447.35679 C3.01421801,446.901519 3.01421801,448.848815 3.01421801,448.392504 C3.01421801,454.30894 6.88870368,458.749647 12.056872,458.749647 C11.6506526,458.749647 199.344608,458.749647 198.938389,458.749647 C204.106557,458.749647 207.981043,454.30894 207.981043,448.392504 C207.981043,448.848815 207.981043,446.901519 207.981043,447.35679 C207.981043,441.442435 204.106557,436.999647 198.938389,436.999647 C199.344608,436.999647 11.6506526,436.999647 12.056872,436.999647 L12.056872,436.999647 Z M199.943128,462.892504 L12.056872,462.892504 C5.42749124,462.892504 0,456.82531 0,449.428219 L0,447.35679 C0,439.958655 5.42749124,433.892504 12.056872,433.892504 L199.943128,433.892504 C206.573514,433.892504 212,439.958655 212,447.35679 L212,449.428219 C212,456.82531 206.573514,462.892504 199.943128,462.892504 L199.943128,462.892504 Z" id="Fill-96" fill="#15BA68"></path>
                        <path d="M27,434.892504 L12,434.892504 C12,430.474038 15.3572537,426.892504 19,426.892504 C23.6417766,426.892504 27,430.474038 27,434.892504" id="Fill-118" fill="#15BA68"></path>
                        <path d="M22,428.892504 L17,428.892504 L17,0.892504233 L22,0.892504233 L22,428.892504 L22,428.892504 Z" id="Fill-119" fill="#15BA68"></path>
                        <path d="M26,294.392504 C26,297.983319 23.0908145,300.892504 19.5,300.892504 C15.9091855,300.892504 13,297.983319 13,294.392504 C13,290.80169 15.9091855,287.892504 19.5,287.892504 C23.0908145,287.892504 26,290.80169 26,294.392504" id="Fill-120" fill="#1DDB77"></path>
                        <path d="M23,294.392504 C23,296.32402 21.431516,297.892504 19.5,297.892504 C17.5661569,297.892504 16,296.32402 16,294.392504 C16,292.459825 17.5661569,290.892504 19.5,290.892504 C21.431516,290.892504 23,292.459825 23,294.392504" id="Fill-121" fill="#FFFFFF"></path>
                        <path d="M198,294.392504 C198,297.983319 195.090814,300.892504 191.5,300.892504 C187.909186,300.892504 185,297.983319 185,294.392504 C185,290.80169 187.909186,287.892504 191.5,287.892504 C195.090814,287.892504 198,290.80169 198,294.392504" id="Fill-120-Copy" fill="#1DDB77"></path>
                        <path d="M195,294.392504 C195,296.32402 193.431516,297.892504 191.5,297.892504 C189.566157,297.892504 188,296.32402 188,294.392504 C188,292.459825 189.566157,290.892504 191.5,290.892504 C193.431516,290.892504 195,292.459825 195,294.392504" id="Fill-121-Copy" fill="#FFFFFF"></path>
                        <path d="M21,421.892504 C21,422.551783 20.7757353,422.892504 20,422.892504 C20.2235294,422.892504 20,422.551783 20,421.892504 C20,422.131362 20,305.653647 20,305.892504 C20,305.233225 20.2235294,304.892504 20,304.892504 C20.7757353,304.892504 21,305.233225 21,305.892504 C21,305.653647 21,422.131362 21,421.892504 L21,421.892504 Z" id="Fill-122" fill="#1DDB77"></path>
                        <path d="M193,421.892504 C193,422.551783 192.775,422.892504 192,422.892504 C192.223529,422.892504 192,422.551783 192,421.892504 C192,422.131362 192,305.653647 192,305.892504 C192,305.233225 192.223529,304.892504 192,304.892504 C192.775,304.892504 193,305.233225 193,305.892504 C193,305.653647 193,422.131362 193,421.892504 L193,421.892504 Z" id="Fill-123" fill="#1DDB77"></path>
                        <path d="M24.7461,434.193 C24.4751,434.193 24.2231,434.02 24.1331,433.749 C23.2601,431.064 21.3541,430.468 21.2731,430.445 C20.9331,430.343 20.7371,429.987 20.8361,429.647 C20.9341,429.307 21.2871,429.11 21.6271,429.206 C21.7341,429.236 24.2631,429.982 25.3591,433.349 C25.4691,433.688 25.2841,434.051 24.9451,434.162 C24.8791,434.183 24.8121,434.193 24.7461,434.193" id="Fill-124" fill="#1DDB77"></path>
                        <path d="M196.3154,434.193 C196.0444,434.193 195.7914,434.02 195.7034,433.749 C194.8294,431.064 192.9234,430.468 192.8424,430.445 C192.5034,430.343 192.3064,429.987 192.4054,429.647 C192.5034,429.307 192.8554,429.109 193.1974,429.206 C193.3034,429.236 195.8324,429.982 196.9284,433.349 C197.0394,433.688 196.8534,434.051 196.5154,434.162 C196.4494,434.183 196.3814,434.193 196.3154,434.193" id="Fill-125" fill="#1DDB77"></path>
                        <path d="M20,286 C20.2236939,286 20,285.175213 20,284.424033 L20,2.32596685 C20,1.57557511 20.2236939,0.75 20,0.75 C20.7755703,0.75 21,1.57557511 21,2.32596685 L21,284.424033 C21,285.175213 20.7755703,286 20,286 Z" id="Fill-126" fill="#1DDB77"></path>
                        <path d="M176.896,434.1145 L132.891,434.1145 L132.891,390.1095 L176.896,390.1095 L176.896,434.1145 L176.896,434.1145 Z" id="Fill-127" fill="#FFC866"></path>
                        <path d="M159,433.892504 L151,433.892504 L151,429.892504 L159,429.892504 L159,433.892504 L159,433.892504 Z" id="Fill-128" fill="#FFEFD2"></path>
                        <path d="M148,396.392504 C148,398.876717 146.853735,400.892504 145,400.892504 C145.44141,400.892504 137.55859,400.892504 138,400.892504 C136.145264,400.892504 135,398.876717 135,396.392504 C135,393.908292 136.145264,391.892504 138,391.892504 C137.55859,391.892504 145.44141,391.892504 145,391.892504 C146.853735,391.892504 148,393.908292 148,396.392504" id="Fill-129" fill="#F8AE2D"></path>
                        <path d="M147,396.392504 C147,398.325323 146.030728,399.892504 145,399.892504 L138,399.892504 C136.969272,399.892504 136,398.325323 136,396.392504 C136,394.459686 136.969272,392.892504 138,392.892504 L145,392.892504 C146.030728,392.892504 147,394.459686 147,396.392504" id="Fill-130" fill="#FFFFFF"></path>
                        <path d="M145,394.892504 C145,395.650504 144.804634,395.868504 145,395.892504 C144.562668,395.868504 138.437332,395.868504 138,395.892504 C138.196262,395.868504 138,395.650504 138,394.892504 C138,395.110504 138.196262,394.892504 138,394.892504 L145,394.892504 C144.804634,394.892504 145,395.110504 145,394.892504" id="Fill-131" fill="#FFC866"></path>
                        <path d="M145,396.892504 C145,397.650504 144.804634,397.868504 145,397.892504 C144.562668,397.868504 138.437332,397.868504 138,397.892504 C138.196262,397.868504 138,397.650504 138,396.892504 C138,397.111504 138.196262,396.892504 138,396.892504 L145,396.892504 C144.804634,396.892504 145,397.111504 145,396.892504" id="Fill-132" fill="#FFC866"></path>
                        <path d="M175,429.892504 C175,431.12774 174.552014,431.892504 174,431.892504 C173.4471,431.892504 173,431.12774 173,429.892504 C173,430.1835 173,394.599515 173,394.892504 C173,393.657269 173.4471,392.892504 174,392.892504 C174.552014,392.892504 175,393.657269 175,394.892504 C175,394.599515 175,430.1835 175,429.892504 L175,429.892504 Z" id="Fill-133" fill="#FFE1B6"></path>
                        <path d="M156,433.892504 L154,433.892504 L154,389.892504 L156,389.892504 L156,433.892504 L156,433.892504 Z" id="Fill-134" fill="#D15D30"></path>
                        <path d="M177,413.892504 L133,413.892504 L133,411.892504 L177,411.892504 L177,413.892504 L177,413.892504 Z" id="Fill-135" fill="#D15D30"></path>
                        <path d="M62,433.892504 L42,433.892504 L42,413.892504 L62,413.892504 L62,433.892504 L62,433.892504 Z" id="Fill-140" fill="#FFC866"></path>
                        <path d="M53,433.892504 L50,433.892504 L50,431.892504 L53,431.892504 L53,433.892504 L53,433.892504 Z" id="Fill-141" fill="#FFEFD2"></path>
                        <rect id="Rectangle-1" fill="#FFFFFF" x="44" y="415.5" width="5" height="3" rx="8"></rect>
                        <path d="M60,431.892504 C60,432.559191 59.5525965,432.892504 59,432.892504 C58.4474035,432.892504 58,432.559191 58,431.892504 C58,432.148339 58,416.638684 58,416.892504 C58,416.224811 58.4474035,415.892504 59,415.892504 C59.5525965,415.892504 60,416.224811 60,416.892504 C60,416.638684 60,432.148339 60,431.892504 L60,431.892504 Z" id="Fill-143" fill="#FFE1B6"></path>
                        <path d="M92,433.892504 L72,433.892504 L72,413.892504 L92,413.892504 L92,433.892504 L92,433.892504 Z" id="Fill-140-Copy" fill="#FFC866"></path>
                        <path d="M83,433.892504 L80,433.892504 L80,431.892504 L83,431.892504 L83,433.892504 L83,433.892504 Z" id="Fill-141-Copy" fill="#FFEFD2"></path>
                        <path d="M90,431.892504 C90,432.559191 89.5525965,432.892504 89,432.892504 C88.4474035,432.892504 88,432.559191 88,431.892504 C88,432.148339 88,416.638684 88,416.892504 C88,416.224811 88.4474035,415.892504 89,415.892504 C89.5525965,415.892504 90,416.224811 90,416.892504 C90,416.638684 90,432.148339 90,431.892504 L90,431.892504 Z" id="Fill-143-Copy" fill="#FFE1B6"></path>
                        <rect id="Rectangle-1-Copy" fill="#FFFFFF" x="74" y="415.5" width="5" height="3" rx="8"></rect>
                    </g>
                    <g id="greeen_2" transform="translate(68.000000, 0.000000)">
                        <path d="M189,428.892504 L194,428.892504 L194,0.892504233 L189,0.892504233 L189,428.892504 L189,428.892504 Z" id="Fill-1" fill="#15BA68"></path>
                        <path d="M193,284.419668 C192.992701,285.174896 192.770803,286 192,286 C192.222628,286 192,285.174896 192,284.419668 C192,284.161083 192.007299,2.59128535 192,2.33033241 C192.007299,1.57510428 192.229927,0.75 193,0.75 C192.778832,0.75 193,1.57510428 193,2.33033241 C193,2.59128535 192.992701,284.161083 193,284.419668 L193,284.419668 Z" id="Fill-3" fill="#1DDB77"></path>
                        <path d="M14.6802,458.4781 C14.6802,459.4661 13.9902,460.2681 13.1382,460.2681 L11.7822,460.2681 C10.9312,460.2681 10.2402,459.4661 10.2402,458.4781 C10.2402,457.4891 10.9312,456.6881 11.7822,456.6881 L13.1382,456.6881 C13.9902,456.6881 14.6802,457.4891 14.6802,458.4781" id="Fill-4" fill="#37539B"></path>
                        <path d="M9.6221,438.2125 C9.3921,437.2495 9.8771,436.3115 10.7051,436.1115 L12.0241,435.7975 C12.8521,435.5985 13.7101,436.2175 13.9401,437.1785 C14.1701,438.1425 13.6851,439.0805 12.8571,439.2795 L11.5381,439.5945 C10.7091,439.7925 9.8521,439.1735 9.6221,438.2125" id="Fill-5" fill="#37539B"></path>
                        <path d="M5.6787,441.4606 C4.9427,440.7996 4.8077,439.7516 5.3757,439.1166 L6.2827,438.1066 C6.8497,437.4736 7.9067,437.4946 8.6427,438.1536 C9.3807,438.8156 9.5157,439.8646 8.9477,440.4986 L8.0407,441.5086 C7.4727,442.1426 6.4147,442.1196 5.6787,441.4606" id="Fill-6" fill="#37539B"></path>
                        <path d="M4.0601,445.9762 C3.0981,445.7412 2.4831,444.8812 2.6831,444.0542 L3.0041,442.7362 C3.2041,441.9092 4.1461,441.4282 5.1061,441.6612 C6.0691,441.8952 6.6841,442.7542 6.4841,443.5812 L6.1631,444.9002 C5.9621,445.7272 5.0201,446.2082 4.0601,445.9762" id="Fill-7" fill="#37539B"></path>
                        <path d="M4.0796,450.902 C3.0906,450.964 2.2486,450.325 2.1936,449.476 L2.1096,448.122 C2.0546,447.272 2.8106,446.533 3.7966,446.47 C4.7876,446.409 5.6286,447.047 5.6836,447.896 L5.7676,449.251 C5.8216,450.099 5.0656,450.839 4.0796,450.902" id="Fill-8" fill="#37539B"></path>
                        <path d="M6.2603,455.0709 C5.4353,455.6199 4.3873,455.4899 3.9143,454.7819 L3.1633,453.6519 C2.6913,452.9429 2.9763,451.9249 3.7973,451.3779 C4.6233,450.8289 5.6713,450.9589 6.1443,451.6679 L6.8953,452.7979 C7.3673,453.5059 7.0823,454.5239 6.2603,455.0709" id="Fill-9" fill="#37539B"></path>
                        <path d="M9.7539,458.3834 C9.1279,459.1534 8.0879,459.3374 7.4269,458.8034 L6.3739,457.9464 C5.7119,457.4094 5.6819,456.3544 6.3049,455.5864 C6.9309,454.8174 7.9709,454.6314 8.6309,455.1664 L9.6839,456.0234 C10.3449,456.5584 10.3759,457.6164 9.7539,458.3834" id="Fill-10" fill="#37539B"></path>
                        <path d="M14.5361,458.5387 C14.4941,459.5297 13.7891,460.3007 12.9621,460.2677 L11.6411,460.2127 C10.8121,460.1787 10.1741,459.3507 10.2151,458.3627 C10.2561,457.3727 10.9611,456.6007 11.7881,456.6337 L13.1101,456.6897 C13.9371,456.7237 14.5761,457.5527 14.5361,458.5387" id="Fill-11" fill="#37539B"></path>
                        <path d="M24.0625,458.6324 C24.0625,459.6214 23.3725,460.4224 22.5215,460.4224 L21.1645,460.4224 C20.3135,460.4224 19.6235,459.6214 19.6235,458.6324 C19.6235,457.6434 20.3135,456.8424 21.1645,456.8424 L22.5215,456.8424 C23.3725,456.8424 24.0625,457.6434 24.0625,458.6324" id="Fill-12" fill="#37539B"></path>
                        <path d="M28.8604,458.6324 C28.8604,459.6214 28.1704,460.4224 27.3184,460.4224 L25.9634,460.4224 C25.1114,460.4224 24.4214,459.6214 24.4214,458.6324 C24.4214,457.6434 25.1114,456.8424 25.9634,456.8424 L27.3184,456.8424 C28.1704,456.8424 28.8604,457.6434 28.8604,458.6324" id="Fill-13" fill="#37539B"></path>
                        <path d="M19.1221,458.6324 C19.1221,459.6214 18.4321,460.4224 17.5801,460.4224 L16.2251,460.4224 C15.3731,460.4224 14.6831,459.6214 14.6831,458.6324 C14.6831,457.6434 15.3731,456.8424 16.2251,456.8424 L17.5801,456.8424 C18.4321,456.8424 19.1221,457.6434 19.1221,458.6324" id="Fill-14" fill="#37539B"></path>
                        <path d="M33.6582,458.6324 C33.6582,459.6214 32.9682,460.4224 32.1162,460.4224 L30.7602,460.4224 C29.9082,460.4224 29.2192,459.6214 29.2192,458.6324 C29.2192,457.6434 29.9082,456.8424 30.7602,456.8424 L32.1162,456.8424 C32.9682,456.8424 33.6582,457.6434 33.6582,458.6324" id="Fill-15" fill="#37539B"></path>
                        <path d="M38.4551,458.6324 C38.4551,459.6214 37.7661,460.4224 36.9141,460.4224 L35.5571,460.4224 C34.7071,460.4224 34.0161,459.6214 34.0161,458.6324 C34.0161,457.6434 34.7071,456.8424 35.5571,456.8424 L36.9141,456.8424 C37.7661,456.8424 38.4551,457.6434 38.4551,458.6324" id="Fill-16" fill="#37539B"></path>
                        <path d="M43.3242,458.6324 C43.3242,459.6214 42.6352,460.4224 41.7832,460.4224 L40.4272,460.4224 C39.5752,460.4224 38.8852,459.6214 38.8852,458.6324 C38.8852,457.6434 39.5752,456.8424 40.4272,456.8424 L41.7832,456.8424 C42.6352,456.8424 43.3242,457.6434 43.3242,458.6324" id="Fill-17" fill="#37539B"></path>
                        <path d="M48.123,458.6324 C48.123,459.6214 47.432,460.4224 46.581,460.4224 L45.225,460.4224 C44.373,460.4224 43.683,459.6214 43.683,458.6324 C43.683,457.6434 44.373,456.8424 45.225,456.8424 L46.581,456.8424 C47.432,456.8424 48.123,457.6434 48.123,458.6324" id="Fill-18" fill="#37539B"></path>
                        <path d="M52.9199,458.6324 C52.9199,459.6214 52.2299,460.4224 51.3789,460.4224 L50.0219,460.4224 C49.1709,460.4224 48.4809,459.6214 48.4809,458.6324 C48.4809,457.6434 49.1709,456.8424 50.0219,456.8424 L51.3789,456.8424 C52.2299,456.8424 52.9199,457.6434 52.9199,458.6324" id="Fill-19" fill="#37539B"></path>
                        <path d="M57.7168,458.6324 C57.7168,459.6214 57.0278,460.4224 56.1758,460.4224 L54.8208,460.4224 C53.9688,460.4224 53.2788,459.6214 53.2788,458.6324 C53.2788,457.6434 53.9688,456.8424 54.8208,456.8424 L56.1758,456.8424 C57.0278,456.8424 57.7168,457.6434 57.7168,458.6324" id="Fill-20" fill="#37539B"></path>
                        <path d="M62.5869,458.6324 C62.5869,459.6214 61.8969,460.4224 61.0449,460.4224 L59.6899,460.4224 C58.8379,460.4224 58.1489,459.6214 58.1489,458.6324 C58.1489,457.6434 58.8379,456.8424 59.6899,456.8424 L61.0449,456.8424 C61.8969,456.8424 62.5869,457.6434 62.5869,458.6324" id="Fill-21" fill="#37539B"></path>
                        <path d="M67.3848,458.6324 C67.3848,459.6214 66.6948,460.4224 65.8438,460.4224 L64.4868,460.4224 C63.6358,460.4224 62.9458,459.6214 62.9458,458.6324 C62.9458,457.6434 63.6358,456.8424 64.4868,456.8424 L65.8438,456.8424 C66.6948,456.8424 67.3848,457.6434 67.3848,458.6324" id="Fill-22" fill="#37539B"></path>
                        <path d="M72.1826,458.6324 C72.1826,459.6214 71.4926,460.4224 70.6406,460.4224 L69.2846,460.4224 C68.4336,460.4224 67.7426,459.6214 67.7426,458.6324 C67.7426,457.6434 68.4336,456.8424 69.2846,456.8424 L70.6406,456.8424 C71.4926,456.8424 72.1826,457.6434 72.1826,458.6324" id="Fill-23" fill="#37539B"></path>
                        <path d="M76.9805,458.6324 C76.9805,459.6214 76.2905,460.4224 75.4385,460.4224 L74.0825,460.4224 C73.2305,460.4224 72.5415,459.6214 72.5415,458.6324 C72.5415,457.6434 73.2305,456.8424 74.0825,456.8424 L75.4385,456.8424 C76.2905,456.8424 76.9805,457.6434 76.9805,458.6324" id="Fill-24" fill="#37539B"></path>
                        <path d="M81.8496,458.6324 C81.8496,459.6214 81.1586,460.4224 80.3076,460.4224 L78.9516,460.4224 C78.0996,460.4224 77.4106,459.6214 77.4106,458.6324 C77.4106,457.6434 78.0996,456.8424 78.9516,456.8424 L80.3076,456.8424 C81.1586,456.8424 81.8496,457.6434 81.8496,458.6324" id="Fill-25" fill="#37539B"></path>
                        <path d="M86.6465,458.6324 C86.6465,459.6214 85.9575,460.4224 85.1055,460.4224 L83.7495,460.4224 C82.8975,460.4224 82.2075,459.6214 82.2075,458.6324 C82.2075,457.6434 82.8975,456.8424 83.7495,456.8424 L85.1055,456.8424 C85.9575,456.8424 86.6465,457.6434 86.6465,458.6324" id="Fill-26" fill="#37539B"></path>
                        <path d="M91.4434,458.6324 C91.4434,459.6214 90.7544,460.4224 89.9024,460.4224 L88.5474,460.4224 C87.6954,460.4224 87.0054,459.6214 87.0054,458.6324 C87.0054,457.6434 87.6954,456.8424 88.5474,456.8424 L89.9024,456.8424 C90.7544,456.8424 91.4434,457.6434 91.4434,458.6324" id="Fill-27" fill="#37539B"></path>
                        <path d="M96.2422,458.6324 C96.2422,459.6214 95.5522,460.4224 94.7012,460.4224 L93.3442,460.4224 C92.4932,460.4224 91.8032,459.6214 91.8032,458.6324 C91.8032,457.6434 92.4932,456.8424 93.3442,456.8424 L94.7012,456.8424 C95.5522,456.8424 96.2422,457.6434 96.2422,458.6324" id="Fill-28" fill="#37539B"></path>
                        <path d="M101.291,458.6324 C101.291,459.6214 100.6,460.4224 99.749,460.4224 L98.393,460.4224 C97.541,460.4224 96.851,459.6214 96.851,458.6324 C96.851,457.6434 97.541,456.8424 98.393,456.8424 L99.749,456.8424 C100.6,456.8424 101.291,457.6434 101.291,458.6324" id="Fill-29" fill="#37539B"></path>
                        <path d="M106.0879,458.6324 C106.0879,459.6214 105.3989,460.4224 104.5469,460.4224 L103.1909,460.4224 C102.3389,460.4224 101.6489,459.6214 101.6489,458.6324 C101.6489,457.6434 102.3389,456.8424 103.1909,456.8424 L104.5469,456.8424 C105.3989,456.8424 106.0879,457.6434 106.0879,458.6324" id="Fill-30" fill="#37539B"></path>
                        <path d="M110.8848,458.6324 C110.8848,459.6214 110.1958,460.4224 109.3438,460.4224 L107.9888,460.4224 C107.1368,460.4224 106.4468,459.6214 106.4468,458.6324 C106.4468,457.6434 107.1368,456.8424 107.9888,456.8424 L109.3438,456.8424 C110.1958,456.8424 110.8848,457.6434 110.8848,458.6324" id="Fill-31" fill="#37539B"></path>
                        <path d="M115.6836,458.6324 C115.6836,459.6214 114.9926,460.4224 114.1426,460.4224 L112.7856,460.4224 C111.9336,460.4224 111.2446,459.6214 111.2446,458.6324 C111.2446,457.6434 111.9336,456.8424 112.7856,456.8424 L114.1426,456.8424 C114.9926,456.8424 115.6836,457.6434 115.6836,458.6324" id="Fill-32" fill="#37539B"></path>
                        <path d="M120.5527,458.6324 C120.5527,459.6214 119.8627,460.4224 119.0107,460.4224 L117.6547,460.4224 C116.8027,460.4224 116.1137,459.6214 116.1137,458.6324 C116.1137,457.6434 116.8027,456.8424 117.6547,456.8424 L119.0107,456.8424 C119.8627,456.8424 120.5527,457.6434 120.5527,458.6324" id="Fill-33" fill="#37539B"></path>
                        <path d="M125.3506,458.6324 C125.3506,459.6214 124.6606,460.4224 123.8086,460.4224 L122.4526,460.4224 C121.6016,460.4224 120.9106,459.6214 120.9106,458.6324 C120.9106,457.6434 121.6016,456.8424 122.4526,456.8424 L123.8086,456.8424 C124.6606,456.8424 125.3506,457.6434 125.3506,458.6324" id="Fill-34" fill="#37539B"></path>
                        <path d="M130.1484,458.6324 C130.1484,459.6214 129.4574,460.4224 128.6064,460.4224 L127.2504,460.4224 C126.3984,460.4224 125.7084,459.6214 125.7084,458.6324 C125.7084,457.6434 126.3984,456.8424 127.2504,456.8424 L128.6064,456.8424 C129.4574,456.8424 130.1484,457.6434 130.1484,458.6324" id="Fill-35" fill="#37539B"></path>
                        <path d="M134.9453,458.6324 C134.9453,459.6214 134.2563,460.4224 133.4043,460.4224 L132.0473,460.4224 C131.1953,460.4224 130.5063,459.6214 130.5063,458.6324 C130.5063,457.6434 131.1953,456.8424 132.0473,456.8424 L133.4043,456.8424 C134.2563,456.8424 134.9453,457.6434 134.9453,458.6324" id="Fill-36" fill="#37539B"></path>
                        <path d="M139.8145,458.6324 C139.8145,459.6214 139.1255,460.4224 138.2735,460.4224 L136.9175,460.4224 C136.0655,460.4224 135.3755,459.6214 135.3755,458.6324 C135.3755,457.6434 136.0655,456.8424 136.9175,456.8424 L138.2735,456.8424 C139.1255,456.8424 139.8145,457.6434 139.8145,458.6324" id="Fill-37" fill="#37539B"></path>
                        <path d="M144.6133,458.6324 C144.6133,459.6214 143.9223,460.4224 143.0713,460.4224 L141.7153,460.4224 C140.8633,460.4224 140.1733,459.6214 140.1733,458.6324 C140.1733,457.6434 140.8633,456.8424 141.7153,456.8424 L143.0713,456.8424 C143.9223,456.8424 144.6133,457.6434 144.6133,458.6324" id="Fill-38" fill="#37539B"></path>
                        <path d="M149.4102,458.6324 C149.4102,459.6214 148.7202,460.4224 147.8692,460.4224 L146.5122,460.4224 C145.6612,460.4224 144.9712,459.6214 144.9712,458.6324 C144.9712,457.6434 145.6612,456.8424 146.5122,456.8424 L147.8692,456.8424 C148.7202,456.8424 149.4102,457.6434 149.4102,458.6324" id="Fill-39" fill="#37539B"></path>
                        <path d="M154.207,458.6324 C154.207,459.6214 153.518,460.4224 152.666,460.4224 L151.311,460.4224 C150.459,460.4224 149.769,459.6214 149.769,458.6324 C149.769,457.6434 150.459,456.8424 151.311,456.8424 L152.666,456.8424 C153.518,456.8424 154.207,457.6434 154.207,458.6324" id="Fill-40" fill="#37539B"></path>
                        <path d="M159.0771,458.6324 C159.0771,459.6214 158.3871,460.4224 157.5351,460.4224 L156.1791,460.4224 C155.3281,460.4224 154.6371,459.6214 154.6371,458.6324 C154.6371,457.6434 155.3281,456.8424 156.1791,456.8424 L157.5351,456.8424 C158.3871,456.8424 159.0771,457.6434 159.0771,458.6324" id="Fill-41" fill="#37539B"></path>
                        <path d="M163.875,458.6324 C163.875,459.6214 163.185,460.4224 162.333,460.4224 L160.977,460.4224 C160.125,460.4224 159.436,459.6214 159.436,458.6324 C159.436,457.6434 160.125,456.8424 160.977,456.8424 L162.333,456.8424 C163.185,456.8424 163.875,457.6434 163.875,458.6324" id="Fill-42" fill="#37539B"></path>
                        <path d="M168.6719,458.6324 C168.6719,459.6214 167.9829,460.4224 167.1309,460.4224 L165.7749,460.4224 C164.9219,460.4224 164.2329,459.6214 164.2329,458.6324 C164.2329,457.6434 164.9219,456.8424 165.7749,456.8424 L167.1309,456.8424 C167.9829,456.8424 168.6719,457.6434 168.6719,458.6324" id="Fill-43" fill="#37539B"></path>
                        <path d="M173.4707,458.6324 C173.4707,459.6214 172.7797,460.4224 171.9287,460.4224 L170.5727,460.4224 C169.7207,460.4224 169.0307,459.6214 169.0307,458.6324 C169.0307,457.6434 169.7207,456.8424 170.5727,456.8424 L171.9287,456.8424 C172.7797,456.8424 173.4707,457.6434 173.4707,458.6324" id="Fill-44" fill="#37539B"></path>
                        <path d="M178.4111,458.6324 C178.4111,459.6214 177.7211,460.4224 176.8691,460.4224 L175.5131,460.4224 C174.6621,460.4224 173.9711,459.6214 173.9711,458.6324 C173.9711,457.6434 174.6621,456.8424 175.5131,456.8424 L176.8691,456.8424 C177.7211,456.8424 178.4111,457.6434 178.4111,458.6324" id="Fill-45" fill="#37539B"></path>
                        <path d="M183.2793,458.6324 C183.2793,459.6214 182.5903,460.4224 181.7383,460.4224 L180.3823,460.4224 C179.5303,460.4224 178.8403,459.6214 178.8403,458.6324 C178.8403,457.6434 179.5303,456.8424 180.3823,456.8424 L181.7383,456.8424 C182.5903,456.8424 183.2793,457.6434 183.2793,458.6324" id="Fill-46" fill="#37539B"></path>
                        <path d="M188.0781,458.6324 C188.0781,459.6214 187.3871,460.4224 186.5361,460.4224 L185.1801,460.4224 C184.3281,460.4224 183.6381,459.6214 183.6381,458.6324 C183.6381,457.6434 184.3281,456.8424 185.1801,456.8424 L186.5361,456.8424 C187.3871,456.8424 188.0781,457.6434 188.0781,458.6324" id="Fill-47" fill="#37539B"></path>
                        <path d="M192.875,458.6324 C192.875,459.6214 192.185,460.4224 191.334,460.4224 L189.977,460.4224 C189.126,460.4224 188.436,459.6214 188.436,458.6324 C188.436,457.6434 189.126,456.8424 189.977,456.8424 L191.334,456.8424 C192.185,456.8424 192.875,457.6434 192.875,458.6324" id="Fill-48" fill="#37539B"></path>
                        <path d="M197.6719,458.6324 C197.6719,459.6214 196.9829,460.4224 196.1309,460.4224 L194.7759,460.4224 C193.9239,460.4224 193.2339,459.6214 193.2339,458.6324 C193.2339,457.6434 193.9239,456.8424 194.7759,456.8424 L196.1309,456.8424 C196.9829,456.8424 197.6719,457.6434 197.6719,458.6324" id="Fill-49" fill="#37539B"></path>
                        <path d="M202.4102,457.8287 C202.6392,458.7917 202.1542,459.7297 201.3262,459.9297 L200.0072,460.2437 C199.1792,460.4427 198.3212,459.8237 198.0922,458.8627 C197.8612,457.8987 198.3462,456.9607 199.1742,456.7617 L200.4942,456.4467 C201.3222,456.2487 202.1792,456.8677 202.4102,457.8287" id="Fill-50" fill="#37539B"></path>
                        <path d="M205.9219,454.5094 C206.6579,455.1704 206.7929,456.2184 206.2249,456.8534 L205.3179,457.8624 C204.7499,458.4964 203.6939,458.4754 202.9589,457.8154 C202.2209,457.1534 202.0859,456.1054 202.6539,455.4714 L203.5609,454.4614 C204.1279,453.8274 205.1859,453.8494 205.9219,454.5094" id="Fill-51" fill="#37539B"></path>
                        <path d="M207.4697,450.065 C208.4317,450.3 209.0467,451.16 208.8467,451.987 L208.5257,453.305 C208.3247,454.132 207.3837,454.613 206.4227,454.38 C205.4607,454.146 204.8457,453.287 205.0447,452.46 L205.3667,451.141 C205.5677,450.314 206.5097,449.833 207.4697,450.065" id="Fill-52" fill="#37539B"></path>
                        <path d="M207.4502,445.1393 C208.4392,445.0773 209.2812,445.7153 209.3362,446.5653 L209.4202,447.9193 C209.4742,448.7693 208.7192,449.5083 207.7322,449.5713 C206.7422,449.6323 205.9012,448.9943 205.8462,448.1453 L205.7622,446.7903 C205.7082,445.9423 206.4652,445.2023 207.4502,445.1393" id="Fill-53" fill="#37539B"></path>
                        <path d="M205.2695,440.9693 C206.0935,440.4203 207.1425,440.5513 207.6155,441.2593 L208.3675,442.3893 C208.8385,443.0973 208.5535,444.1153 207.7325,444.6633 C206.9065,445.2123 205.8585,445.0823 205.3845,444.3733 L204.6345,443.2433 C204.1625,442.5353 204.4475,441.5173 205.2695,440.9693" id="Fill-54" fill="#37539B"></path>
                        <path d="M201.7754,437.6578 C202.4024,436.8878 203.4414,436.7038 204.1034,437.2378 L205.1564,438.0948 C205.8174,438.6318 205.8474,439.6868 205.2244,440.4548 C204.5984,441.2238 203.5584,441.4098 202.8984,440.8748 L201.8454,440.0178 C201.1844,439.4828 201.1544,438.4248 201.7754,437.6578" id="Fill-55" fill="#37539B"></path>
                        <path d="M196.9941,437.5025 C197.0351,436.5115 197.7401,435.7405 198.5681,435.7735 L199.8891,435.8285 C200.7181,435.8625 201.3551,436.6905 201.3141,437.6775 C201.2731,438.6685 200.5681,439.4405 199.7411,439.4065 L198.4201,439.3515 C197.5921,439.3175 196.9531,438.4885 196.9941,437.5025" id="Fill-56" fill="#37539B"></path>
                        <path d="M18.7998,437.6334 C18.7998,438.6214 18.1098,439.4234 17.2578,439.4234 L15.9018,439.4234 C15.0508,439.4234 14.3598,438.6214 14.3598,437.6334 C14.3598,436.6444 15.0508,435.8424 15.9018,435.8424 L17.2578,435.8424 C18.1098,435.8424 18.7998,436.6444 18.7998,437.6334" id="Fill-57" fill="#37539B"></path>
                        <path d="M23.5977,437.6334 C23.5977,438.6214 22.9077,439.4234 22.0557,439.4234 L20.6997,439.4234 C19.8477,439.4234 19.1587,438.6214 19.1587,437.6334 C19.1587,436.6444 19.8477,435.8424 20.6997,435.8424 L22.0557,435.8424 C22.9077,435.8424 23.5977,436.6444 23.5977,437.6334" id="Fill-58" fill="#37539B"></path>
                        <path d="M28.3945,437.6334 C28.3945,438.6214 27.7055,439.4234 26.8535,439.4234 L25.4975,439.4234 C24.6445,439.4234 23.9555,438.6214 23.9555,437.6334 C23.9555,436.6444 24.6445,435.8424 25.4975,435.8424 L26.8535,435.8424 C27.7055,435.8424 28.3945,436.6444 28.3945,437.6334" id="Fill-59" fill="#37539B"></path>
                        <path d="M33.1924,437.6334 C33.1924,438.6214 32.5024,439.4234 31.6504,439.4234 L30.2954,439.4234 C29.4434,439.4234 28.7534,438.6214 28.7534,437.6334 C28.7534,436.6444 29.4434,435.8424 30.2954,435.8424 L31.6504,435.8424 C32.5024,435.8424 33.1924,436.6444 33.1924,437.6334" id="Fill-60" fill="#37539B"></path>
                        <path d="M38.0615,437.6334 C38.0615,438.6214 37.3715,439.4234 36.5195,439.4234 L35.1645,439.4234 C34.3125,439.4234 33.6225,438.6214 33.6225,437.6334 C33.6225,436.6444 34.3125,435.8424 35.1645,435.8424 L36.5195,435.8424 C37.3715,435.8424 38.0615,436.6444 38.0615,437.6334" id="Fill-61" fill="#37539B"></path>
                        <path d="M42.8594,437.6334 C42.8594,438.6214 42.1694,439.4234 41.3184,439.4234 L39.9614,439.4234 C39.1104,439.4234 38.4204,438.6214 38.4204,437.6334 C38.4204,436.6444 39.1104,435.8424 39.9614,435.8424 L41.3184,435.8424 C42.1694,435.8424 42.8594,436.6444 42.8594,437.6334" id="Fill-62" fill="#37539B"></path>
                        <path d="M47.6563,437.6334 C47.6563,438.6214 46.9673,439.4234 46.1153,439.4234 L44.7583,439.4234 C43.9083,439.4234 43.2173,438.6214 43.2173,437.6334 C43.2173,436.6444 43.9083,435.8424 44.7583,435.8424 L46.1153,435.8424 C46.9673,435.8424 47.6563,436.6444 47.6563,437.6334" id="Fill-63" fill="#37539B"></path>
                        <path d="M52.4541,437.6334 C52.4541,438.6214 51.7651,439.4234 50.9121,439.4234 L49.5571,439.4234 C48.7051,439.4234 48.0161,438.6214 48.0161,437.6334 C48.0161,436.6444 48.7051,435.8424 49.5571,435.8424 L50.9121,435.8424 C51.7651,435.8424 52.4541,436.6444 52.4541,437.6334" id="Fill-64" fill="#37539B"></path>
                        <path d="M57.3242,437.6334 C57.3242,438.6214 56.6342,439.4234 55.7822,439.4234 L54.4262,439.4234 C53.5742,439.4234 52.8852,438.6214 52.8852,437.6334 C52.8852,436.6444 53.5742,435.8424 54.4262,435.8424 L55.7822,435.8424 C56.6342,435.8424 57.3242,436.6444 57.3242,437.6334" id="Fill-65" fill="#37539B"></path>
                        <path d="M62.1221,437.6334 C62.1221,438.6214 61.4321,439.4234 60.5801,439.4234 L59.2241,439.4234 C58.3731,439.4234 57.6821,438.6214 57.6821,437.6334 C57.6821,436.6444 58.3731,435.8424 59.2241,435.8424 L60.5801,435.8424 C61.4321,435.8424 62.1221,436.6444 62.1221,437.6334" id="Fill-66" fill="#37539B"></path>
                        <path d="M66.9199,437.6334 C66.9199,438.6214 66.2289,439.4234 65.3779,439.4234 L64.0219,439.4234 C63.1699,439.4234 62.4799,438.6214 62.4799,437.6334 C62.4799,436.6444 63.1699,435.8424 64.0219,435.8424 L65.3779,435.8424 C66.2289,435.8424 66.9199,436.6444 66.9199,437.6334" id="Fill-67" fill="#37539B"></path>
                        <path d="M71.7168,437.6334 C71.7168,438.6214 71.0278,439.4234 70.1758,439.4234 L68.8198,439.4234 C67.9668,439.4234 67.2778,438.6214 67.2778,437.6334 C67.2778,436.6444 67.9668,435.8424 68.8198,435.8424 L70.1758,435.8424 C71.0278,435.8424 71.7168,436.6444 71.7168,437.6334" id="Fill-68" fill="#37539B"></path>
                        <path d="M76.5859,437.6334 C76.5859,438.6214 75.8959,439.4234 75.0449,439.4234 L73.6879,439.4234 C72.8369,439.4234 72.1469,438.6214 72.1469,437.6334 C72.1469,436.6444 72.8369,435.8424 73.6879,435.8424 L75.0449,435.8424 C75.8959,435.8424 76.5859,436.6444 76.5859,437.6334" id="Fill-69" fill="#37539B"></path>
                        <path d="M81.3838,437.6334 C81.3838,438.6214 80.6938,439.4234 79.8418,439.4234 L78.4868,439.4234 C77.6348,439.4234 76.9448,438.6214 76.9448,437.6334 C76.9448,436.6444 77.6348,435.8424 78.4868,435.8424 L79.8418,435.8424 C80.6938,435.8424 81.3838,436.6444 81.3838,437.6334" id="Fill-70" fill="#37539B"></path>
                        <path d="M86.1816,437.6334 C86.1816,438.6214 85.4916,439.4234 84.6396,439.4234 L83.2836,439.4234 C82.4316,439.4234 81.7426,438.6214 81.7426,437.6334 C81.7426,436.6444 82.4316,435.8424 83.2836,435.8424 L84.6396,435.8424 C85.4916,435.8424 86.1816,436.6444 86.1816,437.6334" id="Fill-71" fill="#37539B"></path>
                        <path d="M90.9785,437.6334 C90.9785,438.6214 90.2895,439.4234 89.4375,439.4234 L88.0805,439.4234 C87.2305,439.4234 86.5395,438.6214 86.5395,437.6334 C86.5395,436.6444 87.2305,435.8424 88.0805,435.8424 L89.4375,435.8424 C90.2895,435.8424 90.9785,436.6444 90.9785,437.6334" id="Fill-72" fill="#37539B"></path>
                        <path d="M96.0273,437.6334 C96.0273,438.6214 95.3373,439.4234 94.4863,439.4234 L93.1293,439.4234 C92.2783,439.4234 91.5883,438.6214 91.5883,437.6334 C91.5883,436.6444 92.2783,435.8424 93.1293,435.8424 L94.4863,435.8424 C95.3373,435.8424 96.0273,436.6444 96.0273,437.6334" id="Fill-73" fill="#37539B"></path>
                        <path d="M100.8242,437.6334 C100.8242,438.6214 100.1352,439.4234 99.2832,439.4234 L97.9282,439.4234 C97.0762,439.4234 96.3862,438.6214 96.3862,437.6334 C96.3862,436.6444 97.0762,435.8424 97.9282,435.8424 L99.2832,435.8424 C100.1352,435.8424 100.8242,436.6444 100.8242,437.6334" id="Fill-74" fill="#37539B"></path>
                        <path d="M105.6221,437.6334 C105.6221,438.6214 104.9331,439.4234 104.0801,439.4234 L102.7251,439.4234 C101.8731,439.4234 101.1841,438.6214 101.1841,437.6334 C101.1841,436.6444 101.8731,435.8424 102.7251,435.8424 L104.0801,435.8424 C104.9331,435.8424 105.6221,436.6444 105.6221,437.6334" id="Fill-75" fill="#37539B"></path>
                        <path d="M110.4199,437.6334 C110.4199,438.6214 109.7309,439.4234 108.8789,439.4234 L107.5219,439.4234 C106.6709,439.4234 105.9809,438.6214 105.9809,437.6334 C105.9809,436.6444 106.6709,435.8424 107.5219,435.8424 L108.8789,435.8424 C109.7309,435.8424 110.4199,436.6444 110.4199,437.6334" id="Fill-76" fill="#37539B"></path>
                        <path d="M115.2891,437.6334 C115.2891,438.6214 114.6001,439.4234 113.7481,439.4234 L112.3921,439.4234 C111.5401,439.4234 110.8501,438.6214 110.8501,437.6334 C110.8501,436.6444 111.5401,435.8424 112.3921,435.8424 L113.7481,435.8424 C114.6001,435.8424 115.2891,436.6444 115.2891,437.6334" id="Fill-77" fill="#37539B"></path>
                        <path d="M120.0879,437.6334 C120.0879,438.6214 119.3969,439.4234 118.5459,439.4234 L117.1899,439.4234 C116.3379,439.4234 115.6479,438.6214 115.6479,437.6334 C115.6479,436.6444 116.3379,435.8424 117.1899,435.8424 L118.5459,435.8424 C119.3969,435.8424 120.0879,436.6444 120.0879,437.6334" id="Fill-78" fill="#37539B"></path>
                        <path d="M124.8848,437.6334 C124.8848,438.6214 124.1938,439.4234 123.3438,439.4234 L121.9868,439.4234 C121.1348,439.4234 120.4458,438.6214 120.4458,437.6334 C120.4458,436.6444 121.1348,435.8424 121.9868,435.8424 L123.3438,435.8424 C124.1938,435.8424 124.8848,436.6444 124.8848,437.6334" id="Fill-79" fill="#37539B"></path>
                        <path d="M129.6816,437.6334 C129.6816,438.6214 128.9926,439.4234 128.1406,439.4234 L126.7856,439.4234 C125.9326,439.4234 125.2436,438.6214 125.2436,437.6334 C125.2436,436.6444 125.9326,435.8424 126.7856,435.8424 L128.1406,435.8424 C128.9926,435.8424 129.6816,436.6444 129.6816,437.6334" id="Fill-80" fill="#37539B"></path>
                        <path d="M134.5518,437.6334 C134.5518,438.6214 133.8618,439.4234 133.0098,439.4234 L131.6548,439.4234 C130.8028,439.4234 130.1128,438.6214 130.1128,437.6334 C130.1128,436.6444 130.8028,435.8424 131.6548,435.8424 L133.0098,435.8424 C133.8618,435.8424 134.5518,436.6444 134.5518,437.6334" id="Fill-81" fill="#37539B"></path>
                        <path d="M139.3496,437.6334 C139.3496,438.6214 138.6596,439.4234 137.8086,439.4234 L136.4516,439.4234 C135.6006,439.4234 134.9106,438.6214 134.9106,437.6334 C134.9106,436.6444 135.6006,435.8424 136.4516,435.8424 L137.8086,435.8424 C138.6596,435.8424 139.3496,436.6444 139.3496,437.6334" id="Fill-82" fill="#37539B"></path>
                        <path d="M144.1465,437.6334 C144.1465,438.6214 143.4575,439.4234 142.6055,439.4234 L141.2485,439.4234 C140.3985,439.4234 139.7075,438.6214 139.7075,437.6334 C139.7075,436.6444 140.3985,435.8424 141.2485,435.8424 L142.6055,435.8424 C143.4575,435.8424 144.1465,436.6444 144.1465,437.6334" id="Fill-83" fill="#37539B"></path>
                        <path d="M148.9443,437.6334 C148.9443,438.6214 148.2553,439.4234 147.4023,439.4234 L146.0473,439.4234 C145.1953,439.4234 144.5063,438.6214 144.5063,437.6334 C144.5063,436.6444 145.1953,435.8424 146.0473,435.8424 L147.4023,435.8424 C148.2553,435.8424 148.9443,436.6444 148.9443,437.6334" id="Fill-84" fill="#37539B"></path>
                        <path d="M153.8145,437.6334 C153.8145,438.6214 153.1235,439.4234 152.2725,439.4234 L150.9165,439.4234 C150.0645,439.4234 149.3745,438.6214 149.3745,437.6334 C149.3745,436.6444 150.0645,435.8424 150.9165,435.8424 L152.2725,435.8424 C153.1235,435.8424 153.8145,436.6444 153.8145,437.6334" id="Fill-85" fill="#37539B"></path>
                        <path d="M158.6113,437.6334 C158.6113,438.6214 157.9223,439.4234 157.0703,439.4234 L155.7143,439.4234 C154.8623,439.4234 154.1723,438.6214 154.1723,437.6334 C154.1723,436.6444 154.8623,435.8424 155.7143,435.8424 L157.0703,435.8424 C157.9223,435.8424 158.6113,436.6444 158.6113,437.6334" id="Fill-86" fill="#37539B"></path>
                        <path d="M163.4082,437.6334 C163.4082,438.6214 162.7192,439.4234 161.8672,439.4234 L160.5122,439.4234 C159.6602,439.4234 158.9702,438.6214 158.9702,437.6334 C158.9702,436.6444 159.6602,435.8424 160.5122,435.8424 L161.8672,435.8424 C162.7192,435.8424 163.4082,436.6444 163.4082,437.6334" id="Fill-87" fill="#37539B"></path>
                        <path d="M168.207,437.6334 C168.207,438.6214 167.516,439.4234 166.666,439.4234 L165.309,439.4234 C164.457,439.4234 163.768,438.6214 163.768,437.6334 C163.768,436.6444 164.457,435.8424 165.309,435.8424 L166.666,435.8424 C167.516,435.8424 168.207,436.6444 168.207,437.6334" id="Fill-88" fill="#37539B"></path>
                        <path d="M173.0039,437.7047 C173.0039,438.6927 172.3139,439.4947 171.4629,439.4947 L170.1059,439.4947 C169.2549,439.4947 168.5649,438.6927 168.5649,437.7047 C168.5649,436.7157 169.2549,435.9137 170.1059,435.9137 L171.4629,435.9137 C172.3139,435.9137 173.0039,436.7157 173.0039,437.7047" id="Fill-89" fill="#37539B"></path>
                        <path d="M177.6943,437.7408 C177.6943,438.7288 177.0043,439.5308 176.1523,439.5308 L174.7973,439.5308 C173.9453,439.5308 173.2563,438.7288 173.2563,437.7408 C173.2563,436.7518 173.9453,435.9498 174.7973,435.9498 L176.1523,435.9498 C177.0043,435.9498 177.6943,436.7518 177.6943,437.7408" id="Fill-90" fill="#37539B"></path>
                        <path d="M182.4922,437.7408 C182.4922,438.7288 181.8022,439.5308 180.9512,439.5308 L179.5942,439.5308 C178.7432,439.5308 178.0532,438.7288 178.0532,437.7408 C178.0532,436.7518 178.7432,435.9498 179.5942,435.9498 L180.9512,435.9498 C181.8022,435.9498 182.4922,436.7518 182.4922,437.7408" id="Fill-91" fill="#37539B"></path>
                        <path d="M187.2188,437.7408 C187.2188,438.7288 186.5278,439.5308 185.6778,439.5308 L184.3208,439.5308 C183.4688,439.5308 182.7798,438.7288 182.7798,437.7408 C182.7798,436.7518 183.4688,435.9498 184.3208,435.9498 L185.6778,435.9498 C186.5278,435.9498 187.2188,436.7518 187.2188,437.7408" id="Fill-92" fill="#37539B"></path>
                        <path d="M192.0879,437.7408 C192.0879,438.7288 191.3969,439.5308 190.5459,439.5308 L189.1899,439.5308 C188.3379,439.5308 187.6479,438.7288 187.6479,437.7408 C187.6479,436.7518 188.3379,435.9498 189.1899,435.9498 L190.5459,435.9498 C191.3969,435.9498 192.0879,436.7518 192.0879,437.7408" id="Fill-93" fill="#37539B"></path>
                        <path d="M196.8135,437.7408 C196.8135,438.7288 196.1235,439.5308 195.2715,439.5308 L193.9165,439.5308 C193.0645,439.5308 192.3745,438.7288 192.3745,437.7408 C192.3745,436.7518 193.0645,435.9498 193.9165,435.9498 L195.2715,435.9498 C196.1235,435.9498 196.8135,436.7518 196.8135,437.7408" id="Fill-94" fill="#37539B"></path>
                        <path d="M199,434.892504 L184,434.892504 C184,430.474038 187.357471,426.892504 191,426.892504 C195.641559,426.892504 199,430.474038 199,434.892504" id="Fill-95" fill="#15BA68"></path>
                        <path d="M12.056872,436.999647 C6.88870368,436.999647 3.01421801,441.442435 3.01421801,447.35679 C3.01421801,446.901519 3.01421801,448.848815 3.01421801,448.392504 C3.01421801,454.30894 6.88870368,458.749647 12.056872,458.749647 C11.6506526,458.749647 199.344608,458.749647 198.938389,458.749647 C204.106557,458.749647 207.981043,454.30894 207.981043,448.392504 C207.981043,448.848815 207.981043,446.901519 207.981043,447.35679 C207.981043,441.442435 204.106557,436.999647 198.938389,436.999647 C199.344608,436.999647 11.6506526,436.999647 12.056872,436.999647 L12.056872,436.999647 Z M199.943128,462.892504 L12.056872,462.892504 C5.42749124,462.892504 0,456.82531 0,449.428219 L0,447.35679 C0,439.958655 5.42749124,433.892504 12.056872,433.892504 L199.943128,433.892504 C206.573514,433.892504 212,439.958655 212,447.35679 L212,449.428219 C212,456.82531 206.573514,462.892504 199.943128,462.892504 L199.943128,462.892504 Z" id="Fill-96" fill="#15BA68"></path>
                        <path d="M27,434.892504 L12,434.892504 C12,430.474038 15.3572537,426.892504 19,426.892504 C23.6417766,426.892504 27,430.474038 27,434.892504" id="Fill-118" fill="#15BA68"></path>
                        <path d="M22,428.892504 L17,428.892504 L17,0.892504233 L22,0.892504233 L22,428.892504 L22,428.892504 Z" id="Fill-119" fill="#15BA68"></path>
                        <path d="M26,294.392504 C26,297.983319 23.0908145,300.892504 19.5,300.892504 C15.9091855,300.892504 13,297.983319 13,294.392504 C13,290.80169 15.9091855,287.892504 19.5,287.892504 C23.0908145,287.892504 26,290.80169 26,294.392504" id="Fill-120" fill="#1DDB77"></path>
                        <path d="M23,294.392504 C23,296.32402 21.431516,297.892504 19.5,297.892504 C17.5661569,297.892504 16,296.32402 16,294.392504 C16,292.459825 17.5661569,290.892504 19.5,290.892504 C21.431516,290.892504 23,292.459825 23,294.392504" id="Fill-121" fill="#FFFFFF"></path>
                        <path d="M198,294.392504 C198,297.983319 195.090814,300.892504 191.5,300.892504 C187.909186,300.892504 185,297.983319 185,294.392504 C185,290.80169 187.909186,287.892504 191.5,287.892504 C195.090814,287.892504 198,290.80169 198,294.392504" id="Fill-120-Copy" fill="#1DDB77"></path>
                        <path d="M195,294.392504 C195,296.32402 193.431516,297.892504 191.5,297.892504 C189.566157,297.892504 188,296.32402 188,294.392504 C188,292.459825 189.566157,290.892504 191.5,290.892504 C193.431516,290.892504 195,292.459825 195,294.392504" id="Fill-121-Copy" fill="#FFFFFF"></path>
                        <path d="M21,421.892504 C21,422.551783 20.7757353,422.892504 20,422.892504 C20.2235294,422.892504 20,422.551783 20,421.892504 C20,422.131362 20,305.653647 20,305.892504 C20,305.233225 20.2235294,304.892504 20,304.892504 C20.7757353,304.892504 21,305.233225 21,305.892504 C21,305.653647 21,422.131362 21,421.892504 L21,421.892504 Z" id="Fill-122" fill="#1DDB77"></path>
                        <path d="M193,421.892504 C193,422.551783 192.775,422.892504 192,422.892504 C192.223529,422.892504 192,422.551783 192,421.892504 C192,422.131362 192,305.653647 192,305.892504 C192,305.233225 192.223529,304.892504 192,304.892504 C192.775,304.892504 193,305.233225 193,305.892504 C193,305.653647 193,422.131362 193,421.892504 L193,421.892504 Z" id="Fill-123" fill="#1DDB77"></path>
                        <path d="M24.7461,434.193 C24.4751,434.193 24.2231,434.02 24.1331,433.749 C23.2601,431.064 21.3541,430.468 21.2731,430.445 C20.9331,430.343 20.7371,429.987 20.8361,429.647 C20.9341,429.307 21.2871,429.11 21.6271,429.206 C21.7341,429.236 24.2631,429.982 25.3591,433.349 C25.4691,433.688 25.2841,434.051 24.9451,434.162 C24.8791,434.183 24.8121,434.193 24.7461,434.193" id="Fill-124" fill="#1DDB77"></path>
                        <path d="M196.3154,434.193 C196.0444,434.193 195.7914,434.02 195.7034,433.749 C194.8294,431.064 192.9234,430.468 192.8424,430.445 C192.5034,430.343 192.3064,429.987 192.4054,429.647 C192.5034,429.307 192.8554,429.109 193.1974,429.206 C193.3034,429.236 195.8324,429.982 196.9284,433.349 C197.0394,433.688 196.8534,434.051 196.5154,434.162 C196.4494,434.183 196.3814,434.193 196.3154,434.193" id="Fill-125" fill="#1DDB77"></path>
                        <path d="M20,286 C20.2236939,286 20,285.175213 20,284.424033 L20,2.32596685 C20,1.57557511 20.2236939,0.75 20,0.75 C20.7755703,0.75 21,1.57557511 21,2.32596685 L21,284.424033 C21,285.175213 20.7755703,286 20,286 Z" id="Fill-126" fill="#1DDB77"></path>
                        <g id="bx_big" transform="translate(31.000000, 389.000000)">
                            <path d="M44.896,45.1145 L0.891,45.1145 L0.891,1.1095 L44.896,1.1095 L44.896,45.1145 L44.896,45.1145 Z" id="Fill-127" fill="#FFC866"></path>
                            <path d="M27,44.8925042 L19,44.8925042 L19,40.8925042 L27,40.8925042 L27,44.8925042 L27,44.8925042 Z" id="Fill-128" fill="#FFEFD2"></path>
                            <path d="M16,7.39250423 C16,9.87671679 14.8537355,11.8925042 13,11.8925042 C13.4414096,11.8925042 5.55859044,11.8925042 6,11.8925042 C4.14526429,11.8925042 3,9.87671679 3,7.39250423 C3,4.90829168 4.14526429,2.89250423 6,2.89250423 C5.55859044,2.89250423 13.4414096,2.89250423 13,2.89250423 C14.8537355,2.89250423 16,4.90829168 16,7.39250423" id="Fill-129" fill="#F8AE2D"></path>
                            <path d="M15,7.39250423 C15,9.3253227 14.0307275,10.8925042 13,10.8925042 L6,10.8925042 C4.96927248,10.8925042 4,9.3253227 4,7.39250423 C4,5.45968576 4.96927248,3.89250423 6,3.89250423 L13,3.89250423 C14.0307275,3.89250423 15,5.45968576 15,7.39250423" id="Fill-130" fill="#FFFFFF"></path>
                            <path d="M13,5.89250423 C13,6.65050423 12.8046345,6.86850423 13,6.89250423 C12.562668,6.86850423 6.43733197,6.86850423 6,6.89250423 C6.19626168,6.86850423 6,6.65050423 6,5.89250423 C6,6.11050423 6.19626168,5.89250423 6,5.89250423 L13,5.89250423 C12.8046345,5.89250423 13,6.11050423 13,5.89250423" id="Fill-131" fill="#FFC866"></path>
                            <path d="M13,7.89250423 C13,8.65050423 12.8046345,8.86850423 13,8.89250423 C12.562668,8.86850423 6.43733197,8.86850423 6,8.89250423 C6.19626168,8.86850423 6,8.65050423 6,7.89250423 C6,8.11150423 6.19626168,7.89250423 6,7.89250423 L13,7.89250423 C12.8046345,7.89250423 13,8.11150423 13,7.89250423" id="Fill-132" fill="#FFC866"></path>
                            <path d="M43,40.8925042 C43,42.1277397 42.5520142,42.8925042 42,42.8925042 C41.4471005,42.8925042 41,42.1277397 41,40.8925042 C41,41.1834998 41,5.59951451 41,5.89250423 C41,4.65726877 41.4471005,3.89250423 42,3.89250423 C42.5520142,3.89250423 43,4.65726877 43,5.89250423 C43,5.59951451 43,41.1834998 43,40.8925042 L43,40.8925042 Z" id="Fill-133" fill="#FFE1B6"></path>
                            <path d="M24,44.8925042 L22,44.8925042 L22,0.892504233 L24,0.892504233 L24,44.8925042 L24,44.8925042 Z" id="Fill-134" fill="#D15D30"></path>
                            <path d="M45,24.8925042 L1,24.8925042 L1,22.8925042 L45,22.8925042 L45,24.8925042 L45,24.8925042 Z" id="Fill-135" fill="#D15D30"></path>
                        </g>
                        <g id="bx_small" transform="translate(84.000000, 413.000000)">
                            <path d="M20,20.8925042 L0,20.8925042 L0,0.892504233 L20,0.892504233 L20,20.8925042 L20,20.8925042 Z" id="Fill-140" fill="#FFC866"></path>
                            <path d="M11,20.8925042 L8,20.8925042 L8,18.8925042 L11,18.8925042 L11,20.8925042 L11,20.8925042 Z" id="Fill-141" fill="#FFEFD2"></path>
                            <path d="M18,18.8925042 C18,19.5591906 17.5525965,19.8925042 17,19.8925042 C16.4474035,19.8925042 16,19.5591906 16,18.8925042 C16,19.1483388 16,3.6386836 16,3.89250423 C16,3.22481083 16.4474035,2.89250423 17,2.89250423 C17.5525965,2.89250423 18,3.22481083 18,3.89250423 C18,3.6386836 18,19.1483388 18,18.8925042 L18,18.8925042 Z" id="Fill-143" fill="#FFE1B6"></path>
                            <rect id="Rectangle-1-Copy-2" fill="#FFFFFF" x="2" y="2.5" width="5" height="3" rx="8"></rect>
                        </g>
                        <g id="box_wide" transform="translate(108.000000, 391.000000)">
                            <path d="M71,43 L3,43 L3,4 L71,4 L71,43 L71,43 Z" id="Fill-1" fill="#FFC866"></path>
                            <path d="M42,43 L32,43 L32,38 L42,38 L42,43 L42,43 Z" id="Fill-2" fill="#FFEFD2"></path>
                            <path d="M23,13.5 C23,16.5359313 21.4143263,19 19.4585043,19 L8.54244241,19 C6.58662038,19 5,16.5359313 5,13.5 C5,10.4621593 6.58662038,8 8.54244241,8 L19.4585043,8 C21.4143263,8 23,10.4621593 23,13.5" id="Fill-3" fill="#F8AE2D"></path>
                            <path d="M22,13.5 C22,15.984954 20.5903342,18 18.8502474,18 L9.14877497,18 C7.40966579,18 6,15.984954 6,13.5 C6,11.015046 7.40966579,9 9.14877497,9 L18.8502474,9 C20.5903342,9 22,11.015046 22,13.5" id="Fill-4" fill="#FFFFFF"></path>
                            <path d="M19,11.499654 C19,11.7750865 18.7203947,12 18.375,12 L9.62413435,12 C9.27960526,12 9,11.7750865 9,11.499654 C9,11.2242215 9.27960526,11 9.62413435,11 L18.375,11 C18.7203947,11 19,11.2242215 19,11.499654" id="Fill-5" fill="#FFC866"></path>
                            <path d="M19,15.499654 C19,15.7757785 18.7203947,16 18.375,16 L9.62413435,16 C9.27960526,16 9,15.7757785 9,15.499654 C9,15.2242215 9.27960526,15 9.62413435,15 L18.375,15 C18.7203947,15 19,15.2242215 19,15.499654" id="Fill-6" fill="#FFC866"></path>
                            <path d="M73,6 L0,6 L0,0 L73,0 L73,6 L73,6 Z" id="Fill-7" fill="#F8AE2D"></path>
                            <path d="M68,39.5558184 C68,40.353471 67.3291796,41 66.5015576,41 C65.6739356,41 65,40.353471 65,39.5558184 L65,9.44618324 C65,8.6475298 65.6739356,8 66.5015576,8 C67.3291796,8 68,8.6475298 68,9.44618324 L68,39.5558184 L68,39.5558184 Z" id="Fill-8" fill="#FFE1B6"></path>
                        </g>
                    </g>
                </g>
            </g>
        </g>
    </g>
</svg>